<svg width="107" height="107" viewBox="0 0 107 107" fill="none" xmlns="http://www.w3.org/2000/svg">
<mask id="mask0_1038_4042" style="mask-type:alpha" maskUnits="userSpaceOnUse" x="0" y="0" width="107" height="107">
<path d="M107 53.5C107 83.0472 83.0472 107 53.5 107C23.9528 107 0 83.0472 0 53.5C0 23.9528 23.9528 0 53.5 0C83.0472 0 107 23.9528 107 53.5Z" fill="white"/>
</mask>
<g mask="url(#mask0_1038_4042)">
<rect x="-13.3501" y="-50.4115" width="131.907" height="204.037" fill="white"/>
<path d="M71.8957 20.458C71.8957 20.458 74.8902 21.0359 77.4118 26.7621C79.9335 32.4884 78.8828 39.0552 78.5676 43.6256C78.2524 48.1961 77.5169 62.538 72.8413 69.7877C68.1658 77.0375 65.9593 77.4577 60.5483 79.454C55.1373 81.3978 41.3733 80.8199 35.542 75.5665C29.7107 70.2605 32.1273 61.4348 33.5982 58.2302C35.0692 54.973 71.8957 20.458 71.8957 20.458Z" fill="#221B23"/>
<path d="M38.799 57.7573C38.799 57.7573 37.3281 61.4873 37.0129 64.0614C36.6977 66.6356 38.3788 69.0522 39.3769 70.4181C40.4801 71.8891 42.529 74.4107 42.5815 79.454C42.6341 82.6061 64.4358 76.5646 64.4358 76.5646C66.3796 75.0411 70.2671 71.5213 72.6311 65.5849C74.6274 60.5942 74.6274 56.2338 74.4698 53.8173C65.4339 57.0744 56.3455 60.384 47.3096 63.6412L45.8386 61.3822L38.799 57.7573Z" fill="#1B141C"/>
<path d="M89.915 109.136L89.0219 97.8411C89.0219 97.8411 89.3897 93.113 84.3989 89.8033C79.4081 86.4937 72.1059 84.4974 68.9013 82.3434C65.6967 80.1895 64.0681 79.9794 64.1732 73.4652C64.2783 66.9509 64.646 52.2938 64.646 52.2938H43.212C43.212 52.2938 43.5798 66.9509 43.6848 73.4652C43.7899 79.9794 42.1613 80.1895 38.9567 82.3434C35.7521 84.4974 28.4499 86.4937 23.4591 89.8033C18.4684 93.113 18.8361 97.8411 18.8361 97.8411L17.9955 109.136H89.915Z" fill="#F3D4CF"/>
<path opacity="0.65" d="M53.929 78.3508C53.929 78.3508 58.7096 78.582 64.1732 74.5053C64.1679 74.1744 64.1679 73.8329 64.1732 73.4652C64.2782 66.9509 64.646 52.2938 64.646 52.2938H43.212C43.212 52.2938 43.5797 66.9509 43.6848 73.4652C43.69 73.8329 43.69 74.1796 43.6848 74.5053C49.1484 78.582 53.929 78.3508 53.929 78.3508Z" fill="#D4958A"/>
<path d="M40.165 86.2309C42.8442 87.7544 46.364 88.9627 49.411 89.2254C49.6211 89.2254 49.6211 88.9102 49.4635 88.8576C47.9926 88.2798 46.364 87.9646 44.8405 87.4917C43.317 87.0189 41.7935 86.4411 40.2175 86.0733C40.165 86.0208 40.0599 86.1784 40.165 86.2309ZM58.657 89.488C61.4413 89.1728 64.5934 87.912 67.01 86.4411C67.1676 86.336 67.0625 86.1259 66.9049 86.1784C65.539 86.6512 64.1731 87.2291 62.8072 87.7019C61.4413 88.1747 59.9704 88.4899 58.6045 89.0152C58.3418 89.0678 58.3418 89.488 58.657 89.488Z" fill="#D4958A"/>
<path d="M89.8625 109.083L88.7593 97.841C88.7593 96.6853 88.4966 95.477 87.9712 94.3738C87.4984 93.2706 86.7629 92.3249 85.9224 91.4844C85.0818 90.6438 84.0837 90.0134 83.033 89.383C81.9823 88.7526 80.8791 88.2273 79.7759 87.7545C77.5694 86.7563 75.2579 85.8632 72.999 84.9176C71.8432 84.4448 70.74 83.9194 69.6368 83.3416C69.0589 83.0264 68.5335 82.7112 68.0607 82.3434C67.5354 82.0282 67.01 81.713 66.4847 81.3453C65.9594 80.9775 65.434 80.5573 65.0137 79.9794C64.5935 79.454 64.3308 78.8236 64.1207 78.1932C63.7529 76.9324 63.7004 75.6716 63.7004 74.4107C63.7004 71.9416 63.8055 69.4725 63.858 67.0034C63.9631 62.0652 64.1732 57.1795 64.3308 52.2938L64.646 52.609L53.929 52.5039L43.212 52.4514L43.3696 52.2938L43.7374 67.0034C43.7899 69.4725 43.895 71.8891 43.9475 74.3582C43.9475 75.619 43.895 76.8273 43.5272 78.0881C43.3696 78.7185 43.0544 79.2964 42.6867 79.8218C42.2664 80.3471 41.7936 80.7674 41.2682 81.1351C40.7429 81.5029 40.2176 81.8181 39.7447 82.1858C39.2719 82.501 38.7466 82.8688 38.1687 83.184C37.0655 83.8144 35.9623 84.2872 34.8065 84.8125C32.5475 85.8107 30.2886 86.7038 28.0821 87.7545C26.9789 88.2798 25.8757 88.8577 24.8775 89.4356C23.8268 90.066 22.8812 90.6964 22.0407 91.5369C21.2001 92.3775 20.5172 93.3231 20.0444 94.3738C19.8342 94.8991 19.6241 95.477 19.519 96.0023C19.414 96.5802 19.3089 97.1581 19.3614 97.6834V97.7885L18.5734 109.083L18.0481 108.506L35.9097 108.558C41.8461 108.558 47.835 108.611 53.8239 108.663L71.7907 108.821L89.8625 109.083ZM89.9675 109.188L72.1059 109.399L54.1391 109.556C48.1502 109.609 42.1088 109.661 36.0673 109.661L17.9955 109.714H17.4177L17.4702 109.136L18.3633 97.841V97.8936C18.3107 95.2143 19.519 92.7452 21.3577 90.9065C22.2508 90.0134 23.354 89.278 24.4047 88.6475C25.4554 88.0171 26.6112 87.4918 27.7144 86.9664C29.9734 85.9158 32.2849 85.0227 34.5438 84.1296C35.6471 83.6568 36.8028 83.184 37.8535 82.6061C38.3789 82.3434 38.8517 82.0282 39.4295 81.6605C39.9549 81.3453 40.4802 81.0301 40.953 80.6623C41.4258 80.3471 41.8986 79.9268 42.2139 79.5066C42.5816 79.0338 42.8443 78.5084 43.0019 77.9831C43.3171 76.8799 43.4221 75.619 43.4221 74.4107C43.4221 71.9942 43.3696 69.525 43.3171 67.0559L43.0019 52.3463V52.1887H43.1595L53.8765 52.1362L64.5935 52.0311H64.9087V52.3463C64.8561 57.232 64.8036 62.1702 64.6985 67.0559C64.646 69.525 64.5935 71.9942 64.5935 74.4107C64.646 75.619 64.6985 76.8273 65.0137 77.9305C65.1713 78.5084 65.434 78.9812 65.7492 79.454C66.0644 79.8743 66.4847 80.2946 67.01 80.6098C67.4829 80.925 68.0082 81.2927 68.5335 81.6079C69.0589 81.9757 69.5317 82.2909 70.057 82.5536C71.1077 83.1314 72.2109 83.6568 73.3667 84.1296C75.6257 85.0752 77.8846 86.0208 80.1436 87.0715C81.2468 87.5969 82.3501 88.1747 83.4008 88.8051C84.4514 89.4356 85.5021 90.171 86.3952 91.0641C88.1814 92.8503 89.3371 95.3194 89.2321 97.8936V97.841L89.9675 109.188ZM30.7088 108.978L31.707 101.729L31.7595 108.978H30.7088ZM77.2542 108.978L76.2561 101.729L76.2035 108.978H77.2542Z" fill="#C5796D"/>
<path d="M65.6966 109.399L67.1151 95.3195C67.1151 95.3195 59.6027 103.725 53.9815 105.354C53.9815 105.354 45.3133 100.468 40.165 95.3195L42.2138 109.399H65.6966Z" fill="#EFEFEF"/>
<path d="M67.2201 95.1617C67.1151 95.0567 67.01 95.1092 66.9049 95.1617C64.9949 97.1771 62.9782 99.0886 60.8635 100.888C59.8128 101.781 58.7096 102.622 57.5538 103.41C56.3981 104.145 55.1898 104.828 53.929 105.248C52.7207 104.565 51.5124 103.83 50.3041 103.042C49.0958 102.254 47.94 101.466 46.7843 100.625C44.4728 98.9442 42.2663 97.158 40.27 95.1617C40.2175 95.1092 40.165 95.1092 40.1124 95.1092C40.0074 95.1092 39.9548 95.2143 39.9548 95.3193C40.27 97.6834 40.5852 99.9949 40.9004 102.359C41.2157 104.723 41.5309 107.034 41.8986 109.399C41.8986 109.504 42.0562 109.609 42.1613 109.609H48.0977L53.9815 109.556L59.8653 109.504L65.6966 109.399L66.5372 102.411L67.3252 95.3193C67.3252 95.2668 67.2727 95.2143 67.2201 95.1617ZM66.222 102.254L65.6441 109.346L59.7077 109.241L53.8239 109.188L47.94 109.136H42.3189C42.0037 106.877 41.6359 104.618 41.3207 102.306C41.0055 100.152 40.6903 97.9986 40.3226 95.8447C42.2663 97.6834 44.4202 99.3119 46.5742 100.835C47.7299 101.676 48.9382 102.464 50.1465 103.199C51.3548 103.935 52.5631 104.723 53.8239 105.458H53.8764C55.2423 105.038 56.4506 104.408 57.6589 103.672C58.8672 102.937 59.9704 102.096 61.0736 101.256C62.1768 100.363 63.2275 99.4695 64.2257 98.4714C65.0662 97.6834 65.9068 96.7903 66.6948 95.9498C66.5897 98.0511 66.4321 100.152 66.222 102.254Z" fill="#B88400"/>
<path d="M41.1632 82.0282C41.1632 82.0282 41.7936 80.0844 42.0562 78.666C42.3714 77.2476 42.2664 73.7803 42.2664 73.7803C42.2664 73.7803 41.2682 75.9342 39.8498 77.1425C38.4314 78.3508 32.9153 81.9231 32.9153 81.9231L34.1236 82.7637C34.1236 82.7637 21.2001 87.3342 20.307 87.9646C19.414 88.595 19.3089 89.9083 19.3089 89.9083L18.2057 90.2236C16.0518 99.0493 16.0518 109.451 16.0518 109.451H44.683C44.683 109.451 43.4747 100.73 42.9493 97.3682C42.4765 93.9535 41.1632 82.0282 41.1632 82.0282ZM89.8625 90.171L88.7592 89.8558C88.7592 89.8558 88.6542 88.5425 87.7611 87.912C86.868 87.2816 73.9446 82.7111 73.9446 82.7111L75.1529 81.8706C75.1529 81.8706 69.6893 78.2983 68.2183 77.09C66.7999 75.8817 65.8017 73.7278 65.8017 73.7278C65.8017 73.7278 65.6967 77.195 66.0119 78.6135C66.3271 80.0319 66.905 81.9757 66.905 81.9757C66.905 81.9757 65.5916 93.8484 65.0663 97.2106C64.5409 100.573 63.3326 109.294 63.3326 109.294H91.9638C91.9638 109.399 91.9638 99.0493 89.8625 90.171Z" fill="#E7B22B"/>
<path d="M75.1003 87.8595C74.1546 86.8614 72.8938 86.1784 71.8431 85.2328C70.7924 84.2872 69.9519 83.184 69.0063 82.1333C68.9012 82.0282 68.6911 82.1858 68.7961 82.2909C69.4791 83.6042 70.4247 84.76 71.4754 85.8107C72.3685 86.7038 73.5242 87.8595 74.7851 88.2798C72.0533 93.2706 70.3722 99.4171 69.7418 105.038C69.7418 105.143 69.8994 105.196 69.9519 105.091C70.5823 102.201 71.1077 99.312 72.0007 96.4751C72.8413 93.6383 74.1546 91.0116 75.2053 88.2273C75.2579 88.1747 75.2053 88.1222 75.1528 88.0697C75.2053 88.0171 75.1528 87.9646 75.1003 87.8595ZM74.0496 81.6079C72.9464 80.9775 71.7906 80.4522 70.7399 79.7167C69.5842 78.9287 68.5335 77.9831 67.5353 76.9849C67.4303 76.8799 67.3252 77.0375 67.4303 77.09C69.0588 79.1388 71.3703 81.1877 73.9445 81.8706C74.1021 81.9757 74.2072 81.713 74.0496 81.6079ZM83.9786 87.1241C80.9841 85.8632 77.8846 84.7075 74.7851 83.7619C74.68 83.7093 74.6275 83.8669 74.7325 83.9195C76.5712 84.8125 78.4625 85.6531 80.3537 86.4411C82.7703 87.4393 85.7122 88.0697 87.0255 90.5388C87.1306 90.7489 87.4458 90.5913 87.3933 90.3812C87.0781 88.5425 85.5546 87.7545 83.9786 87.1241ZM88.9693 91.5369C88.9168 91.3268 88.6016 91.3793 88.6016 91.5895C88.9693 94.4263 89.5997 97.1581 89.9149 99.995C90.2301 102.832 90.1251 105.721 90.4928 108.506C90.4928 108.716 90.7555 108.716 90.808 108.506C91.4384 103.305 90.5979 96.5277 88.9693 91.5369ZM40.3226 82.6586C40.5852 82.1333 40.6378 81.5029 40.7428 80.925C40.9004 80.2946 41.1106 79.6642 41.2682 79.0338C41.3207 78.9287 41.1631 78.8762 41.1106 78.9812C40.7428 79.5066 40.5327 80.0845 40.27 80.6623C40.0599 81.2402 39.7972 81.9231 39.8497 82.5536C39.9023 82.7637 40.2175 82.9213 40.3226 82.6586ZM40.165 83.4992C40.165 83.4466 40.0599 83.4466 40.0599 83.4992C40.0073 86.9139 40.6903 90.4337 41.2156 93.8484C41.741 97.5784 42.3189 101.361 43.317 105.038C43.317 105.091 43.3695 105.038 43.3695 105.038C43.0018 101.571 42.4239 98.1563 41.8986 94.7415C41.2682 91.0641 41.1106 87.1766 40.165 83.4992ZM37.4857 83.4992C36.0147 85.1277 34.6488 86.5987 32.8627 87.8595C32.6525 88.0171 32.7051 88.3323 32.9152 88.3849C33.6507 90.6964 34.7014 92.8503 35.4369 95.1618C36.1723 97.5258 36.6452 99.995 37.2756 102.359C37.3281 102.517 37.5382 102.464 37.5382 102.306C37.2756 97.736 35.8571 92.2199 33.388 88.2798C35.1217 87.0715 36.8028 85.548 37.8009 83.7093C37.8009 83.4992 37.5908 83.3416 37.4857 83.4992ZM20.3595 89.3305C21.0425 92.3249 22.4084 95.3194 23.459 98.2088C23.5116 98.3664 23.7217 98.3139 23.7217 98.1563C23.1438 95.2143 22.3558 91.7471 20.7798 89.1729C20.5697 88.9627 20.307 89.1204 20.3595 89.3305Z" fill="#FFCD4E"/>
<path d="M43.7899 99.1019C43.6323 97.9461 43.4747 96.8429 43.3171 95.6871C42.7392 91.1692 42.1613 86.5987 41.5309 82.0808C41.7411 81.4503 41.8987 80.7674 42.0563 80.137C42.1088 79.9794 42.1613 79.8218 42.1613 79.6642C42.3189 79.454 42.6341 79.0863 42.8443 78.6135C43.1595 77.878 43.4222 76.6172 43.4747 75.3564C43.5272 74.0955 43.4747 72.8347 43.4747 72.8347C43.4747 72.8347 42.2139 73.4126 42.1613 73.7803C41.6885 74.726 41.1632 75.5665 40.4802 76.3545C39.8498 77.1425 38.9567 77.7204 38.1162 78.3508C36.5402 79.454 34.9641 80.5047 33.283 81.5029C33.1254 81.6079 32.9678 81.6605 32.8102 81.7655L32.7577 81.8181C32.6526 81.9232 32.7052 82.0808 32.8102 82.1333C33.0204 82.2909 33.2305 82.4485 33.4406 82.5536L33.5457 82.6586C31.0241 83.4992 28.5024 84.3397 25.9808 85.2328C24.6674 85.7056 23.3015 86.1784 21.9882 86.7038L20.99 87.1241L20.4647 87.3342C20.3071 87.4393 20.0969 87.4918 19.9393 87.6494C19.5716 87.9121 19.3089 88.2798 19.1513 88.6475C19.0462 88.9102 18.9412 89.2254 18.8886 89.4881L18.0481 89.6982C17.8905 89.7508 17.7854 89.8558 17.7329 90.0134C16.9974 93.1655 16.5771 96.4226 16.2619 99.6272C16.1569 101.256 15.9992 102.832 15.9992 104.46C15.9992 105.248 15.9467 106.089 15.9467 106.877V109.294L30.131 109.609L37.3807 109.714C39.7973 109.766 42.2139 109.766 44.6304 109.766H44.7355C45.0507 109.714 45.2609 109.451 45.2083 109.136L44.2627 102.306L43.7899 99.1019ZM16.1043 109.346C16.1569 109.294 16.1043 109.188 16.1569 109.083V108.768L16.2094 108.19L16.2619 106.982C16.3145 106.194 16.367 105.353 16.4721 104.565C16.6297 102.937 16.7873 101.361 16.9974 99.7848C17.2075 98.2088 17.4702 96.5802 17.7329 95.0042C17.9956 93.4807 18.3108 92.0097 18.6785 90.5388L19.519 90.3286H19.5716C19.8343 90.9591 20.1495 91.5895 20.3596 92.2724L20.8324 93.4282L21.2527 94.6365C21.778 96.2125 22.2508 97.8411 22.6186 99.4696C23.0388 101.098 23.3541 102.727 23.6693 104.408C23.8269 105.248 23.9319 106.089 24.037 106.929C24.1421 107.665 24.2471 108.453 24.2997 109.241L16.1043 109.346ZM37.6434 108.926L30.5513 109.031L24.2471 109.188C24.2471 107.56 24.1421 105.931 23.9319 104.355C23.7218 102.674 23.4066 100.993 23.0388 99.3645C22.6186 97.736 22.1458 96.1074 21.5154 94.5314C20.99 93.0604 20.3071 91.6945 19.519 90.3286C19.6241 90.2761 19.7292 90.1185 19.7292 90.0134C19.7817 89.4356 20.0444 88.8051 20.4647 88.4899C20.5697 88.3849 20.6748 88.3849 20.8324 88.2798L21.3052 88.0697L22.3034 87.6494L26.2434 86.1259L34.1236 83.1314C34.754 83.4466 35.4369 83.7093 36.1724 83.9195C35.9098 84.1296 35.6471 84.3923 35.3844 84.6024C34.754 85.1277 34.0711 85.6531 33.4406 86.1784C32.7577 86.6512 32.0747 87.124 31.3918 87.5443C31.1817 87.6494 31.1291 87.9121 31.1817 88.1222C31.8646 89.8558 32.5476 91.5895 33.178 93.3231C33.8084 95.0567 34.3863 96.8429 35.0167 98.6291C35.5945 100.415 36.1199 102.201 36.6452 103.988C37.118 105.616 37.4858 107.297 37.9061 108.978C37.801 108.926 37.7485 108.926 37.6434 108.926ZM37.9586 108.926C37.801 107.192 37.5909 105.511 37.2756 103.83C36.9079 101.991 36.4876 100.153 35.9623 98.3139C35.4369 96.4752 34.8591 94.689 34.2287 92.9028C33.5982 91.2743 32.9678 89.6457 32.2324 88.0171C32.8628 87.5969 33.3881 87.1766 33.966 86.7038C34.5964 86.1784 35.2268 85.6006 35.8572 84.9701C37.0655 83.7619 38.2213 82.5536 39.2719 81.2402C38.2738 82.1333 37.3282 82.9738 36.33 83.8144C35.6996 83.3416 35.0692 82.9738 34.3863 82.6061C34.3863 82.6061 34.3863 82.5536 34.3337 82.5536L33.7558 82.1858C33.6508 82.1333 33.5457 82.0282 33.3881 81.9757C33.4406 81.9232 33.4932 81.9232 33.5457 81.8706C35.1217 80.8199 36.6978 79.7167 38.2738 78.6135C39.1143 77.9831 40.0074 77.4052 40.7429 76.6172C41.2683 75.9868 41.7411 75.3038 42.1613 74.6209C42.1613 75.7766 42.1088 76.9324 42.0037 78.0356C41.8987 78.7186 41.7411 79.349 41.5309 80.0319C41.3208 80.7149 41.1106 81.3453 40.9005 82.0282V82.1333C41.3208 86.7038 41.8461 91.2743 42.3715 95.8447C42.4765 97.0005 42.6341 98.1563 42.7917 99.2595L43.2646 102.674L44.1576 108.873C42.0563 108.873 40.0074 108.873 37.9586 108.926ZM92.0164 104.565C91.9639 102.937 91.8588 101.361 91.7012 99.7323C91.4385 96.5277 90.9657 93.2706 90.2302 90.1185C90.1777 89.9609 90.0726 89.8558 89.915 89.8033L89.0745 89.5932C89.0219 89.278 88.9694 89.0153 88.8118 88.7526C88.6542 88.3849 88.3915 88.0171 88.0238 87.7545C87.8662 87.5969 87.656 87.5443 87.4459 87.4393L86.9206 87.2291L85.9224 86.8088C84.6091 86.2835 83.2432 85.8107 81.9298 85.3379C79.4082 84.4448 76.8865 83.6043 74.3649 82.7637L74.4699 82.6586C74.6801 82.501 74.8902 82.396 75.1003 82.2384C75.2054 82.1858 75.2579 82.0282 75.1529 81.9232C75.1529 81.8706 75.1003 81.8706 75.1003 81.8706C74.9427 81.7656 74.7851 81.6605 74.6275 81.608C72.999 80.6098 71.3704 79.5591 69.8469 78.4559C69.0064 77.8255 68.1133 77.2476 67.4829 76.4596C66.7999 75.6716 66.2746 74.7785 65.8018 73.8854C65.8018 73.8329 65.7492 73.8329 65.7492 73.8329C65.4866 73.5177 64.4884 73.255 64.4884 73.255C64.4359 74.7785 64.4359 77.1425 64.7511 78.3508C64.9612 79.2439 65.6967 80.2421 66.0119 80.7149C66.1695 81.2402 66.2746 81.7656 66.4322 82.2384C65.8018 86.7563 65.2239 91.2743 64.646 95.8447C64.4884 97.0005 64.3308 98.1037 64.1732 99.2595L63.6479 102.674L62.7023 109.504C62.6497 109.819 62.8598 110.082 63.1751 110.134H63.2801C65.6967 110.134 68.1133 110.134 70.5299 110.082L77.7796 109.976L91.9639 109.661C92.0164 109.504 91.9639 109.399 92.0164 109.346V107.245C92.0689 106.141 92.0689 105.353 92.0164 104.565ZM63.9631 108.821L64.8562 102.622L65.329 99.2069C65.4866 98.0512 65.6442 96.948 65.7492 95.7922C66.2746 91.2217 66.7474 86.6512 67.2202 82.0808V81.9757C67.0101 81.3453 66.7999 80.6623 66.5898 79.9794C66.4322 79.2964 66.222 78.666 66.117 77.9831C66.0119 76.8799 65.9594 75.7241 65.9594 74.5684C66.3796 75.3038 66.8525 75.9342 67.3778 76.5647C68.0607 77.4052 69.0064 77.9831 69.8469 78.561C71.4229 79.6642 72.999 80.7149 74.575 81.8181C74.6275 81.8706 74.6801 81.8706 74.7326 81.9232C74.6275 81.9757 74.5225 82.0808 74.3649 82.1333L73.787 82.501L73.7345 82.5536C73.0515 82.9213 72.4211 83.289 71.7907 83.7619C70.7925 82.9213 69.7944 82.0808 68.8488 81.1877C69.8994 82.501 71.0552 83.7619 72.2635 84.9176C72.8414 85.4955 73.4718 86.0734 74.1547 86.6512C74.7326 87.124 75.2579 87.5443 75.8884 87.9646C75.1529 89.5932 74.5225 91.1692 73.8921 92.8503C73.2616 94.6365 72.6312 96.4226 72.1584 98.2613C71.6331 100.047 71.2128 101.939 70.8451 103.777C70.5299 105.459 70.2672 107.192 70.1621 108.873C68.0607 108.873 66.0119 108.873 63.9631 108.821ZM77.5169 109.031L70.4248 108.926H70.1621C70.5824 107.245 70.9501 105.616 71.4229 103.935C71.8958 102.149 72.4736 100.31 73.0515 98.5765C73.6294 96.7904 74.2073 95.0042 74.8902 93.2706C75.5206 91.5369 76.2036 89.7508 76.939 88.0697C77.0441 87.8595 76.939 87.5969 76.7289 87.4918C76.046 87.1241 75.363 86.6512 74.6801 86.1259C73.9971 85.6531 73.3667 85.1277 72.7363 84.5499C72.4736 84.3397 72.211 84.0771 71.9483 83.8669C72.6312 83.6568 73.3142 83.3416 73.9971 83.0789L81.8773 86.0734L85.8173 87.5969L86.8155 88.0171L87.2883 88.2273C87.4459 88.2798 87.551 88.3323 87.656 88.4374C88.0763 88.7526 88.339 89.383 88.3915 89.9609C88.3915 90.1185 88.4966 90.2236 88.6017 90.2761C87.8662 91.642 87.1832 93.0079 86.6054 94.4789C85.9749 96.0549 85.5021 97.6834 85.0819 99.312C84.7141 100.941 84.3464 102.622 84.1888 104.303C83.9786 105.931 83.8736 107.507 83.8736 109.136L77.5169 109.031ZM83.821 109.188C83.9261 108.4 83.9786 107.665 84.1362 106.877C84.2413 106.036 84.3989 105.196 84.504 104.355C84.8192 102.674 85.1344 101.046 85.5021 99.4171C85.8699 97.7885 86.3427 96.16 86.868 94.5839L87.2883 93.3756L87.7611 92.2199C87.9713 91.5895 88.2865 90.9591 88.5491 90.2761H88.6017L89.4422 90.4862C89.7574 91.9572 90.1252 93.4282 90.3878 94.9517C90.6505 96.5277 90.9132 98.1037 91.1233 99.7323C91.3335 101.308 91.4911 102.937 91.5961 104.513C91.6487 105.301 91.7537 106.141 91.8063 106.929L91.8588 108.138L91.9113 108.716V109.031C91.9113 109.136 91.9113 109.241 91.9639 109.294L83.821 109.188Z" fill="#B88400"/>
<path d="M35.6996 47.6182C35.6996 47.6182 34.8591 45.3592 34.0185 43.9408C33.178 42.5223 31.9171 40.5786 31.1291 40.0532C30.3411 39.5279 29.7632 39.7906 29.9734 41.1039C30.2361 42.4173 31.1817 46.7251 31.4443 48.0384C31.707 49.3518 32.3374 52.1887 33.1254 54.0799C33.9135 55.9186 34.3337 56.8117 35.0692 54.3426C35.8572 51.8735 36.2775 49.1942 35.6996 47.6182Z" fill="#F3D4CF"/>
<path d="M37.6959 49.9297C37.6959 50.7177 37.2757 53.4495 36.5927 55.1832C35.9623 55.761 34.2812 56.2338 34.2287 56.2338C34.1761 56.2338 34.1236 56.2338 34.0711 56.1813C33.8609 56.0762 33.7033 55.8661 33.5983 55.7085C33.4932 55.5509 33.3881 55.3408 33.3356 55.1832C33.178 54.8154 33.0204 54.5002 32.8628 54.1325C32.6001 53.397 32.3374 52.6615 32.1273 51.8735C31.707 50.35 31.3918 48.774 31.1292 47.2505C30.814 45.727 30.5513 44.151 30.1835 42.6275L29.9209 41.4717C29.8158 41.104 29.7107 40.6837 29.8158 40.2109C29.8683 40.0007 29.9734 39.7381 30.0785 39.633C30.2361 39.5279 30.3937 39.4754 30.5513 39.5279C30.8665 39.5805 33.9135 39.9482 34.1761 40.1583C35.8572 40.8413 37.7485 44.3611 37.6959 49.9297ZM33.7033 43.6781C33.3356 43.1003 32.9153 42.5224 32.495 41.9445C32.0748 41.3666 31.707 40.8413 31.2342 40.421C31.0241 40.2109 30.7614 40.0533 30.5513 40.0007C30.3411 39.9482 30.131 40.0533 30.0785 40.3159C30.0259 40.6312 30.0785 40.9989 30.131 41.3666C30.1835 41.7344 30.2886 42.1546 30.3411 42.5224C30.6563 44.0459 31.0241 45.5694 31.3918 47.0929C31.7596 48.6164 32.1273 50.1399 32.5476 51.6108C32.7577 52.3463 33.0204 53.0818 33.2831 53.7647C33.4407 54.0799 33.5457 54.4477 33.7033 54.7629C33.7559 54.9205 33.8609 55.0781 33.9135 55.1832C33.966 55.2882 34.0711 55.3933 34.1236 55.4458C34.1761 55.4458 34.1761 55.4458 34.2812 55.3933C34.3337 55.3408 34.3337 55.3408 34.3863 55.2357C34.4388 55.1832 34.4388 55.1306 34.4914 55.0256C34.649 54.7629 34.754 54.3951 34.8591 54.0799C35.0692 53.397 35.2794 52.714 35.437 52.0311C35.5946 51.3482 35.7522 50.6127 35.8572 49.8772C35.9098 49.1417 35.9098 48.3012 35.6471 47.6182C35.1218 46.1998 34.4914 44.8339 33.7033 43.6781Z" fill="#E4B3AB"/>
<path d="M30.3411 41.4716C31.9172 43.2053 33.178 46.1472 33.3881 48.879C33.3881 49.0891 33.2305 49.0891 33.178 48.9315C33.1254 48.6688 33.0729 48.4062 33.0204 48.196C32.8628 47.8283 32.6526 47.7758 32.3374 48.091C32.3374 48.3011 32.39 48.5112 32.4425 48.7214C32.495 48.984 32.6001 49.2993 32.7052 49.5619C32.9678 50.1923 33.283 50.7177 33.5983 51.2956C33.6508 51.4006 33.5983 51.6108 33.4932 51.5057C32.7577 50.8753 31.9697 49.1417 32.0222 47.9334C32.0222 47.5656 32.1273 47.1979 32.4425 47.1979C32.6001 47.1979 32.7577 47.2504 32.8628 47.408C32.2849 45.2541 31.5494 43.4679 30.2886 41.6818C30.1835 41.5242 30.2361 41.3666 30.3411 41.4716Z" fill="#D4958A"/>
<path d="M72.1585 47.6182C72.1585 47.6182 72.999 45.3593 73.8396 43.9408C74.6801 42.5224 75.9409 40.5786 76.7289 40.0533C77.517 39.5279 78.0948 39.8432 77.8322 41.1565C77.5695 42.4699 76.6239 46.7777 76.3612 48.091C76.0985 49.4044 75.4681 52.2413 74.6801 54.1325C73.8921 55.9712 73.4718 56.8643 72.7363 54.3952C72.0009 51.8735 71.5806 49.1943 72.1585 47.6182Z" fill="#F3D4CF"/>
<path d="M73.6819 40.1584C73.9446 39.9482 76.9916 39.5805 77.3068 39.528C77.4644 39.528 77.622 39.528 77.7796 39.633C77.9372 39.7381 78.0423 39.9482 78.0423 40.2109C78.0948 40.6837 77.9898 41.104 77.9372 41.4717L77.6745 42.6275C77.3068 44.151 77.0441 45.6745 76.7289 47.2505C76.4663 48.774 76.1511 50.35 75.7308 51.8735C75.5206 52.609 75.3105 53.397 74.9953 54.1325C74.8377 54.5002 74.7326 54.868 74.5225 55.1832C74.4174 55.3408 74.3649 55.5509 74.2598 55.7085C74.1548 55.8661 73.9972 56.0763 73.787 56.1813C73.7345 56.1813 73.6819 56.2339 73.6294 56.2339C73.5769 56.2339 71.8958 55.7611 71.2654 55.1832C70.5824 53.4495 70.2147 50.7178 70.1621 49.9297C70.1096 44.3611 72.0008 40.8413 73.6819 40.1584ZM72.1584 47.6182C71.8958 48.3537 71.8958 49.1417 71.9483 49.8772C72.0008 50.6127 72.1585 51.3482 72.3686 52.0311C72.5262 52.7141 72.7363 53.397 72.9465 54.08C73.0515 54.3952 73.1566 54.7629 73.3142 55.0256C73.3667 55.0781 73.3667 55.1832 73.4193 55.2357C73.4718 55.2882 73.4718 55.3408 73.5243 55.3933C73.5769 55.4458 73.6294 55.4984 73.6819 55.4459C73.7345 55.3933 73.787 55.3408 73.8921 55.1832C73.9971 55.0781 74.0497 54.9205 74.1022 54.7629C74.2598 54.4477 74.4174 54.08 74.5225 53.7648C74.7852 53.0818 75.0478 52.3463 75.258 51.6108C75.6783 50.1399 76.046 48.6164 76.4137 47.0929C76.7815 45.5694 77.1492 44.0459 77.4644 42.5224C77.5169 42.1547 77.622 41.7344 77.6745 41.3667C77.7271 40.9989 77.7796 40.5786 77.7271 40.316C77.6746 40.0008 77.4644 39.9482 77.2543 40.0008C77.0441 40.0533 76.7815 40.2109 76.5713 40.421C76.1511 40.8413 75.7308 41.4192 75.3105 41.9445C74.8902 42.5224 74.5225 43.1003 74.1022 43.6782C73.3667 44.8339 72.7363 46.1998 72.1584 47.6182Z" fill="#E4B3AB"/>
<path d="M77.5169 41.4718C75.9409 43.2054 74.6801 46.1473 74.4699 48.8791C74.4699 49.0892 74.6275 49.0892 74.6801 48.9316C74.7326 48.669 74.7852 48.4063 74.8377 48.1962C74.9953 47.8284 75.2054 47.7759 75.5206 48.0911C75.5206 48.3012 75.4681 48.5114 75.4156 48.7215C75.363 48.9842 75.258 49.2994 75.1529 49.562C74.8902 50.1925 74.575 50.7178 74.2598 51.2957C74.2073 51.4008 74.2598 51.6109 74.3649 51.5058C75.1004 50.8754 75.8884 49.1418 75.8358 47.9335C75.8358 47.5657 75.7308 47.198 75.4156 47.198C75.258 47.198 75.1004 47.2505 74.9953 47.4081C75.5732 45.2542 76.3086 43.4681 77.5695 41.6819C77.6745 41.5243 77.622 41.3667 77.5169 41.4718Z" fill="#D4958A"/>
<path d="M75.4681 38.6874C74.8376 23.7151 65.1661 15.8297 53.9763 15.8297C42.7865 15.8297 33.0203 23.7676 32.3899 38.6874C32.3899 38.6874 32.1798 52.2938 35.2268 58.2827C42.7917 73.2024 53.9395 72.4407 53.9395 72.4407C53.9395 72.4407 65.0663 73.2024 72.6312 58.2827C75.6782 52.2938 75.4681 38.6874 75.4681 38.6874Z" fill="#F3D4CF"/>
<path d="M72.6313 58.2827C75.6783 52.2938 75.5154 38.6769 75.5154 38.6769C74.885 23.7046 65.1189 15.5198 53.9291 15.5198C42.7392 15.5198 33.0204 23.7677 32.39 38.6874C32.39 38.6874 32.1799 52.2938 35.2268 58.2827C42.7918 73.2024 53.9291 72.7296 53.9291 72.7296C53.9291 72.7296 65.0663 73.2024 72.6313 58.2827ZM50.7245 71.5056C49.6738 71.2377 48.6231 70.8174 47.5724 70.3393C45.5236 69.3832 43.6849 68.0015 42.0563 66.4098C41.2158 65.6112 40.4803 64.7602 39.7448 63.8618C39.7448 63.8618 38.0637 61.5241 37.696 61.046C37.5383 60.7781 37.3807 60.5679 37.2231 60.3C37.0655 60.0321 36.9079 59.822 36.7503 59.554L35.8047 57.8519C35.8047 57.8519 35.3319 56.7382 35.2268 56.4703C35.1218 56.2023 35.0167 55.9397 34.9642 55.6192C34.8591 55.3513 34.8066 55.0361 34.7015 54.7682C34.3863 53.6544 34.1236 52.4829 33.9135 51.3167C33.7033 50.1504 33.4932 48.9789 33.3881 47.7548C33.0729 45.3645 32.9153 42.9742 32.8103 40.5314V38.7767L32.8628 37.8731C32.8628 37.5527 32.9153 37.29 32.9153 36.9695C32.9679 36.3864 33.0729 35.8033 33.1255 35.1624C33.178 34.8419 33.2305 34.5792 33.2831 34.2588C33.2831 34.2588 33.4407 33.5706 33.4932 33.4077C34.0186 31.0699 34.8066 28.7847 36.0149 26.7674C36.2775 26.2368 36.6453 25.7587 36.9605 25.2807L37.4858 24.5925C37.6434 24.3823 37.8536 24.1144 38.0637 23.9043C38.7992 23.0007 39.6397 22.1496 40.5328 21.4089C42.319 19.9221 44.3678 18.8032 46.5217 18.0099C48.6756 17.2639 50.9346 16.8962 53.2461 16.8436C54.4019 16.7911 59.0249 17.4268 59.1825 17.4793C61.7619 18.1202 64.2783 19.339 66.1695 20.6156C66.6424 20.9361 67.1152 21.3038 67.5354 21.6768L68.2184 22.2599L68.8488 22.8431C69.6893 23.6941 70.4248 24.5977 71.1078 25.5538C71.2654 25.8218 72.1059 27.0405 72.1059 27.0405C72.2635 27.3085 72.9465 28.6323 72.9465 28.6323C73.2091 29.1629 73.4193 29.7461 73.6819 30.2819C73.8921 30.865 74.1022 31.3956 74.2598 31.984C74.47 32.5672 74.575 33.1503 74.7326 33.7387C74.7852 34.0591 75.1004 35.4933 75.1004 35.4933L75.2475 36.5125C75.3 36.8329 75.342 37.9519 75.342 37.9519L75.3736 38.4405C75.3736 38.4405 75.3683 43.053 75.2107 44.9127C75.0531 46.7724 74.9428 48.464 74.6276 50.3238C74.47 51.2273 74.2598 52.1835 74.0497 53.0871C73.8396 53.9906 73.5769 54.8942 73.2617 55.7453C72.9465 56.5964 72.6313 57.4474 72.211 58.2407L71.528 59.4069C71.3179 59.8325 71.0552 60.2055 70.7926 60.5732C69.7944 62.1124 68.6912 63.5466 67.4829 64.8758C66.2746 66.2049 64.9613 67.4237 63.5428 68.4901C62.8074 69.0207 62.0719 69.4988 61.3364 69.9243C60.5484 70.3498 59.7604 70.7228 58.9723 71.038C58.7622 71.1431 57.9217 71.411 57.7115 71.4636C57.2912 71.5686 56.871 71.6737 56.4507 71.784C56.0304 71.8943 52.9677 72.115 50.7245 71.5056Z" fill="#C5796D"/>
<path d="M51.4074 65.585C53.3512 66.5832 54.2443 66.373 55.1899 66.268C56.1355 66.1629 58.447 64.9546 59.918 63.5362C61.3364 62.1178 61.5991 61.3297 61.5991 61.3297C60.2857 61.0671 56.5558 59.9639 55.9779 60.0689C55.5576 60.1215 54.4544 61.0671 54.0867 61.0671C53.7189 61.0671 52.4581 60.2791 52.0378 60.2265C51.565 60.174 50.8296 60.4367 49.7263 60.8044C48.6231 61.1721 46.5743 61.3823 46.5743 61.3823C46.5743 61.3823 49.4637 64.5869 51.4074 65.585Z" fill="#DA7C87"/>
<path d="M46.3117 61.4348C48.8858 62.0652 51.6701 62.538 54.2969 62.6431C55.2425 62.6956 56.2406 62.4855 57.1862 62.3279C58.7623 62.0652 60.4959 61.9076 62.0194 61.3822C62.177 61.3297 62.177 61.0145 61.9669 61.067C59.4452 61.3822 56.871 62.3279 54.2969 62.2228C51.6176 62.1177 48.9909 61.4873 46.3117 61.2246C46.2066 61.2772 46.2066 61.4348 46.3117 61.4348Z" fill="#CB5F6C"/>
<path d="M49.1485 47.0404C49.1485 47.0404 48.9909 45.727 48.6232 45.0441C48.2554 44.3611 46.6794 42.7326 44.9458 42.4174C42.3716 41.892 40.0601 43.3105 40.0601 43.3105C40.0601 43.3105 40.0601 44.5713 40.8481 45.4644C41.5836 46.3574 42.8969 46.8303 43.4223 46.8828C43.9476 46.9353 45.8388 47.0404 46.837 46.8828C47.5199 46.7777 48.3079 46.7777 48.6232 46.8828C48.8858 46.9879 49.1485 47.0404 49.1485 47.0404Z" fill="white"/>
<path d="M44.473 41.6294C46.049 41.6294 47.3098 42.8902 47.3098 44.4662C47.3098 46.0423 46.049 47.3031 44.473 47.3031C42.8969 47.3031 41.6361 46.0423 41.6361 44.4662C41.6361 42.8902 42.8969 41.6294 44.473 41.6294Z" fill="#4E60A3"/>
<path d="M44.473 41.787C45.9439 41.787 47.2048 42.9953 47.2048 44.5187C47.2048 46.0422 45.9965 47.2505 44.473 47.2505C43.002 47.2505 41.7412 46.0422 41.7412 44.5187C41.7412 42.9953 42.9495 41.787 44.473 41.787ZM44.473 41.5243C42.8444 41.5243 41.4785 42.8902 41.4785 44.5187C41.4785 46.1473 42.8444 47.5132 44.473 47.5132C46.1015 47.5132 47.4674 46.1473 47.4674 44.5187C47.4674 42.8376 46.1015 41.5243 44.473 41.5243Z" fill="#253984"/>
<path d="M42.9494 45.3068C42.9494 45.9897 43.2121 46.6201 43.6849 47.0929C43.9476 47.198 44.2102 47.198 44.4729 47.198C45.9439 47.198 47.2047 45.9897 47.2047 44.4662C47.2047 43.8883 47.0471 43.4155 46.7319 42.9953C46.3641 42.7851 45.9439 42.6801 45.5236 42.6801C44.1052 42.6801 42.9494 43.8358 42.9494 45.3068Z" fill="#6777B2"/>
<path d="M44.4729 42.9952C45.2609 42.9952 45.9439 43.6782 45.9439 44.4662C45.9439 45.2542 45.2609 45.9372 44.4729 45.9372C43.6849 45.9372 43.002 45.2542 43.002 44.4662C43.002 43.6782 43.6849 42.9952 44.4729 42.9952Z" fill="black"/>
<path d="M43.8425 42.9427C44.2628 42.9427 44.578 43.258 44.578 43.6782C44.578 44.0985 44.2628 44.4137 43.8425 44.4137C43.4223 44.4137 43.1071 44.0985 43.1071 43.6782C43.1071 43.258 43.4223 42.9427 43.8425 42.9427ZM45.261 45.0441C45.5236 45.0441 45.7338 45.2543 45.7338 45.5169C45.7338 45.7796 45.5236 45.9897 45.261 45.9897C44.9983 45.9897 44.7882 45.7796 44.7882 45.5169C44.7882 45.2543 44.9983 45.0441 45.261 45.0441Z" fill="white"/>
<path d="M38.5523 45.3225C38.5523 48.9474 41.1422 51.8893 44.3416 51.8893C47.5409 51.8893 50.1309 48.9474 50.1309 45.3225C50.1309 41.6977 47.5409 38.7557 44.3416 38.7557C41.1422 38.7557 38.5523 41.6924 38.5523 45.3225ZM40.0653 43.3367C40.0653 43.3367 42.3873 41.913 44.972 42.4174C46.7004 42.7536 48.2291 44.3822 48.6231 45.0599C49.0171 45.7323 49.1642 47.0667 49.1642 47.0667C49.1642 47.0667 48.8858 46.9931 48.5811 46.8986C48.2817 46.804 47.5042 46.7987 46.8002 46.9196C45.8073 47.0877 43.9318 47.0141 43.4117 46.9406C42.8864 46.867 41.5783 46.3785 40.827 45.4959C40.0863 44.6081 40.0653 43.3367 40.0653 43.3367Z" fill="#F3D4CF"/>
<path d="M39.8867 43.5416C39.8342 43.7622 39.8237 43.9829 39.8552 44.1983C39.5557 44.1825 39.2195 44.2245 39.0199 44.4294C38.9463 44.503 39.0251 44.6028 39.1144 44.587C39.272 44.5607 39.4191 44.4819 39.5767 44.4452C39.6871 44.4189 39.7974 44.4137 39.9077 44.4189C39.9392 44.5292 39.976 44.6395 40.0233 44.7499C39.9287 44.7814 39.8394 44.8234 39.7606 44.8602C39.561 44.9495 39.3666 45.0808 39.2405 45.2595C39.1827 45.3383 39.2878 45.4065 39.3561 45.375C39.54 45.291 39.7133 45.1754 39.8972 45.0861C39.976 45.0493 40.0653 45.0231 40.1546 44.9915C40.2387 45.1386 40.3385 45.2752 40.4488 45.4118C40.2334 45.5379 40.039 45.7165 39.976 45.9529C39.9602 46.0054 40.0233 46.0632 40.0758 46.0317C40.2649 45.9056 40.4173 45.7323 40.5801 45.5694C41.1633 46.2103 41.9828 46.7041 42.6395 46.9195C43.6271 47.2453 44.7041 47.2978 45.7338 47.2453C46.7057 47.198 48.2134 46.6464 49.1117 47.1349C49.1485 47.1559 49.18 47.1454 49.201 47.1244L49.2168 47.1087C49.222 47.0982 49.2273 47.0876 49.2273 47.0771C49.2273 47.0719 49.2326 47.0719 49.2326 47.0614C49.18 44.9285 47.8456 43.1266 45.8704 42.3491C44.7776 41.9183 43.5746 41.8132 42.4136 41.9866C41.053 42.1915 39.8552 42.8586 38.4525 42.7431C38.3317 42.7326 38.2739 42.9007 38.3579 42.9742C38.8308 43.4365 39.3508 43.5678 39.8867 43.5416ZM40.2387 43.5048C41.2841 43.3367 42.3978 42.6958 43.438 42.6222C46.133 42.4331 48.7177 44.1983 49.0592 46.9511C47.8036 46.5203 46.3642 46.8985 45.0718 46.8723C44.0159 46.8512 42.8969 46.7041 41.9671 46.1683C40.8061 45.4959 40.5959 44.629 40.2387 43.5048Z" fill="black"/>
<path d="M58.7097 47.0404C58.7097 47.0404 58.8673 45.727 59.235 45.0441C59.6027 44.3611 61.1788 42.7326 62.9124 42.4174C65.4866 41.892 67.7981 43.3105 67.7981 43.3105C67.7981 43.3105 67.7981 44.5713 67.0101 45.4644C66.2746 46.3574 64.9612 46.8303 64.4359 46.8828C63.9106 46.9353 62.0193 47.0404 61.0212 46.8828C60.3382 46.7777 59.5502 46.7777 59.235 46.8828C58.9723 46.9879 58.7097 47.0404 58.7097 47.0404Z" fill="white"/>
<path d="M63.3853 41.6294C64.9613 41.6294 66.2222 42.8902 66.2222 44.4662C66.2222 46.0423 64.9613 47.3031 63.3853 47.3031C61.8093 47.3031 60.5485 46.0423 60.5485 44.4662C60.5485 42.8902 61.8093 41.6294 63.3853 41.6294Z" fill="#4E60A3"/>
<path d="M63.3853 41.787C64.8562 41.787 66.117 42.9953 66.117 44.5187C66.117 46.0422 64.9088 47.2505 63.3853 47.2505C61.9143 47.2505 60.6535 46.0422 60.6535 44.5187C60.6535 42.9953 61.9143 41.787 63.3853 41.787ZM63.3853 41.5243C61.7567 41.5243 60.3908 42.8902 60.3908 44.5187C60.3908 46.1473 61.7567 47.5132 63.3853 47.5132C65.0138 47.5132 66.3797 46.1473 66.3797 44.5187C66.3797 42.8376 65.0664 41.5243 63.3853 41.5243Z" fill="#253984"/>
<path d="M61.8618 45.3068C61.8618 45.9897 62.1245 46.6201 62.5973 47.0929C62.86 47.198 63.1226 47.198 63.3853 47.198C64.8563 47.198 66.1171 45.9897 66.1171 44.4662C66.1171 43.8883 65.9595 43.4155 65.6443 42.9953C65.2765 42.8377 64.9088 42.6801 64.436 42.6801C63.0176 42.6801 61.8618 43.8358 61.8618 45.3068Z" fill="#6777B2"/>
<path d="M63.3853 42.9952C64.1733 42.9952 64.8562 43.6782 64.8562 44.4662C64.8562 45.2542 64.1733 45.9372 63.3853 45.9372C62.5973 45.9372 61.9143 45.2542 61.9143 44.4662C61.9143 43.6782 62.5973 42.9952 63.3853 42.9952Z" fill="black"/>
<path d="M62.7549 42.9427C63.1752 42.9427 63.4904 43.258 63.4904 43.6782C63.4904 44.0985 63.1752 44.4137 62.7549 44.4137C62.3346 44.4137 62.0194 44.0985 62.0194 43.6782C62.0194 43.258 62.3872 42.9427 62.7549 42.9427ZM64.1733 45.0441C64.436 45.0441 64.6461 45.2543 64.6461 45.5169C64.6461 45.7796 64.436 45.9897 64.1733 45.9897C63.9106 45.9897 63.7005 45.7796 63.7005 45.5169C63.7005 45.2543 63.9106 45.0441 64.1733 45.0441Z" fill="white"/>
<path d="M63.5218 38.7557C60.3277 38.7557 57.7325 41.6977 57.7325 45.3225C57.7325 48.9474 60.3225 51.8893 63.5218 51.8893C66.7212 51.8893 69.3111 48.9474 69.3111 45.3225C69.3111 41.6977 66.7159 38.7557 63.5218 38.7557ZM67.0259 45.4906C66.2746 46.3732 64.9665 46.8565 64.4412 46.9353C63.9158 47.0089 62.0456 47.0877 61.0527 46.9143C60.3488 46.7935 59.5712 46.804 59.2718 46.8933C58.9724 46.9879 58.6887 47.0614 58.6887 47.0614C58.6887 47.0614 58.841 45.7323 59.2298 45.0546C59.6238 44.3822 61.1525 42.7536 62.8809 42.4121C65.4656 41.9078 67.7876 43.3315 67.7876 43.3315C67.7876 43.3315 67.7718 44.6081 67.0259 45.4906Z" fill="#F3D4CF"/>
<path d="M69.5003 42.9847C69.5791 42.9059 69.5213 42.7431 69.4057 42.7536C67.9978 42.8691 66.8 42.2019 65.4446 41.9971C64.2836 41.8237 63.0858 41.9288 61.9879 42.3596C60.0126 43.1371 58.673 44.939 58.6257 47.0719C58.6257 47.0771 58.6309 47.0824 58.6309 47.0876C58.6309 47.0981 58.6362 47.1087 58.6414 47.1192L58.6572 47.1349C58.6782 47.1559 58.7097 47.1664 58.7465 47.1454C59.6448 46.6569 61.1526 47.2032 62.1245 47.2558C63.1541 47.3083 64.2363 47.2505 65.2187 46.93C65.8754 46.7146 66.6949 46.2208 67.2781 45.5799C67.4409 45.7428 67.5933 45.9161 67.7824 46.0422C67.8349 46.0737 67.898 46.0212 67.8822 45.9634C67.8192 45.727 67.6195 45.5484 67.4094 45.4223C67.5197 45.2857 67.6195 45.1491 67.7036 45.002C67.7929 45.0335 67.8822 45.0598 67.961 45.0966C68.1449 45.1859 68.3182 45.3015 68.5021 45.3855C68.5704 45.4171 68.6755 45.3488 68.6177 45.27C68.4864 45.0913 68.2972 44.96 68.0976 44.8707C68.0188 44.8339 67.9295 44.7919 67.8349 44.7604C67.8822 44.65 67.9242 44.5397 67.9505 44.4294C68.0608 44.4294 68.1712 44.4347 68.2815 44.4557C68.4391 44.4924 68.5862 44.566 68.7438 44.5975C68.8331 44.6133 68.9066 44.5135 68.8383 44.4399C68.6387 44.235 68.3025 44.1877 68.003 44.2088C68.0346 43.9934 68.0241 43.7727 67.9715 43.5521C68.5074 43.5678 69.0275 43.4365 69.5003 42.9847ZM65.8912 46.1683C64.9613 46.7094 63.8423 46.8512 62.7864 46.8723C61.494 46.8985 60.0493 46.5203 58.799 46.951C59.1405 44.1983 61.7199 42.4331 64.4202 42.6222C65.4604 42.6958 66.5741 43.3367 67.6195 43.5048C67.2623 44.629 67.0522 45.4959 65.8912 46.1683Z" fill="black"/>
<path d="M39.6922 38.057C39.7447 37.9519 39.9023 37.8994 40.0074 37.8469C40.1125 37.7943 40.2175 37.7418 40.3226 37.7418C40.5327 37.6367 40.7429 37.5317 40.953 37.4791C41.2157 37.4266 41.5834 37.2165 41.8461 37.3741C42.6867 37.0589 43.7899 37.269 44.5254 37.6893C45.5235 37.7943 46.5742 38.1095 47.3097 38.6349C47.3622 38.6874 47.4147 38.7399 47.4147 38.7925C47.5723 38.845 47.6774 38.8976 47.835 38.9501C48.3604 39.1602 48.9382 39.3178 49.4636 39.5805C49.5161 39.5805 49.5686 39.633 49.6212 39.633C49.7788 39.6856 49.8313 40.0008 49.7263 40.0533C49.6737 40.1058 49.6737 40.1584 49.6212 40.2109C49.2009 40.5261 48.6756 40.316 48.2553 40.1584C47.8875 40.0008 47.4673 39.8432 47.2046 39.528C46.7843 39.3704 46.4691 39.1602 46.1014 38.9501C46.0488 38.9501 45.9963 38.8976 45.9438 38.8976C45.3134 38.7925 44.6304 38.5298 44 38.2146C43.6323 38.1621 43.3171 38.057 42.9493 38.057C42.4765 38.0045 42.0037 38.1621 41.4784 38.0045L41.4258 38.0045C41.3208 38.057 41.2157 38.057 41.1106 38.1095C40.6903 38.2146 40.3226 38.3197 39.9023 38.3197C39.8498 38.3197 39.7973 38.2671 39.7973 38.2146L39.7447 38.2146C39.7447 38.2146 39.6397 38.1621 39.6922 38.057Z" fill="#2A232B"/>
<path d="M42.0563 37.0588C43.6848 36.9537 45.3134 37.8468 46.7844 38.4247C47.6775 38.7924 49.5162 38.8975 49.8839 40.0007C49.9364 40.1583 49.7263 40.2108 49.6212 40.1058C49.1484 39.4754 48.3604 39.3703 47.6249 39.1602C46.9945 38.95 46.4166 38.7399 45.7862 38.4772C44.5254 37.9519 43.2646 37.6367 41.9512 37.3215C41.8987 37.2689 41.9512 37.1113 42.0563 37.0588Z" fill="#3A353A"/>
<path d="M50.4093 40.0007C50.5669 39.2652 49.4636 39.0026 48.9383 38.7924C47.6775 38.2671 46.3641 37.6892 45.0508 37.3215C44.2627 37.1113 43.4222 36.9537 42.6342 36.9537C42.0038 36.9537 41.4259 37.0063 40.7955 37.2164C39.7448 37.5316 38.7466 38.162 37.8536 38.845C37.3808 39.1076 36.9079 39.4754 36.5402 39.8431C36.4877 39.8957 36.5402 40.0007 36.6453 39.9482C36.6453 39.9482 36.6978 39.9482 36.6978 39.8957C36.6978 39.9482 36.7503 39.9482 36.8029 39.9482C37.5909 39.5805 38.2738 39.1076 39.0618 38.7924C39.8499 38.4772 40.6904 38.2671 41.531 38.2146L41.8987 38.2146C42.8969 38.2146 43.8425 38.4247 44.7356 38.845C45.9964 39.4228 47.1521 40.2109 48.413 40.6837C48.6231 40.7887 48.8858 40.7887 49.1484 40.7887C49.7263 40.7887 50.3042 40.5786 50.4093 40.0007ZM42.6342 37.4265C43.4747 37.4265 44.3153 37.6367 45.1558 37.8994C46.2065 38.2671 47.2572 38.7399 48.3079 39.1602C48.518 39.2652 49.5687 39.5279 49.6738 39.7906C49.7788 40.1058 49.5687 40.2109 49.2535 40.2634C49.0959 40.2634 48.9383 40.2109 48.8332 40.2109C48.518 40.1058 48.2028 39.8957 47.9401 39.7381C46.3116 38.8975 44.6305 37.8994 42.7918 37.7943L42.2664 37.7943C41.6886 37.7943 41.0582 37.8468 40.4277 37.9519C40.6904 37.8468 40.9531 37.7418 41.2683 37.6367C41.6886 37.4791 42.1614 37.4265 42.6342 37.4265Z" fill="#1B141C"/>
<path d="M68.1659 38.057C68.1133 37.9519 67.9557 37.8994 67.8507 37.8469C67.7456 37.7943 67.6405 37.7418 67.5355 37.7418C67.3253 37.6367 67.1152 37.5317 66.905 37.4791C66.6424 37.4266 66.2746 37.2165 66.012 37.3741C65.1714 37.0589 64.0682 37.269 63.3327 37.6893C62.3346 37.7943 61.2839 38.1095 60.5484 38.6349C60.4959 38.6874 60.4433 38.7399 60.4433 38.7925C60.2857 38.845 60.1806 38.8976 60.023 38.9501C59.4977 39.1602 58.9198 39.3178 58.3945 39.5805C58.3419 39.5805 58.2894 39.633 58.2369 39.633C58.0793 39.6856 58.0267 40.0008 58.1318 40.0533C58.1843 40.1058 58.1843 40.1584 58.2369 40.2109C58.6572 40.5261 59.1825 40.316 59.6028 40.1584C59.9705 40.0008 60.3908 39.8432 60.6535 39.528C61.0737 39.3704 61.3889 39.1602 61.7567 38.9501C61.8092 38.9501 61.8617 38.8976 61.9143 38.8976C62.5447 38.7925 63.2276 38.5298 63.8581 38.2146C64.2258 38.1621 64.541 38.057 64.9087 38.057C65.3815 38.0045 65.8544 38.1621 66.3797 38.0045L66.4322 38.0045C66.5373 38.057 66.6424 38.057 66.7474 38.1095C67.1677 38.2146 67.5354 38.3197 67.9557 38.3197C68.0083 38.3197 68.0608 38.2671 68.0608 38.2146L68.1133 38.2146C68.1133 38.2146 68.2184 38.1621 68.1659 38.057Z" fill="#2A232B"/>
<path d="M65.8018 37.0589C64.1732 36.9538 62.5447 37.8469 61.0737 38.4248C60.1806 38.7925 58.3419 38.8976 57.9742 40.0008C57.9216 40.1584 58.1318 40.211 58.2368 40.1059C58.7097 39.4755 59.4977 39.3704 60.2332 39.1603C60.8636 38.9501 61.4414 38.74 62.0719 38.4773C63.3327 37.952 64.5935 37.6368 65.9069 37.3216C65.9594 37.269 65.9069 37.1114 65.8018 37.0589Z" fill="#3A353A"/>
<path d="M58.6572 40.7363C58.9198 40.7363 59.1825 40.6837 59.3926 40.6312C60.6535 40.1584 61.8618 39.3704 63.0701 38.7925C64.0157 38.3722 64.9613 38.1621 65.9069 38.1621L66.2746 38.1621C67.1152 38.2146 67.9557 38.4247 68.6912 38.7399C69.4792 39.0552 70.2147 39.5805 70.9502 39.8957C71.0027 39.8957 71.0553 39.8957 71.0553 39.8432C71.0553 39.8432 71.1078 39.8432 71.1078 39.8957C71.2129 39.9482 71.2654 39.8432 71.2129 39.7906C70.8451 39.4229 70.3723 39.0552 69.8995 38.7925C69.0064 38.1095 68.0083 37.5317 66.9576 37.1639C66.3797 36.9538 65.7493 36.9012 65.1189 36.9012C64.2783 36.9012 63.4903 37.0588 62.7023 37.269C61.389 37.6367 60.0756 38.2146 58.8148 38.7399C58.342 38.9501 57.1862 39.2128 57.3438 39.9482C57.5539 40.5786 58.1318 40.7888 58.6572 40.7363ZM66.6424 37.6367C66.9051 37.7418 67.2203 37.7943 67.4829 37.9519C66.8525 37.8469 66.2746 37.7943 65.6442 37.7943L65.1189 37.7943C63.2802 37.8994 61.5466 38.9501 59.9705 39.7381C59.6553 39.8957 59.3927 40.1058 59.0774 40.2109C58.9724 40.2634 58.8148 40.2634 58.6572 40.2634C58.3945 40.2634 58.1318 40.1584 58.2369 39.7906C58.342 39.528 59.3927 39.2653 59.6028 39.1602C60.6535 38.7399 61.7042 38.2671 62.7548 37.8994C63.5954 37.6367 64.4359 37.4266 65.2765 37.4266C65.6968 37.4266 66.1696 37.4791 66.6424 37.6367Z" fill="#1B141C"/>
<path d="M52.7313 41.8238C52.311 43.5731 52.2532 45.4434 52.0641 47.2295C51.8645 49.1418 51.4967 51.1171 51.523 53.0398C51.523 53.1922 51.7594 53.2342 51.7962 53.0766C52.1849 51.322 52.2322 49.4465 52.4161 47.6603C52.6105 45.7481 52.9677 43.7675 52.9047 41.85C52.9047 41.7502 52.7576 41.7239 52.7313 41.8238Z" fill="#C5796D"/>
<path d="M51.15 52.0312C50.6352 52.7194 50.2044 53.4654 49.8262 54.2377C49.5845 54.7368 49.2798 55.3251 49.4427 55.8978C49.7053 56.8434 50.9084 57.1376 51.6911 56.691C51.9223 56.5544 51.8172 56.192 51.5545 56.192C51.0975 56.1867 50.5616 56.3338 50.1992 55.945C49.7579 55.4775 50.1939 54.6317 50.3883 54.1589C50.6772 53.4654 51.0292 52.7982 51.3024 52.0995C51.3391 51.9997 51.2026 51.9629 51.15 52.0312Z" fill="#C5796D"/>
<path d="M51.0764 55.9239C52.4949 55.8189 52.7628 57.605 54.1129 57.6471C55.2687 57.6838 55.358 55.945 56.4559 55.9975C56.582 56.0027 56.6241 55.8241 56.519 55.7611C55.2739 55.0256 55.0428 57.19 53.8975 57.0534C53.2198 56.9746 52.7365 55.9765 52.1271 55.6875C51.7121 55.4932 51.4126 55.5089 51.0081 55.6928C50.9083 55.7506 50.9609 55.9345 51.0764 55.9239Z" fill="#C5796D"/>
<path d="M56.0672 56.733C57.0023 56.9431 58.0897 56.6542 58.3104 55.614C58.4207 55.0939 58.2473 54.5791 57.9741 54.1378C57.5329 53.4181 56.9602 52.8087 56.54 52.0627C56.4717 51.9366 56.293 51.9997 56.2878 52.131C56.2353 52.9663 56.8552 53.5442 57.2965 54.1903C57.7062 54.784 58.0582 55.6035 57.37 56.1919C57.0548 56.4598 56.4559 56.4125 56.0672 56.4861C55.9411 56.5124 55.9463 56.7067 56.0672 56.733Z" fill="#C5796D"/>
<path d="M55.1479 53.9277C54.943 53.56 54.4124 53.5022 54.1182 53.7964C54.092 53.8226 53.9974 53.9435 53.9711 53.975C53.9396 54.017 53.8713 54.1063 53.8608 54.1221C53.8293 54.1746 53.7978 54.2272 53.7715 54.2797L53.7137 54.4163C53.7137 54.411 53.7085 54.4215 53.6979 54.4425C53.6664 54.4741 53.6349 54.5108 53.6086 54.5424C53.5193 54.6369 53.43 54.7315 53.3565 54.8418C53.1463 55.1728 53.3144 55.551 53.5981 55.7612C54.0342 56.0869 54.6646 55.8242 54.9693 55.4565C55.337 55.0152 55.4368 54.4478 55.1479 53.9277Z" fill="#FBE5E2"/>
<path d="M76.5713 35.4828C76.0985 39.528 75.1004 43.363 74.0497 45.2542C74.0497 45.2542 73.8921 37.7418 72.1059 34.1695C70.3197 30.5971 65.0663 26.4995 64.4359 23.505C64.4359 23.505 65.2239 25.2386 66.4322 25.9741C67.6405 26.7096 71.8432 29.9667 72.8414 31.0699C73.8395 32.1732 75.4681 34.905 76.151 35.2727C76.2036 35.3252 76.4137 35.3778 76.5713 35.4828ZM36.5402 65.1122C36.5402 65.4274 36.4351 66.2679 36.2775 67.4762C35.9098 64.009 35.1743 60.174 35.1743 60.174C35.1743 60.174 19.3089 83.5517 21.4103 91.2743C23.5117 98.9968 27.7669 104.355 28.1872 104.776C28.6075 105.196 30.2886 105.774 31.0241 107.14C31.2867 107.665 36.5402 102.517 33.966 96.3176C31.4443 90.1185 30.8665 85.9158 32.9678 82.6586C33.3356 82.0808 33.6508 81.4503 33.966 80.8199C33.5457 83.0789 33.178 84.8651 33.0729 85.3904C32.6001 87.2291 32.6001 89.8558 33.8609 92.7452C35.1217 95.6346 37.0655 95.7922 37.0655 95.7922C36.1724 94.3738 36.1199 91.9572 36.9604 89.4356C37.801 86.9139 39.1669 84.4448 39.9024 81.8181C40.6904 79.0863 41.0581 75.8292 38.4839 70.4181C37.0655 67.2136 36.5402 65.1122 36.5402 65.1122Z" fill="#221B23"/>
<path d="M64.4359 23.505C64.4359 23.505 54.8746 27.0774 47.2046 24.3981C39.5346 21.7189 34.5964 32.3308 35.2268 38.6349C35.8572 44.939 40.165 53.1869 37.6434 63.3786C35.1217 73.5702 27.7669 81.3453 25.6656 85.8633C23.5642 90.3812 23.5642 95.0042 25.6656 98.3139C27.7669 101.624 28.8176 103.988 29.3955 107.455C29.3955 107.455 28.6075 105.564 25.508 103.252C20.6223 99.6272 18.626 95.3194 18.9412 88.595C19.2564 81.8706 22.1983 76.6172 24.7725 71.2062C27.2941 65.7952 28.6075 58.9657 26.8213 54.4477C25.0352 49.9298 22.9863 43.6782 23.7218 32.5409C24.4573 21.4562 30.6038 15.5198 38.2738 11.0019C45.9438 6.48393 57.0285 7.32448 64.0681 11.6848C71.1077 16.0452 70.0571 19.9327 70.0571 19.9327C70.0571 19.9327 72.1584 18.882 75.3105 23.6626C78.4625 28.4433 76.3612 41.2091 74.1022 45.2542C74.1022 45.2542 73.9446 37.7418 72.1584 34.1695C70.3723 30.5972 65.0663 26.4995 64.4359 23.505Z" fill="#2A232B"/>
<path d="M68.4285 20.1953C67.2202 20.9834 65.9594 20.9834 65.2239 20.6156C63.07 19.67 61.3364 16.4129 59.5502 14.4691C56.5558 11.212 55.7677 9.53088 48.8857 9.16314C44.0001 8.90047 40.1125 10.1613 37.8535 11.1594C30.3937 15.6249 24.4573 21.5612 23.7218 32.4884C22.9863 43.5731 24.9826 49.8772 26.8213 54.3952C28.66 58.9131 27.2941 65.7426 24.7725 71.1536C22.2508 76.5646 19.2564 81.8181 18.9412 88.5425C18.626 95.2669 20.6748 99.5747 25.508 103.2C28.6075 105.511 29.3955 107.402 29.3955 107.402C28.555 105.038 27.2941 104.093 24.825 101.834C22.3034 99.5747 19.8868 93.218 20.4121 88.3849C20.9375 83.5517 25.508 75.2513 27.6619 71.8891C29.8158 68.5269 31.5494 62.7481 32.2849 59.6486C33.0204 56.5491 32.39 53.9749 30.2361 48.6689C28.0822 43.363 26.9264 29.4939 27.2941 27.1299C27.872 22.7695 28.9227 19.7751 32.2324 16.3078C37.1706 11.1594 43.5798 10.3714 47.4148 10.3189C53.6138 10.2664 57.9216 14.364 58.7097 15.5198C59.4977 16.6755 64.2258 21.7714 65.4341 21.9815C66.6423 22.1916 69.6368 20.1953 69.6368 20.1953L70.0045 19.8801C70.0045 19.8801 70.1621 19.3548 70.0045 18.5142C69.7419 18.9871 69.2165 19.67 68.4285 20.1953ZM55.0848 25.3437C55.2424 25.3437 55.4525 25.3437 55.6101 25.2912C55.7152 25.2912 55.8728 25.2912 56.0304 25.2386C56.2405 25.2386 56.5032 25.1861 56.7134 25.1861C56.8184 25.1861 56.976 25.1336 57.1336 25.1336C57.2912 25.1336 57.5014 25.081 57.659 25.081C57.8166 25.081 57.9742 25.0285 58.1318 25.0285C58.2894 25.0285 58.447 24.976 58.6046 24.976C58.7097 24.976 58.8147 24.9234 58.9198 24.9234C59.1299 24.8709 59.3401 24.8184 59.5502 24.8184C59.6553 24.8184 59.7603 24.7658 59.8654 24.7658C60.0756 24.7133 60.2857 24.6608 60.4433 24.6608C60.5484 24.6608 60.6009 24.6082 60.6534 24.6082C60.811 24.5557 60.9686 24.5032 61.1262 24.5032C61.1788 24.5032 61.2313 24.5032 61.2838 24.4506C61.494 24.3981 61.7041 24.3455 61.8617 24.293C61.9142 24.293 61.9668 24.293 62.0193 24.2405C62.2295 24.1879 62.3871 24.1354 62.5972 24.0829C63.753 23.7677 64.4359 23.505 64.4359 23.505C64.4359 23.505 61.8092 23.8202 58.7097 20.6156C57.5014 18.6718 55.5051 15.0995 52.4055 13.8912C48.8332 12.4728 36.9079 11.8424 32.8628 20.458C28.8176 29.0736 31.4444 36.481 33.178 40.1058C34.9116 43.7307 37.6434 50.6652 37.5383 55.1832C37.4333 59.7537 36.33 66.2154 35.1218 69.0522C33.9135 71.8891 25.8757 81.8706 24.1946 86.5462C22.461 91.4319 21.8831 94.7415 26.0333 101.413C27.6093 103.988 28.66 104.723 29.0803 105.669C28.4499 103.042 27.4517 100.941 25.6656 98.2088C23.5642 94.8991 23.5642 90.2761 25.6656 85.7581C27.7669 81.2402 35.1218 73.4651 37.6434 63.2735C40.165 53.0818 35.8572 44.8339 35.2268 38.5298C34.5964 32.2257 39.5872 21.6138 47.2046 24.293C48.2028 24.6608 49.2535 24.8709 50.2516 25.0285H50.3042C50.4092 25.0285 50.5143 25.081 50.6719 25.081C50.882 25.081 51.0922 25.1336 51.3023 25.1336C51.4599 25.1336 51.6175 25.1336 51.7226 25.1861C51.9327 25.1861 52.1429 25.2386 52.4055 25.2386H54.5594C54.717 25.3962 54.9272 25.3962 55.0848 25.3437Z" fill="#221B23"/>
<path d="M34.6489 71.8892C34.6489 71.8892 33.283 75.3564 29.7632 79.6117C25.0877 85.2329 24.1421 88.7527 25.8757 93.1656C27.6093 97.5784 29.9734 99.8899 30.7614 101.834C31.5494 103.777 31.3393 105.826 31.3393 105.826C31.3393 105.826 32.3374 103.672 31.9172 102.044C31.5494 100.415 28.0296 94.7416 27.5043 91.537C26.9789 88.3324 27.5568 84.7601 29.7107 81.7131C31.5494 79.1389 33.7033 75.6191 34.6489 71.8892ZM35.6471 72.6772C35.6471 72.6772 34.3337 78.7712 32.495 81.8181C30.6563 84.8651 30.0785 88.6476 31.4443 91.8522C32.8102 95.0568 35.437 99.2595 35.2268 102.044C35.2268 102.044 37.013 98.6817 35.3319 95.2144C33.6508 91.7471 33.0729 86.5988 34.4388 83.079C35.8047 79.6117 35.9623 75.0938 35.6471 72.6772Z" fill="#2A232B"/>
<path d="M50.3042 25.1861C50.4618 25.1861 50.5669 25.2386 50.672 25.2386C50.8821 25.2386 51.0922 25.2911 51.3024 25.2911C51.46 25.2911 51.6176 25.2911 51.7226 25.3437C51.9328 25.3437 52.1429 25.3962 52.4056 25.3962H53.1936C51.9328 24.8709 50.4618 24.0303 49.201 22.5594C46.6793 19.4598 44.7356 18.0414 40.6904 18.4617C36.6453 18.882 32.39 24.3455 32.6527 30.0718C32.9154 35.7455 34.7541 39.3703 35.9098 42.4699C35.5946 41.104 35.3319 39.8432 35.2269 38.6349C34.649 32.3307 39.5872 21.7188 47.2047 24.3981C48.2554 24.7658 49.2535 24.9759 50.3042 25.1861Z" fill="#1B141C"/>
<path opacity="0.44" d="M51.8277 43.7307C51.8277 43.7307 51.9853 42.6274 50.0941 41.997C48.6756 41.5242 47.1521 41.4191 45.9439 41.4191C44.7356 41.4191 40.848 41.3666 39.8499 41.4717C38.8517 41.5767 37.3808 41.6818 36.8554 43.1528C36.3301 44.6237 37.013 47.0928 39.0093 48.3011C41.0056 49.5094 45.1033 49.6145 47.73 48.8265C50.4093 48.0385 51.6176 46.1998 51.8277 43.7307Z" fill="white"/>
<path opacity="0.44" d="M56.0305 43.7307C56.0305 43.7307 55.8729 42.6274 57.7641 41.997C59.1826 41.5242 60.7061 41.4191 61.9143 41.4191C63.1226 41.4191 67.0102 41.3666 68.0083 41.4717C69.0065 41.5767 70.4774 41.6818 70.9502 43.1528C71.423 44.6237 70.7926 47.0928 68.7963 48.3011C66.8 49.5094 62.7024 49.6145 60.0756 48.8265C57.4489 48.0385 56.2406 46.1998 56.0305 43.7307Z" fill="white"/>
<path d="M51.8277 43.4154C51.8277 43.4154 53.6139 42.5749 56.0305 43.4154V43.8883C56.0305 43.8883 53.4563 43.4154 51.7752 43.8883L51.8277 43.4154Z" fill="#070201"/>
<path d="M43.8425 49.5094C41.7937 49.5094 40.0075 49.1417 38.9043 48.4587C37.1181 47.3555 36.4352 45.3067 36.5403 43.8882V43.8357H35.332V42.8376H36.8029V42.785C37.4333 41.5767 38.7992 41.4191 39.6923 41.3141H39.7974C40.2177 41.2615 41.2158 41.2615 42.7918 41.2615H45.9439C47.1522 41.2615 48.6757 41.3141 50.1466 41.8394C52.0904 42.5223 52.0379 43.6256 51.9853 43.7832C51.7227 46.5149 50.3042 48.3011 47.7826 49.0366C46.6794 49.3518 45.3135 49.5094 43.8425 49.5094ZM42.8444 41.6293C41.2683 41.6293 40.2702 41.6293 39.8499 41.6818H39.7449C38.7467 41.7869 37.4859 41.8919 37.0131 43.2053C36.5403 44.6763 37.2232 46.9878 39.0619 48.1435C40.1126 48.7739 41.7937 49.1417 43.79 49.1417C45.1559 49.1417 46.5743 48.9841 47.625 48.6163C50.0416 47.8808 51.3549 46.2523 51.5651 43.6781C51.5651 43.573 51.6176 42.7325 49.9365 42.1546C48.5181 41.6818 46.9946 41.6293 45.8388 41.6293H42.8444ZM64.0157 49.5094C62.5973 49.5094 61.1788 49.2993 60.0756 48.9841C57.554 48.196 56.1356 46.4624 55.8729 43.7306C55.8729 43.6256 55.7678 42.4698 57.7116 41.7869C59.1825 41.3141 60.7586 41.209 61.9143 41.209H65.0664C66.6424 41.209 67.6406 41.209 68.0608 41.2615H68.1659C69.059 41.3666 70.4774 41.4717 71.0553 42.7325V42.785H72.5263V43.7832H71.318V43.8357C71.423 45.2541 70.7401 47.303 68.9539 48.4062C67.8507 49.1417 66.012 49.5094 64.0157 49.5094ZM65.0138 41.6293H61.9143C60.7586 41.6293 59.2351 41.6818 57.8167 42.1546C56.1356 42.7325 56.1881 43.573 56.1881 43.6781C56.3982 46.3048 57.7116 47.8808 60.1282 48.6163C61.1788 48.9315 62.5973 49.1417 63.9632 49.1417C65.9595 49.1417 67.6931 48.7739 68.6913 48.1435C70.53 46.9878 71.2654 44.6763 70.7401 43.2053C70.3198 41.8919 69.059 41.7869 68.0083 41.6818H67.9032C67.588 41.6293 66.5899 41.6293 65.0138 41.6293Z" fill="#26120B"/>
<path d="M65.0663 41.1565V41.2616C66.6423 41.2616 67.588 41.2616 68.0608 41.3141H68.1658C69.0589 41.4192 70.4248 41.5242 71.0027 42.7325L71.0552 42.7851H72.4737V43.7307H71.2654V43.8357C71.3704 45.2542 70.6875 47.2505 68.9013 48.3537C67.7981 49.0366 66.0119 49.4044 64.0156 49.4044C62.5972 49.4044 61.1788 49.1942 60.0756 48.879C57.5539 48.091 56.188 46.3574 55.9253 43.6781C55.9253 43.5731 55.8203 42.4699 57.764 41.8394C59.235 41.3666 60.7585 41.2616 61.9668 41.2616H65.1714L65.0663 41.1565ZM64.0156 49.1942C66.0119 49.1942 67.7456 48.8265 68.7962 48.1961C70.6875 47.0403 71.3704 44.6763 70.8976 43.1528C70.4248 41.7869 69.1115 41.6818 68.1133 41.5768H68.0082C67.588 41.5242 66.6423 41.5242 65.0138 41.5242H61.9143C60.7585 41.5242 59.235 41.5768 57.8166 42.0496C56.1355 42.6275 56.1355 43.5205 56.188 43.6256C56.3982 46.2523 57.7115 47.8809 60.1806 48.6164C61.2313 49.0366 62.5972 49.1942 64.0156 49.1942ZM65.0663 41.1565H61.9143C60.706 41.1565 59.1825 41.209 57.7115 41.7344C55.7152 42.4173 55.7677 43.5731 55.8203 43.7307C56.0829 46.4625 57.5014 48.3012 60.0756 49.0366C61.1788 49.4044 62.5972 49.562 64.0682 49.562C65.9594 49.562 67.8506 49.2468 69.0589 48.4588C70.74 47.4081 71.5806 45.4118 71.4755 43.8357H72.6838V42.68H71.2128C70.5824 41.4192 69.2165 41.2616 68.2709 41.209H68.1658C67.5354 41.209 66.3271 41.1565 65.0663 41.1565ZM64.0156 49.0892C62.6497 49.0892 61.2838 48.9316 60.1806 48.5638C57.764 47.8284 56.5032 46.2523 56.2931 43.6781C56.2931 43.6256 56.2405 42.7851 57.8691 42.2072C59.2875 41.7344 60.7585 41.6818 61.9143 41.6818H65.0663C66.3271 41.6818 67.5354 41.6818 68.0082 41.7344H68.1133C69.1115 41.8394 70.3197 41.9445 70.7926 43.2053C71.2654 44.6238 70.5824 46.9353 68.7437 48.091C67.588 48.774 65.8018 49.0892 64.0156 49.0892ZM42.7918 41.3141H45.9964C47.1521 41.3141 48.7281 41.3666 50.1991 41.892C52.0903 42.5224 52.0378 43.6256 52.0378 43.7307C51.7751 46.4099 50.4092 48.1961 47.8876 48.9316C46.7844 49.2993 45.3659 49.4569 43.9475 49.4569C41.8987 49.4569 40.1125 49.0892 39.0618 48.4062C37.3282 47.303 36.5927 45.3067 36.6978 43.8883V43.7832H35.4895V42.8901H36.9605L37.013 42.8376C37.5909 41.6293 38.9568 41.5242 39.8498 41.4192H39.9549C40.2701 41.3141 41.2157 41.3141 42.7918 41.3141ZM43.8425 49.1942C45.2609 49.1942 46.6268 49.0366 47.6775 48.6689C50.1466 47.9334 51.4074 46.3049 51.6701 43.6256C51.6701 43.5205 51.7226 42.6275 49.989 42.0496C48.5705 41.5768 47.047 41.5242 45.8913 41.5242H42.7918C41.2157 41.5242 40.2176 41.5242 39.7973 41.5768L39.7448 41.6293C38.7466 41.7344 37.4333 41.8394 36.9605 43.2053C36.4876 44.6763 37.1706 47.0403 39.0618 48.2486C40.1125 48.8265 41.8987 49.1942 43.8425 49.1942ZM42.7918 41.1565C41.5309 41.1565 40.3227 41.1565 39.7973 41.209H39.6922C38.7466 41.3141 37.3807 41.4192 36.7503 42.68H35.2794V43.8357H36.4876C36.3826 45.4118 37.1706 47.4081 38.9042 48.4588C40.1125 49.1942 42.0038 49.562 43.895 49.562C45.3134 49.562 46.7318 49.3518 47.8876 49.0366C50.4618 48.2486 51.8802 46.4625 52.1429 43.7307C52.1429 43.6256 52.2479 42.4173 50.2516 41.7344C48.7807 41.209 47.2046 41.1565 46.0489 41.1565H42.7918ZM43.8425 49.0892C42.0563 49.0892 40.2701 48.774 39.1144 48.091C37.2757 46.9353 36.5927 44.6763 37.0655 43.2053C37.4858 41.9445 38.7466 41.8394 39.7448 41.7344H39.8498C40.3227 41.6818 41.5835 41.6818 42.7918 41.6818H45.9438C47.0996 41.6818 48.6231 41.7344 49.989 42.2072C51.6175 42.7851 51.565 43.6256 51.565 43.6781C51.3549 46.2523 50.0415 47.8284 47.6775 48.5638C46.6268 48.9316 45.2609 49.0892 43.8425 49.0892Z" fill="#070201"/>
</g>
<ellipse cx="86" cy="95.5" rx="11" ry="11.5" fill="#16EF53"/>
</svg>
