<svg width="40" height="39" viewBox="0 0 40 39" fill="none" xmlns="http://www.w3.org/2000/svg">
<mask id="mask0_83_6813" style="mask-type:alpha" maskUnits="userSpaceOnUse" x="0" y="0" width="40" height="39">
<path d="M39.6783 19.5C39.6783 30.2696 30.796 39 19.8391 39C8.88228 39 0 30.2696 0 19.5C0 8.73045 8.88228 0 19.8391 0C30.796 0 39.6783 8.73045 39.6783 19.5Z" fill="white"/>
</mask>
<g mask="url(#mask0_83_6813)">
<rect x="-4.95056" y="-18.3743" width="48.9144" height="74.3687" fill="#FFCD4E"/>
<path d="M26.6607 7.45654C26.6607 7.45654 27.7712 7.66717 28.7063 9.7543C29.6413 11.8414 29.2517 14.2349 29.1348 15.9008C29.018 17.5667 28.7452 22.7941 27.0114 25.4365C25.2776 28.079 24.4594 28.2321 22.4528 28.9598C20.4463 29.6682 15.3423 29.4576 13.1799 27.5428C11.0175 25.6089 11.9136 22.392 12.4591 21.224C13.0045 20.0368 26.6607 7.45654 26.6607 7.45654Z" fill="#221B23"/>
<path d="M14.3878 21.0516C14.3878 21.0516 13.8423 22.4111 13.7254 23.3493C13.6085 24.2876 14.2319 25.1684 14.6021 25.6663C15.0112 26.2024 15.7709 27.1215 15.7904 28.9597C15.8099 30.1086 23.8945 27.9066 23.8945 27.9066C24.6153 27.3513 26.0569 26.0684 26.9336 23.9046C27.6738 22.0856 27.6738 20.4963 27.6154 19.6155C24.2647 20.8027 20.8945 22.009 17.5437 23.1962L16.9982 22.3728L14.3878 21.0516Z" fill="#1B141C"/>
<path d="M33.3427 39.7783L33.0116 35.6615C33.0116 35.6615 33.1479 33.9382 31.2972 32.7319C29.4465 31.5255 26.7387 30.7979 25.5503 30.0128C24.362 29.2278 23.7581 29.1512 23.797 26.7768C23.836 24.4025 23.9724 19.0602 23.9724 19.0602H16.0241C16.0241 19.0602 16.1605 24.4025 16.1994 26.7768C16.2384 29.1512 15.6345 29.2278 14.4461 30.0128C13.2578 30.7979 10.5499 31.5255 8.69924 32.7319C6.84855 33.9382 6.98491 35.6615 6.98491 35.6615L6.67322 39.7783H33.3427Z" fill="#F3D4CF"/>
<path opacity="0.65" d="M19.9983 28.5576C19.9983 28.5576 21.7711 28.6418 23.7971 27.156C23.7952 27.0353 23.7952 26.9109 23.7971 26.7768C23.8361 24.4025 23.9724 19.0602 23.9724 19.0602H16.0242C16.0242 19.0602 16.1605 24.4025 16.1995 26.7768C16.2014 26.9109 16.2014 27.0372 16.1995 27.156C18.2255 28.6418 19.9983 28.5576 19.9983 28.5576Z" fill="#D4958A"/>
<path d="M14.8942 31.4298C15.8878 31.9851 17.193 32.4255 18.3229 32.5213C18.4008 32.5213 18.4008 32.4064 18.3424 32.3872C17.7969 32.1766 17.193 32.0617 16.628 31.8894C16.0631 31.717 15.4981 31.5064 14.9137 31.3724C14.8942 31.3532 14.8553 31.4107 14.8942 31.4298ZM21.7516 32.617C22.7841 32.5021 23.9529 32.0426 24.849 31.5064C24.9075 31.4681 24.8685 31.3915 24.8101 31.4107C24.3036 31.583 23.7971 31.7936 23.2906 31.966C22.7841 32.1383 22.2386 32.2532 21.7321 32.4447C21.6347 32.4638 21.6347 32.617 21.7516 32.617Z" fill="#D4958A"/>
<path d="M33.3233 39.7592L32.9142 35.6616C32.9142 35.2403 32.8168 34.7999 32.622 34.3978C32.4467 33.9957 32.1739 33.651 31.8622 33.3446C31.5505 33.0383 31.1804 32.8085 30.7908 32.5787C30.4012 32.3489 29.9921 32.1575 29.583 31.9851C28.7648 31.6213 27.9076 31.2958 27.0699 30.9511C26.6413 30.7788 26.2322 30.5873 25.8231 30.3767C25.6088 30.2618 25.414 30.1469 25.2387 30.0129C25.0439 29.898 24.8491 29.7831 24.6543 29.6491C24.4595 29.515 24.2646 29.3619 24.1088 29.1512C23.9529 28.9597 23.8555 28.73 23.7776 28.5002C23.6412 28.0406 23.6218 27.5811 23.6218 27.1215C23.6218 26.2216 23.6607 25.3216 23.6802 24.4217C23.7192 22.6218 23.7971 20.841 23.8555 19.0602L23.9724 19.1751L19.9983 19.1368L16.0242 19.1177L16.0826 19.0602L16.219 24.4217C16.2385 25.3216 16.2774 26.2024 16.2969 27.1024C16.2969 27.5619 16.2774 28.0023 16.1411 28.4619C16.0826 28.6917 15.9657 28.9023 15.8294 29.0938C15.6735 29.2853 15.4982 29.4384 15.3034 29.5725C15.1086 29.7065 14.9137 29.8214 14.7384 29.9554C14.5631 30.0703 14.3683 30.2044 14.154 30.3193C13.7449 30.549 13.3358 30.7214 12.9072 30.9128C12.0695 31.2767 11.2318 31.6022 10.4136 31.9851C10.0045 32.1766 9.59543 32.3872 9.22529 32.5979C8.83567 32.8277 8.48501 33.0574 8.17331 33.3638C7.86162 33.6702 7.60836 34.0148 7.43304 34.3978C7.35511 34.5893 7.27719 34.7999 7.23823 34.9914C7.19926 35.202 7.1603 35.4126 7.17978 35.6041V35.6424L6.88757 39.7592L6.69276 39.5486L13.3163 39.5678C15.5177 39.5678 17.7385 39.5869 19.9593 39.6061L26.6218 39.6635L33.3233 39.7592ZM33.3623 39.7975L26.7387 39.8741L20.0762 39.9316C17.8554 39.9507 15.6151 39.9699 13.3747 39.9699L6.67328 39.989H6.45898L6.47847 39.7784L6.80964 35.6616V35.6807C6.79016 34.7042 7.23823 33.8042 7.92006 33.134C8.25124 32.8085 8.66034 32.5404 9.04996 32.3107C9.43958 32.0809 9.86816 31.8894 10.2773 31.6979C11.1149 31.315 11.9721 30.9894 12.8098 30.6639C13.2189 30.4916 13.6475 30.3193 14.0371 30.1086C14.2319 30.0129 14.4072 29.898 14.6215 29.764C14.8163 29.6491 15.0112 29.5342 15.1865 29.4002C15.3618 29.2853 15.5371 29.1321 15.654 28.9789C15.7904 28.8066 15.8878 28.6151 15.9462 28.4236C16.0631 28.0215 16.1021 27.5619 16.1021 27.1215C16.1021 26.2407 16.0826 25.3408 16.0631 24.4408L15.9462 19.0794V19.0219H16.0047L19.9788 19.0028L23.9529 18.9645H24.0698V19.0794C24.0504 20.8601 24.0309 22.66 23.9919 24.4408C23.9724 25.3408 23.9529 26.2407 23.9529 27.1215C23.9724 27.5619 23.9919 28.0023 24.1088 28.4045C24.1672 28.6151 24.2646 28.7874 24.3815 28.9597C24.4984 29.1129 24.6543 29.2661 24.8491 29.381C25.0244 29.4959 25.2192 29.6299 25.414 29.7448C25.6088 29.8789 25.7842 29.9937 25.979 30.0895C26.3686 30.3001 26.7777 30.4916 27.2063 30.6639C28.044 31.0086 28.8816 31.3533 29.7193 31.7362C30.1284 31.9277 30.5375 32.1383 30.9272 32.3681C31.3168 32.5979 31.7064 32.8659 32.0376 33.1915C32.6999 33.8425 33.1285 34.7425 33.0895 35.6807V35.6616L33.3623 39.7975ZM11.3877 39.7209L11.7578 37.0785L11.7773 39.7209H11.3877ZM28.6479 39.7209L28.2777 37.0785L28.2583 39.7209H28.6479Z" fill="#C5796D"/>
<path d="M24.3619 39.8741L24.8879 34.7424C24.8879 34.7424 22.1021 37.8061 20.0177 38.3997C20.0177 38.3997 16.8033 36.6189 14.8942 34.7424L15.6539 39.8741H24.3619Z" fill="#EFEFEF"/>
<path d="M24.9269 34.685C24.888 34.6467 24.849 34.6658 24.81 34.685C24.1018 35.4195 23.3539 36.1162 22.5697 36.7721C22.1801 37.0976 21.771 37.404 21.3424 37.6912C20.9138 37.9593 20.4658 38.2082 19.9982 38.3614C19.5502 38.1124 19.1021 37.8444 18.654 37.5572C18.206 37.2699 17.7774 36.9827 17.3488 36.6763C16.4917 36.0636 15.6734 35.4126 14.9332 34.685C14.9137 34.6658 14.8942 34.6658 14.8747 34.6658C14.8358 34.6658 14.8163 34.7041 14.8163 34.7424C14.9332 35.6041 15.0501 36.4466 15.1669 37.3082C15.2838 38.1699 15.4007 39.0124 15.5371 39.8741C15.5371 39.9124 15.5955 39.9507 15.6345 39.9507H17.8358L20.0177 39.9315L22.1996 39.9124L24.362 39.8741L24.6737 37.3274L24.9659 34.7424C24.9659 34.7232 24.9464 34.7041 24.9269 34.685ZM24.5568 37.2699L24.3425 39.8549L22.1411 39.8166L19.9593 39.7975L17.7774 39.7783H15.6929C15.576 38.955 15.4397 38.1316 15.3228 37.2891C15.2059 36.504 15.089 35.7189 14.9527 34.9339C15.6734 35.6041 16.4722 36.1976 17.2709 36.7529C17.6995 37.0593 18.1475 37.3465 18.5956 37.6146C19.0437 37.8827 19.4917 38.1699 19.9593 38.438H19.9788C20.4853 38.2848 20.9333 38.055 21.3814 37.7869C21.8295 37.5189 22.2386 37.2125 22.6477 36.9061C23.0568 36.5806 23.4464 36.2551 23.8165 35.8913C24.1282 35.6041 24.4399 35.2785 24.7321 34.9722C24.6932 35.7381 24.6347 36.504 24.5568 37.2699Z" fill="#B88400"/>
<path d="M15.2643 29.8981C15.2643 29.8981 15.4981 29.1896 15.5955 28.6726C15.7124 28.1556 15.6734 26.8918 15.6734 26.8918C15.6734 26.8918 15.3033 27.6769 14.7773 28.1173C14.2513 28.5577 12.2058 29.8598 12.2058 29.8598L12.6539 30.1661C12.6539 30.1661 7.86153 31.832 7.53036 32.0618C7.19918 32.2916 7.16022 32.7703 7.16022 32.7703L6.75111 32.8852C5.95239 36.102 5.95239 39.8933 5.95239 39.8933H16.5696C16.5696 39.8933 16.1215 36.7148 15.9267 35.4893C15.7513 34.2447 15.2643 29.8981 15.2643 29.8981ZM33.3232 32.866L32.9141 32.7511C32.9141 32.7511 32.8752 32.2724 32.544 32.0426C32.2128 31.8129 27.4205 30.147 27.4205 30.147L27.8685 29.8406C27.8685 29.8406 25.8425 28.5386 25.297 28.0982C24.7711 27.6577 24.4009 26.8727 24.4009 26.8727C24.4009 26.8727 24.362 28.1364 24.4788 28.6534C24.5957 29.1704 24.81 29.8789 24.81 29.8789C24.81 29.8789 24.323 34.2064 24.1282 35.4318C23.9334 36.6573 23.4853 39.8359 23.4853 39.8359H34.1025C34.1025 39.8742 34.1025 36.102 33.3232 32.866Z" fill="#E7B22B"/>
<path d="M27.8491 32.0234C27.4985 31.6596 27.0309 31.4107 26.6413 31.066C26.2517 30.7213 25.94 30.3192 25.5893 29.9363C25.5504 29.898 25.4724 29.9554 25.5114 29.9937C25.7646 30.4724 26.1153 30.8937 26.5049 31.2766C26.8361 31.6021 27.2647 32.0234 27.7322 32.1766C26.7192 33.9956 26.0958 36.236 25.862 38.2848C25.862 38.3231 25.9205 38.3422 25.94 38.3039C26.1737 37.2508 26.3686 36.1977 26.6997 35.1637C27.0114 34.1297 27.4985 33.1723 27.8881 32.1574C27.9076 32.1383 27.8881 32.1191 27.8686 32.1C27.8881 32.0808 27.8686 32.0617 27.8491 32.0234ZM27.4595 29.7448C27.0504 29.515 26.6218 29.3235 26.2322 29.0555C25.8036 28.7682 25.414 28.4236 25.0438 28.0598C25.0049 28.0215 24.9659 28.0789 25.0049 28.0981C25.6088 28.8448 26.466 29.5916 27.4205 29.8405C27.479 29.8788 27.5179 29.7831 27.4595 29.7448ZM31.1414 31.7553C30.031 31.2958 28.8816 30.8745 27.7322 30.5298C27.6933 30.5107 27.6738 30.5681 27.7127 30.5873C28.3946 30.9128 29.0959 31.2192 29.7972 31.5064C30.6933 31.8702 31.7843 32.1 32.2713 32.9999C32.3103 33.0765 32.4272 33.0191 32.4077 32.9425C32.2908 32.2723 31.7258 31.9851 31.1414 31.7553ZM32.9921 33.3638C32.9726 33.2872 32.8557 33.3063 32.8557 33.3829C32.9921 34.4169 33.2259 35.4126 33.3428 36.4466C33.4596 37.4806 33.4207 38.5337 33.5571 39.5486C33.5571 39.6252 33.6545 39.6252 33.6739 39.5486C33.9077 37.6529 33.596 35.1828 32.9921 33.3638ZM14.9527 30.1277C15.0501 29.9363 15.0696 29.7065 15.1085 29.4959C15.167 29.2661 15.2449 29.0363 15.3033 28.8065C15.3228 28.7682 15.2644 28.7491 15.2449 28.7874C15.1085 28.9789 15.0306 29.1895 14.9332 29.4001C14.8553 29.6107 14.7579 29.8597 14.7773 30.0894C14.7968 30.166 14.9137 30.2235 14.9527 30.1277ZM14.8942 30.4341C14.8942 30.415 14.8553 30.415 14.8553 30.4341C14.8358 31.6787 15.089 32.9616 15.2839 34.2063C15.4787 35.5658 15.693 36.9444 16.0631 38.2848C16.0631 38.3039 16.0826 38.2848 16.0826 38.2848C15.9462 37.021 15.7319 35.7764 15.5371 34.5318C15.3033 33.1914 15.2449 31.7745 14.8942 30.4341ZM13.9007 30.4341C13.3552 31.0277 12.8487 31.5638 12.1864 32.0234C12.1084 32.0808 12.1279 32.1957 12.2058 32.2149C12.4786 33.0574 12.8682 33.8425 13.1409 34.685C13.4137 35.5466 13.589 36.4466 13.8228 37.3082C13.8423 37.3657 13.9202 37.3465 13.9202 37.2891C13.8228 35.6232 13.2968 33.6127 12.3812 32.1766C13.0241 31.7362 13.6474 31.1809 14.0176 30.5107C14.0176 30.4341 13.9397 30.3767 13.9007 30.4341ZM7.54988 32.5595C7.80314 33.651 8.30964 34.7424 8.69926 35.7955C8.71875 35.853 8.79667 35.8338 8.79667 35.7764C8.58238 34.7041 8.29016 33.4403 7.70573 32.5021C7.62781 32.4255 7.5304 32.4829 7.54988 32.5595Z" fill="#FFCD4E"/>
<path d="M16.2384 36.1211C16.18 35.6999 16.1215 35.2978 16.0631 34.8765C15.8488 33.2298 15.6345 31.5639 15.4007 29.9172C15.4786 29.6874 15.5371 29.4385 15.5955 29.2087C15.615 29.1513 15.6345 29.0938 15.6345 29.0364C15.6929 28.9598 15.8098 28.8257 15.8877 28.6534C16.0046 28.3853 16.102 27.9258 16.1215 27.4662C16.141 27.0067 16.1215 26.5471 16.1215 26.5471C16.1215 26.5471 15.654 26.7577 15.6345 26.8918C15.4592 27.2364 15.2643 27.5428 15.0111 27.83C14.7773 28.1173 14.4461 28.3279 14.1344 28.5577C13.55 28.9598 12.9656 29.3427 12.3422 29.7065C12.2837 29.7448 12.2253 29.764 12.1669 29.8023L12.1474 29.8214C12.1084 29.8597 12.1279 29.9172 12.1669 29.9363C12.2448 29.9938 12.3227 30.0512 12.4006 30.0895L12.4396 30.1278C11.5045 30.4342 10.5694 30.7405 9.63433 31.0661C9.1473 31.2384 8.6408 31.4107 8.15377 31.6022L7.78363 31.7554L7.58882 31.832C7.53038 31.8703 7.45245 31.8894 7.39401 31.9469C7.25764 32.0426 7.16024 32.1766 7.10179 32.3107C7.06283 32.4064 7.02387 32.5213 7.00439 32.617L6.69269 32.6936C6.63425 32.7128 6.59529 32.7511 6.57581 32.8085C6.30307 33.9574 6.14722 35.1446 6.03034 36.3126C5.99138 36.9062 5.93293 37.4806 5.93293 38.0742C5.93293 38.3614 5.91345 38.6678 5.91345 38.955V39.8358L11.1733 39.9507L13.8617 39.989C14.7578 40.0082 15.654 40.0082 16.5501 40.0082H16.5891C16.7059 39.989 16.7839 39.8933 16.7644 39.7784L16.4137 37.2892L16.2384 36.1211ZM5.9719 39.855C5.99138 39.8358 5.9719 39.7975 5.99138 39.7593V39.6444L6.01086 39.4337L6.03034 38.9933C6.04982 38.7061 6.0693 38.3997 6.10826 38.1125C6.16671 37.5189 6.22515 36.9445 6.30307 36.3701C6.381 35.7956 6.4784 35.202 6.57581 34.6276C6.67321 34.0723 6.7901 33.5361 6.92647 33L7.23816 32.9234H7.25764C7.35505 33.1532 7.47193 33.383 7.54986 33.6319L7.72519 34.0531L7.88104 34.4935C8.07585 35.068 8.25118 35.6616 8.38754 36.2552C8.54339 36.8488 8.66028 37.4423 8.77716 38.0551C8.83561 38.3614 8.87457 38.6678 8.91353 38.9742C8.95249 39.2423 8.99145 39.5295 9.01093 39.8167L5.9719 39.855ZM13.9591 39.7018L11.3292 39.7401L8.99145 39.7976C8.99145 39.204 8.95249 38.6104 8.87457 38.0359C8.79664 37.4232 8.67976 36.8105 8.54339 36.2169C8.38754 35.6233 8.21221 35.0297 7.97844 34.4553C7.78363 33.9191 7.53038 33.4213 7.23816 32.9234C7.27712 32.9043 7.31609 32.8468 7.31609 32.8085C7.33557 32.5979 7.43297 32.3681 7.58882 32.2532C7.62778 32.2149 7.66674 32.2149 7.72519 32.1766L7.90052 32.1L8.27066 31.9469L9.73173 31.3916L12.6539 30.3001C12.8877 30.415 13.1409 30.5108 13.4136 30.5874C13.3162 30.6639 13.2188 30.7597 13.1214 30.8363C12.8877 31.0278 12.6344 31.2192 12.4006 31.4107C12.1474 31.583 11.8941 31.7554 11.6409 31.9086C11.5629 31.9469 11.5435 32.0426 11.5629 32.1192C11.8162 32.7511 12.0695 33.383 12.3032 34.0148C12.537 34.6467 12.7513 35.2978 12.9851 35.9488C13.1994 36.5998 13.3942 37.2509 13.589 37.9019C13.7643 38.4955 13.9007 39.1082 14.0565 39.721C14.0176 39.7018 13.9981 39.7018 13.9591 39.7018ZM14.076 39.7018C14.0176 39.0699 13.9396 38.4572 13.8227 37.8444C13.6864 37.1743 13.5305 36.5041 13.3357 35.8339C13.1409 35.1637 12.9266 34.5127 12.6928 33.8617C12.4591 33.2681 12.2253 32.6745 11.9526 32.0809C12.1863 31.9277 12.3812 31.7745 12.5954 31.6022C12.8292 31.4107 13.063 31.2001 13.2968 30.9703C13.7448 30.5299 14.1734 30.0895 14.563 29.6108C14.1929 29.9363 13.8422 30.2427 13.4721 30.5491C13.2383 30.3767 13.0045 30.2427 12.7513 30.1087C12.7513 30.1087 12.7513 30.0895 12.7318 30.0895L12.5175 29.9555C12.4786 29.9363 12.4396 29.898 12.3812 29.8789C12.4006 29.8597 12.4201 29.8597 12.4396 29.8406C13.024 29.4576 13.6085 29.0555 14.1929 28.6534C14.5046 28.4236 14.8358 28.213 15.1085 27.9258C15.3033 27.696 15.4786 27.4471 15.6345 27.1982C15.6345 27.6194 15.615 28.0407 15.576 28.4428C15.5371 28.6917 15.4786 28.9215 15.4007 29.1704C15.3228 29.4193 15.2449 29.6491 15.1669 29.898V29.9363C15.3228 31.6022 15.5176 33.2681 15.7124 34.934C15.7514 35.3552 15.8098 35.7765 15.8683 36.1786L16.0436 37.4232L16.3748 39.6827C15.5955 39.6827 14.8358 39.6827 14.076 39.7018ZM34.122 38.1125C34.1025 37.5189 34.0635 36.9445 34.0051 36.3509C33.9077 35.1829 33.7324 33.9957 33.4596 32.8468C33.4401 32.7894 33.4012 32.7511 33.3427 32.7319L33.031 32.6553C33.0116 32.5405 32.9921 32.4447 32.9336 32.349C32.8752 32.2149 32.7778 32.0809 32.6414 31.9852C32.583 31.9277 32.5051 31.9086 32.4271 31.8703L32.2323 31.7937L31.8622 31.6405C31.3752 31.449 30.8686 31.2767 30.3816 31.1043C29.4465 30.7788 28.5114 30.4725 27.5764 30.1661L27.6153 30.1278C27.6932 30.0704 27.7712 30.0321 27.8491 29.9746C27.8881 29.9555 27.9075 29.898 27.8686 29.8597C27.8686 29.8406 27.8491 29.8406 27.8491 29.8406C27.7906 29.8023 27.7322 29.764 27.6738 29.7448C27.0698 29.381 26.4659 28.9981 25.901 28.596C25.5893 28.3662 25.2581 28.1556 25.0243 27.8683C24.7711 27.5811 24.5763 27.2556 24.4009 26.9301C24.4009 26.9109 24.3815 26.9109 24.3815 26.9109C24.2841 26.796 23.9139 26.7003 23.9139 26.7003C23.8944 27.2556 23.8944 28.1173 24.0113 28.5577C24.0892 28.8832 24.362 29.247 24.4789 29.4193C24.5373 29.6108 24.5763 29.8023 24.6347 29.9746C24.4009 31.6213 24.1867 33.2681 23.9724 34.934C23.9139 35.3552 23.8555 35.7573 23.797 36.1786L23.6022 37.4232L23.2516 39.9124C23.2321 40.0273 23.31 40.1231 23.4269 40.1422H23.4659C24.362 40.1422 25.2581 40.1422 26.1542 40.1231L28.8426 40.0848L34.1025 39.9699C34.122 39.9124 34.1025 39.8741 34.122 39.855V39.0891C34.1415 38.687 34.1415 38.3997 34.122 38.1125ZM23.7191 39.6635L24.0503 37.404L24.2256 36.1594C24.2841 35.7382 24.3425 35.3361 24.3815 34.9148C24.5763 33.2489 24.7516 31.583 24.9269 29.9172V29.8789C24.849 29.6491 24.7711 29.4002 24.6932 29.1513C24.6347 28.9023 24.5568 28.6725 24.5178 28.4236C24.4789 28.0215 24.4594 27.6003 24.4594 27.179C24.6152 27.4471 24.7906 27.6769 24.9854 27.9066C25.2386 28.213 25.5893 28.4236 25.901 28.6343C26.4854 29.0364 27.0698 29.4193 27.6543 29.8214C27.6738 29.8406 27.6932 29.8406 27.7127 29.8597C27.6738 29.8789 27.6348 29.9172 27.5764 29.9363L27.3621 30.0704L27.3426 30.0895C27.0893 30.2235 26.8556 30.3576 26.6218 30.5299C26.2516 30.2235 25.8815 29.9172 25.5308 29.5917C25.9205 30.0704 26.349 30.5299 26.7971 30.9512C27.0114 31.1618 27.2452 31.3724 27.4984 31.583C27.7127 31.7554 27.9075 31.9086 28.1413 32.0617C27.8686 32.6553 27.6348 33.2298 27.401 33.8425C27.1673 34.4935 26.9335 35.1446 26.7582 35.8148C26.5633 36.4658 26.4075 37.1551 26.2711 37.8253C26.1542 38.438 26.0568 39.0699 26.0179 39.6827C25.2386 39.6827 24.4789 39.6827 23.7191 39.6635ZM28.7452 39.7401L26.1153 39.7018H26.0179C26.1737 39.0891 26.3101 38.4955 26.4854 37.8827C26.6607 37.2317 26.875 36.5615 27.0893 35.9296C27.3036 35.2786 27.5179 34.6276 27.7712 33.9957C28.0049 33.3638 28.2582 32.7128 28.5309 32.1C28.5699 32.0235 28.5309 31.9277 28.453 31.8894C28.1997 31.7554 27.9465 31.583 27.6932 31.3916C27.44 31.2192 27.2062 31.0278 26.9724 30.8171C26.875 30.7405 26.7776 30.6448 26.6802 30.5682C26.9335 30.4916 27.1867 30.3767 27.44 30.281L30.3621 31.3724L31.8232 31.9277L32.1934 32.0809L32.3687 32.1575C32.4271 32.1766 32.4661 32.1958 32.5051 32.2341C32.6609 32.349 32.7583 32.5787 32.7778 32.7894C32.7778 32.8468 32.8167 32.8851 32.8557 32.9043C32.583 33.4021 32.3297 33.9 32.1154 34.4361C31.8817 35.0105 31.7063 35.6041 31.5505 36.1977C31.4141 36.7913 31.2777 37.404 31.2193 38.0168C31.1414 38.6104 31.1024 39.1848 31.1024 39.7784L28.7452 39.7401ZM31.0829 39.7976C31.1219 39.5103 31.1414 39.2423 31.1998 38.955C31.2388 38.6487 31.2972 38.3423 31.3362 38.0359C31.4531 37.4232 31.57 36.8296 31.7063 36.236C31.8427 35.6424 32.018 35.0488 32.2128 34.4744L32.3687 34.034L32.544 33.6127C32.6219 33.383 32.7388 33.1532 32.8362 32.9043H32.8557L33.1674 32.9809C33.2843 33.517 33.4207 34.0531 33.5181 34.6084C33.6155 35.1829 33.7129 35.7573 33.7908 36.3509C33.8687 36.9253 33.9272 37.5189 33.9661 38.0934C33.9856 38.3806 34.0246 38.687 34.0441 38.9742L34.0635 39.4146L34.083 39.6252V39.7401C34.083 39.7784 34.083 39.8167 34.1025 39.8358L31.0829 39.7976Z" fill="#B88400"/>
<path d="M13.2383 17.3561C13.2383 17.3561 12.9266 16.5328 12.6149 16.0158C12.3032 15.4988 11.8357 14.7903 11.5435 14.5988C11.2513 14.4073 11.037 14.5031 11.1149 14.9818C11.2123 15.4605 11.563 17.0306 11.6604 17.5093C11.7578 17.988 11.9915 19.022 12.2838 19.7113C12.576 20.3815 12.7318 20.707 13.0045 19.8071C13.2968 18.9071 13.4526 17.9306 13.2383 17.3561Z" fill="#F3D4CF"/>
<path d="M13.9786 18.1986C13.9786 18.4858 13.8227 19.4815 13.5695 20.1134C13.3357 20.324 12.7123 20.4964 12.6928 20.4964C12.6733 20.4964 12.6539 20.4964 12.6344 20.4772C12.5565 20.4389 12.498 20.3623 12.4591 20.3049C12.4201 20.2474 12.3811 20.1709 12.3617 20.1134C12.3032 19.9794 12.2448 19.8645 12.1863 19.7304C12.0889 19.4624 11.9915 19.1943 11.9136 18.9071C11.7577 18.3518 11.6409 17.7773 11.5434 17.2221C11.4266 16.6668 11.3292 16.0923 11.1928 15.537L11.0954 15.1158C11.0564 14.9817 11.0175 14.8285 11.0564 14.6562C11.0759 14.5796 11.1149 14.4839 11.1538 14.4456C11.2123 14.4073 11.2707 14.3881 11.3292 14.4073C11.446 14.4264 12.5759 14.5605 12.6733 14.6371C13.2967 14.886 13.9981 16.1689 13.9786 18.1986ZM12.498 15.92C12.3617 15.7094 12.2058 15.4987 12.05 15.2881C11.8941 15.0775 11.7577 14.886 11.5824 14.7328C11.5045 14.6562 11.4071 14.5988 11.3292 14.5796C11.2512 14.5605 11.1733 14.5988 11.1538 14.6945C11.1343 14.8094 11.1538 14.9434 11.1733 15.0775C11.1928 15.2115 11.2318 15.3647 11.2512 15.4987C11.3681 16.054 11.5045 16.6093 11.6409 17.1646C11.7772 17.7199 11.9136 18.2752 12.0694 18.8113C12.1474 19.0794 12.2448 19.3475 12.3422 19.5964C12.4006 19.7113 12.4396 19.8453 12.498 19.9602C12.5175 20.0177 12.5565 20.0751 12.5759 20.1134C12.5954 20.1517 12.6344 20.19 12.6539 20.2091C12.6733 20.2091 12.6733 20.2091 12.7123 20.19C12.7318 20.1709 12.7318 20.1709 12.7513 20.1326C12.7708 20.1134 12.7708 20.0943 12.7902 20.056C12.8487 19.9602 12.8876 19.8262 12.9266 19.7113C13.0045 19.4624 13.0824 19.2134 13.1409 18.9645C13.1993 18.7156 13.2578 18.4475 13.2967 18.1795C13.3162 17.9114 13.3162 17.605 13.2188 17.3561C13.024 16.8391 12.7902 16.3412 12.498 15.92Z" fill="#E4B3AB"/>
<path d="M11.2513 15.1157C11.8357 15.7476 12.3033 16.8198 12.3812 17.8155C12.3812 17.8921 12.3227 17.8921 12.3033 17.8347C12.2838 17.739 12.2643 17.6432 12.2448 17.5666C12.1864 17.4326 12.1085 17.4134 11.9916 17.5283C11.9916 17.6049 12.0111 17.6815 12.0305 17.7581C12.05 17.8538 12.089 17.9687 12.1279 18.0645C12.2253 18.2942 12.3422 18.4857 12.4591 18.6964C12.4786 18.7347 12.4591 18.8112 12.4202 18.7729C12.1474 18.5432 11.8552 17.9113 11.8747 17.4709C11.8747 17.3368 11.9136 17.2028 12.0305 17.2028C12.089 17.2028 12.1474 17.222 12.1864 17.2794C11.9721 16.4943 11.6994 15.8433 11.2318 15.1923C11.1928 15.1348 11.2123 15.0774 11.2513 15.1157Z" fill="#D4958A"/>
<path d="M26.7582 17.356C26.7582 17.356 27.0699 16.5326 27.3816 16.0156C27.6933 15.4987 28.1608 14.7902 28.453 14.5987C28.7452 14.4072 28.9595 14.5221 28.8621 15.0008C28.7647 15.4795 28.4141 17.0496 28.3167 17.5283C28.2193 18.007 27.9855 19.041 27.6933 19.7304C27.4011 20.4005 27.2452 20.7261 26.9725 19.8261C26.6997 18.907 26.5439 17.9305 26.7582 17.356Z" fill="#F3D4CF"/>
<path d="M27.3231 14.637C27.4205 14.5604 28.5504 14.4264 28.6673 14.4072C28.7257 14.4072 28.7842 14.4072 28.8426 14.4455C28.901 14.4838 28.94 14.5604 28.94 14.6562C28.9595 14.8285 28.9205 14.9817 28.901 15.1157L28.8036 15.537C28.6673 16.0923 28.5699 16.6475 28.453 17.222C28.3556 17.7773 28.2387 18.3517 28.0828 18.907C28.0049 19.1751 27.927 19.4623 27.8101 19.7304C27.7517 19.8644 27.7127 19.9985 27.6348 20.1133C27.5958 20.1708 27.5763 20.2474 27.5374 20.3048C27.4984 20.3623 27.44 20.4389 27.362 20.4772C27.3426 20.4772 27.3231 20.4963 27.3036 20.4963C27.2841 20.4963 26.6607 20.324 26.427 20.1133C26.1737 19.4815 26.0373 18.4858 26.0179 18.1985C25.9984 16.1688 26.6997 14.8859 27.3231 14.637ZM26.7581 17.356C26.6607 17.6241 26.6607 17.9113 26.6802 18.1794C26.6997 18.4475 26.7581 18.7155 26.8361 18.9645C26.8945 19.2134 26.9724 19.4623 27.0503 19.7112C27.0893 19.8261 27.1283 19.9602 27.1867 20.0559C27.2062 20.075 27.2062 20.1133 27.2257 20.1325C27.2452 20.1516 27.2452 20.1708 27.2646 20.1899C27.2841 20.2091 27.3036 20.2282 27.3231 20.2091C27.3426 20.1899 27.362 20.1708 27.401 20.1133C27.44 20.0751 27.4594 20.0176 27.4789 19.9602C27.5374 19.8453 27.5958 19.7112 27.6348 19.5963C27.7322 19.3474 27.8296 19.0794 27.9075 18.8113C28.0634 18.2751 28.1997 17.7198 28.3361 17.1645C28.4725 16.6093 28.6088 16.054 28.7257 15.4987C28.7452 15.3646 28.7842 15.2114 28.8036 15.0774C28.8231 14.9434 28.8426 14.7902 28.8231 14.6944C28.8036 14.5796 28.7257 14.5604 28.6478 14.5796C28.5699 14.5987 28.4725 14.6562 28.3945 14.7327C28.2387 14.8859 28.0828 15.0966 27.927 15.288C27.7711 15.4987 27.6348 15.7093 27.4789 15.9199C27.2062 16.3412 26.9724 16.839 26.7581 17.356Z" fill="#E4B3AB"/>
<path d="M28.7451 15.1157C28.1607 15.7476 27.6932 16.8198 27.6152 17.8155C27.6152 17.8921 27.6737 17.8921 27.6932 17.8347C27.7126 17.739 27.7321 17.6432 27.7516 17.5666C27.81 17.4326 27.888 17.4134 28.0049 17.5283C28.0049 17.6049 27.9854 17.6815 27.9659 17.7581C27.9464 17.8538 27.9074 17.9687 27.8685 18.0645C27.7711 18.2942 27.6542 18.4857 27.5373 18.6964C27.5178 18.7347 27.5373 18.8112 27.5763 18.7729C27.849 18.5432 28.1412 17.9113 28.1217 17.4709C28.1217 17.3368 28.0828 17.2028 27.9659 17.2028C27.9074 17.2028 27.849 17.222 27.81 17.2794C28.0243 16.4943 28.2971 15.8433 28.7646 15.1923C28.8036 15.1348 28.7841 15.0774 28.7451 15.1157Z" fill="#D4958A"/>
<path d="M27.9855 14.1008C27.7517 8.64365 24.1652 5.76953 20.0158 5.76953C15.8663 5.76953 12.2448 8.6628 12.011 14.1008C12.011 14.1008 11.9331 19.0602 13.063 21.243C15.8683 26.6811 20.0022 26.4034 20.0022 26.4034C20.0022 26.4034 24.1282 26.6811 26.9335 21.243C28.0634 19.0602 27.9855 14.1008 27.9855 14.1008Z" fill="#F3D4CF"/>
<path d="M26.9335 21.2431C28.0634 19.0602 28.003 14.0971 28.003 14.0971C27.7692 8.63988 24.1477 5.65662 19.9983 5.65662C15.8488 5.65662 12.2448 8.66286 12.011 14.1009C12.011 14.1009 11.9331 19.0602 13.063 21.2431C15.8683 26.6811 19.9983 26.5088 19.9983 26.5088C19.9983 26.5088 24.1282 26.6811 26.9335 21.2431ZM18.8099 26.0627C18.4203 25.965 18.0307 25.8118 17.6411 25.6376C16.8813 25.2891 16.1995 24.7855 15.5955 24.2053C15.2838 23.9143 15.0111 23.6041 14.7384 23.2766C14.7384 23.2766 14.115 22.4245 13.9786 22.2503C13.9202 22.1526 13.8617 22.076 13.8033 21.9784C13.7448 21.8807 13.6864 21.8041 13.628 21.7065L13.2773 21.0861C13.2773 21.0861 13.102 20.6802 13.063 20.5825C13.024 20.4848 12.9851 20.3891 12.9656 20.2723C12.9266 20.1747 12.9072 20.0598 12.8682 19.9621C12.7513 19.5562 12.6539 19.1292 12.576 18.7041C12.4981 18.279 12.4201 17.852 12.3812 17.4058C12.2643 16.5346 12.2058 15.6634 12.1669 14.773V14.1334L12.1864 13.8041C12.1864 13.6873 12.2058 13.5916 12.2058 13.4748C12.2253 13.2622 12.2643 13.0497 12.2838 12.8161C12.3032 12.6993 12.3227 12.6035 12.3422 12.4867C12.3422 12.4867 12.4007 12.2359 12.4201 12.1765C12.6149 11.3244 12.9072 10.4915 13.3552 9.75621C13.4526 9.56281 13.589 9.38857 13.7059 9.21432L13.9007 8.96348C13.9591 8.88689 14.0371 8.78923 14.115 8.71264C14.3877 8.3833 14.6994 8.0731 15.0306 7.80311C15.6929 7.26122 16.4527 6.85337 17.2514 6.56423C18.0502 6.29233 18.8878 6.15829 19.745 6.13915C20.1736 6.12 21.8879 6.35169 21.9464 6.37084C22.9029 6.60444 23.836 7.04868 24.5373 7.51397C24.7127 7.63078 24.888 7.76481 25.0438 7.90077L25.2971 8.11331L25.5309 8.32585C25.8426 8.63605 26.1153 8.9654 26.3686 9.31389C26.427 9.41154 26.7387 9.85578 26.7387 9.85578C26.7971 9.95343 27.0504 10.436 27.0504 10.436C27.1478 10.6294 27.2257 10.8419 27.3231 11.0372C27.401 11.2498 27.479 11.4432 27.5374 11.6576C27.6153 11.8702 27.6543 12.0827 27.7127 12.2972C27.7322 12.414 27.8491 12.9367 27.8491 12.9367L27.9037 13.3082C27.9231 13.425 27.9387 13.8328 27.9387 13.8328L27.9504 14.0109C27.9504 14.0109 27.9485 15.6921 27.89 16.3699C27.8316 17.0478 27.7907 17.6643 27.6738 18.3422C27.6153 18.6715 27.5374 19.02 27.4595 19.3494C27.3816 19.6787 27.2842 20.0081 27.1673 20.3183C27.0504 20.6285 26.9335 20.9387 26.7777 21.2278L26.5244 21.6529C26.4465 21.808 26.3491 21.9439 26.2517 22.078C25.8815 22.639 25.4724 23.1617 25.0244 23.6462C24.5763 24.1306 24.0893 24.5749 23.5633 24.9636C23.2906 25.157 23.0178 25.3312 22.7451 25.4863C22.4529 25.6414 22.1606 25.7774 21.8684 25.8923C21.7905 25.9305 21.4788 26.0282 21.4009 26.0473C21.245 26.0856 21.0892 26.1239 20.9333 26.1642C20.7775 26.2044 19.6418 26.2848 18.8099 26.0627Z" fill="#C5796D"/>
<path d="M19.0631 23.9047C19.7839 24.2685 20.1151 24.1919 20.4658 24.1536C20.8164 24.1153 21.6736 23.6749 22.2191 23.1579C22.745 22.6409 22.8424 22.3537 22.8424 22.3537C22.3554 22.258 20.9723 21.8559 20.758 21.8942C20.6021 21.9133 20.193 22.258 20.0567 22.258C19.9203 22.258 19.4527 21.9708 19.2969 21.9516C19.1216 21.9325 18.8488 22.0282 18.4397 22.1622C18.0306 22.2963 17.2709 22.3729 17.2709 22.3729C17.2709 22.3729 18.3423 23.5409 19.0631 23.9047Z" fill="#DA7C87"/>
<path d="M17.1735 22.3919C18.1281 22.6217 19.1606 22.794 20.1346 22.8323C20.4853 22.8515 20.8554 22.7749 21.2061 22.7174C21.7905 22.6217 22.4334 22.5643 22.9983 22.3728C23.0568 22.3536 23.0568 22.2387 22.9789 22.2579C22.0438 22.3728 21.0892 22.7174 20.1346 22.6791C19.1411 22.6408 18.167 22.4111 17.1735 22.3153C17.1345 22.3345 17.1345 22.3919 17.1735 22.3919Z" fill="#CB5F6C"/>
<path d="M18.2254 17.1454C18.2254 17.1454 18.167 16.6667 18.0306 16.4178C17.8943 16.1689 17.3098 15.5753 16.667 15.4604C15.7124 15.2689 14.8552 15.7859 14.8552 15.7859C14.8552 15.7859 14.8552 16.2455 15.1474 16.571C15.4202 16.8965 15.9072 17.0688 16.102 17.088C16.2968 17.1071 16.9981 17.1454 17.3683 17.088C17.6215 17.0497 17.9137 17.0497 18.0306 17.088C18.128 17.1263 18.2254 17.1454 18.2254 17.1454Z" fill="white"/>
<path d="M16.4917 15.1732C17.0761 15.1732 17.5436 15.6328 17.5436 16.2072C17.5436 16.7816 17.0761 17.2412 16.4917 17.2412C15.9072 17.2412 15.4397 16.7816 15.4397 16.2072C15.4397 15.6328 15.9072 15.1732 16.4917 15.1732Z" fill="#4E60A3"/>
<path d="M16.4916 15.2306C17.0371 15.2306 17.5047 15.671 17.5047 16.2263C17.5047 16.7816 17.0566 17.222 16.4916 17.222C15.9462 17.222 15.4786 16.7816 15.4786 16.2263C15.4786 15.671 15.9267 15.2306 16.4916 15.2306ZM16.4916 15.1349C15.8877 15.1349 15.3812 15.6327 15.3812 16.2263C15.3812 16.8199 15.8877 17.3178 16.4916 17.3178C17.0956 17.3178 17.6021 16.8199 17.6021 16.2263C17.6021 15.6136 17.0956 15.1349 16.4916 15.1349Z" fill="#253984"/>
<path d="M15.9268 16.5136C15.9268 16.7625 16.0242 16.9923 16.1995 17.1646C16.2969 17.2029 16.3943 17.2029 16.4917 17.2029C17.0372 17.2029 17.5047 16.7625 17.5047 16.2072C17.5047 15.9966 17.4463 15.8242 17.3294 15.671C17.193 15.5944 17.0372 15.5562 16.8813 15.5562C16.3553 15.5562 15.9268 15.9774 15.9268 16.5136Z" fill="#6777B2"/>
<path d="M16.4916 15.671C16.7839 15.671 17.0371 15.9199 17.0371 16.2072C17.0371 16.4944 16.7839 16.7433 16.4916 16.7433C16.1994 16.7433 15.9462 16.4944 15.9462 16.2072C15.9462 15.9199 16.1994 15.671 16.4916 15.671Z" fill="black"/>
<path d="M16.2578 15.6519C16.4137 15.6519 16.5306 15.7667 16.5306 15.9199C16.5306 16.0731 16.4137 16.188 16.2578 16.188C16.102 16.188 15.9851 16.0731 15.9851 15.9199C15.9851 15.7667 16.102 15.6519 16.2578 15.6519ZM16.7838 16.4178C16.8812 16.4178 16.9592 16.4944 16.9592 16.5901C16.9592 16.6859 16.8812 16.7625 16.7838 16.7625C16.6864 16.7625 16.6085 16.6859 16.6085 16.5901C16.6085 16.4944 16.6864 16.4178 16.7838 16.4178Z" fill="white"/>
<path d="M14.2961 16.5192C14.2961 17.8404 15.2566 18.9127 16.443 18.9127C17.6293 18.9127 18.5898 17.8404 18.5898 16.5192C18.5898 15.198 17.6293 14.1257 16.443 14.1257C15.2566 14.1257 14.2961 15.1961 14.2961 16.5192ZM14.8572 15.7954C14.8572 15.7954 15.7183 15.2765 16.6767 15.4603C17.3176 15.5829 17.8845 16.1765 18.0307 16.4235C18.1768 16.6686 18.2313 17.1549 18.2313 17.1549C18.2313 17.1549 18.1281 17.1281 18.0151 17.0937C17.904 17.0592 17.6157 17.0573 17.3547 17.1013C16.9865 17.1626 16.291 17.1358 16.0981 17.109C15.9033 17.0822 15.4182 16.9041 15.1397 16.5824C14.865 16.2588 14.8572 15.7954 14.8572 15.7954Z" fill="#F3D4CF"/>
<path d="M14.791 15.8702C14.7715 15.9506 14.7676 16.031 14.7793 16.1095C14.6682 16.1038 14.5436 16.1191 14.4695 16.1938C14.4423 16.2206 14.4715 16.257 14.5046 16.2512C14.563 16.2417 14.6176 16.2129 14.676 16.1995C14.7169 16.19 14.7579 16.1881 14.7988 16.19C14.8105 16.2302 14.8241 16.2704 14.8416 16.3106C14.8066 16.3221 14.7734 16.3374 14.7442 16.3508C14.6702 16.3834 14.5981 16.4312 14.5514 16.4963C14.5299 16.5251 14.5689 16.55 14.5942 16.5385C14.6624 16.5078 14.7267 16.4657 14.7949 16.4332C14.8241 16.4197 14.8572 16.4102 14.8903 16.3987C14.9215 16.4523 14.9585 16.5021 14.9994 16.5519C14.9195 16.5978 14.8475 16.6629 14.8241 16.7491C14.8182 16.7682 14.8416 16.7893 14.8611 16.7778C14.9312 16.7319 14.9877 16.6687 15.0481 16.6093C15.2644 16.8429 15.5683 17.0229 15.8118 17.1014C16.178 17.2201 16.5774 17.2393 16.9592 17.2201C17.3196 17.2029 17.8787 17.0018 18.2118 17.1799C18.2255 17.1876 18.2372 17.1837 18.245 17.1761L18.2508 17.1703C18.2528 17.1665 18.2547 17.1627 18.2547 17.1589C18.2547 17.1569 18.2566 17.1569 18.2566 17.1531C18.2372 16.3757 17.7424 15.7189 17.0099 15.4355C16.6047 15.2785 16.1585 15.2402 15.728 15.3034C15.2235 15.3781 14.7793 15.6213 14.2591 15.5792C14.2143 15.5753 14.1929 15.6366 14.2241 15.6634C14.3994 15.8319 14.5923 15.8798 14.791 15.8702ZM14.9215 15.8568C15.3092 15.7955 15.7222 15.5619 16.1079 15.5351C17.1073 15.4662 18.0657 16.1095 18.1924 17.1129C17.7268 16.9559 17.193 17.0938 16.7138 17.0842C16.3222 17.0765 15.9072 17.0229 15.5624 16.8276C15.1319 16.5825 15.054 16.2666 14.9215 15.8568Z" fill="black"/>
<path d="M21.771 17.1454C21.771 17.1454 21.8294 16.6667 21.9658 16.4178C22.1022 16.1689 22.6866 15.5753 23.3295 15.4604C24.284 15.2689 25.1412 15.7859 25.1412 15.7859C25.1412 15.7859 25.1412 16.2455 24.849 16.571C24.5763 16.8965 24.0892 17.0688 23.8944 17.088C23.6996 17.1071 22.9983 17.1454 22.6282 17.088C22.3749 17.0497 22.0827 17.0497 21.9658 17.088C21.8684 17.1263 21.771 17.1454 21.771 17.1454Z" fill="white"/>
<path d="M23.5049 15.1732C24.0893 15.1732 24.5568 15.6328 24.5568 16.2072C24.5568 16.7816 24.0893 17.2412 23.5049 17.2412C22.9204 17.2412 22.4529 16.7816 22.4529 16.2072C22.4529 15.6328 22.9204 15.1732 23.5049 15.1732Z" fill="#4E60A3"/>
<path d="M23.5048 15.2306C24.0503 15.2306 24.5178 15.671 24.5178 16.2263C24.5178 16.7816 24.0698 17.222 23.5048 17.222C22.9594 17.222 22.4918 16.7816 22.4918 16.2263C22.4918 15.671 22.9594 15.2306 23.5048 15.2306ZM23.5048 15.1349C22.9009 15.1349 22.3944 15.6327 22.3944 16.2263C22.3944 16.8199 22.9009 17.3178 23.5048 17.3178C24.1087 17.3178 24.6152 16.8199 24.6152 16.2263C24.6152 15.6136 24.1282 15.1349 23.5048 15.1349Z" fill="#253984"/>
<path d="M22.9399 16.5136C22.9399 16.7625 23.0373 16.9923 23.2127 17.1646C23.3101 17.2029 23.4075 17.2029 23.5049 17.2029C24.0504 17.2029 24.5179 16.7625 24.5179 16.2072C24.5179 15.9966 24.4595 15.8242 24.3426 15.671C24.2062 15.6136 24.0698 15.5562 23.8945 15.5562C23.3685 15.5562 22.9399 15.9774 22.9399 16.5136Z" fill="#6777B2"/>
<path d="M23.5048 15.671C23.797 15.671 24.0503 15.9199 24.0503 16.2072C24.0503 16.4944 23.797 16.7433 23.5048 16.7433C23.2126 16.7433 22.9594 16.4944 22.9594 16.2072C22.9594 15.9199 23.2126 15.671 23.5048 15.671Z" fill="black"/>
<path d="M23.271 15.6519C23.4269 15.6519 23.5438 15.7667 23.5438 15.9199C23.5438 16.0731 23.4269 16.188 23.271 16.188C23.1152 16.188 22.9983 16.0731 22.9983 15.9199C22.9983 15.7667 23.1347 15.6519 23.271 15.6519ZM23.797 16.4178C23.8944 16.4178 23.9723 16.4944 23.9723 16.5901C23.9723 16.6859 23.8944 16.7625 23.797 16.7625C23.6996 16.7625 23.6217 16.6859 23.6217 16.5901C23.6217 16.4944 23.6996 16.4178 23.797 16.4178Z" fill="white"/>
<path d="M23.5555 14.1257C22.3711 14.1257 21.4087 15.198 21.4087 16.5192C21.4087 17.8405 22.3691 18.9128 23.5555 18.9128C24.7419 18.9128 25.7023 17.8405 25.7023 16.5192C25.7023 15.198 24.7399 14.1257 23.5555 14.1257ZM24.8549 16.5805C24.5763 16.9022 24.0912 17.0784 23.8964 17.1071C23.7016 17.1339 23.0081 17.1626 22.6399 17.0994C22.3788 17.0554 22.0905 17.0592 21.9795 17.0918C21.8684 17.1262 21.7632 17.153 21.7632 17.153C21.7632 17.153 21.8197 16.6686 21.9639 16.4216C22.11 16.1765 22.6769 15.5829 23.3178 15.4584C24.2763 15.2746 25.1374 15.7935 25.1374 15.7935C25.1374 15.7935 25.1315 16.2588 24.8549 16.5805Z" fill="#F3D4CF"/>
<path d="M25.7724 15.6672C25.8017 15.6385 25.7802 15.5791 25.7374 15.5829C25.2153 15.6251 24.7711 15.3819 24.2685 15.3072C23.838 15.244 23.3938 15.2823 22.9867 15.4393C22.2542 15.7227 21.7574 16.3795 21.7399 17.1569C21.7399 17.1588 21.7418 17.1607 21.7418 17.1627C21.7418 17.1665 21.7438 17.1703 21.7457 17.1741L21.7516 17.1799C21.7593 17.1876 21.771 17.1914 21.7847 17.1837C22.1178 17.0056 22.6769 17.2048 23.0373 17.2239C23.4191 17.2431 23.8204 17.222 24.1847 17.1052C24.4282 17.0267 24.7322 16.8467 24.9484 16.6131C25.0088 16.6725 25.0653 16.7357 25.1354 16.7816C25.1549 16.7931 25.1783 16.774 25.1724 16.7529C25.149 16.6667 25.075 16.6016 24.9971 16.5557C25.038 16.5059 25.075 16.4561 25.1062 16.4025C25.1393 16.414 25.1724 16.4235 25.2016 16.4369C25.2698 16.4695 25.3341 16.5116 25.4023 16.5423C25.4276 16.5537 25.4666 16.5289 25.4452 16.5001C25.3965 16.435 25.3263 16.3872 25.2523 16.3546C25.2231 16.3412 25.19 16.3259 25.1549 16.3144C25.1724 16.2742 25.188 16.234 25.1978 16.1938C25.2387 16.1938 25.2796 16.1957 25.3205 16.2033C25.3789 16.2167 25.4335 16.2436 25.4919 16.255C25.525 16.2608 25.5523 16.2244 25.527 16.1976C25.453 16.1229 25.3283 16.1057 25.2172 16.1133C25.2289 16.0348 25.225 15.9544 25.2055 15.874C25.4043 15.8797 25.5971 15.8319 25.7724 15.6672ZM24.4341 16.8276C24.0893 17.0248 23.6743 17.0765 23.2828 17.0842C22.8035 17.0937 22.2678 16.9559 21.8042 17.1129C21.9308 16.1095 22.8873 15.4661 23.8886 15.5351C24.2744 15.5619 24.6873 15.7955 25.075 15.8568C24.9425 16.2665 24.8646 16.5825 24.4341 16.8276Z" fill="black"/>
<path d="M14.7188 13.8711C14.7383 13.8328 14.7968 13.8137 14.8357 13.7945C14.8747 13.7754 14.9136 13.7562 14.9526 13.7562C15.0305 13.718 15.1085 13.6797 15.1864 13.6605C15.2838 13.6414 15.4202 13.5648 15.5176 13.6222C15.8293 13.5073 16.2384 13.5839 16.5111 13.7371C16.8812 13.7754 17.2708 13.8903 17.5436 14.0818C17.5631 14.1009 17.5825 14.1201 17.5825 14.1392C17.641 14.1584 17.6799 14.1775 17.7384 14.1967C17.9332 14.2732 18.1475 14.3307 18.3423 14.4264C18.3618 14.4264 18.3813 14.4456 18.4007 14.4456C18.4592 14.4647 18.4787 14.5796 18.4397 14.5988C18.4202 14.6179 18.4202 14.6371 18.4007 14.6562C18.2449 14.7711 18.0501 14.6945 17.8942 14.6371C17.7579 14.5796 17.602 14.5222 17.5046 14.4073C17.3488 14.3498 17.2319 14.2732 17.0955 14.1967C17.076 14.1967 17.0566 14.1775 17.0371 14.1775C16.8033 14.1392 16.55 14.0435 16.3163 13.9286C16.1799 13.9094 16.063 13.8711 15.9267 13.8711C15.7513 13.852 15.576 13.9094 15.3812 13.852L15.3617 13.852C15.3227 13.8711 15.2838 13.8711 15.2448 13.8903C15.089 13.9286 14.9526 13.9669 14.7968 13.9669C14.7773 13.9669 14.7578 13.9477 14.7578 13.9286L14.7383 13.9286C14.7383 13.9286 14.6994 13.9094 14.7188 13.8711Z" fill="#2A232B"/>
<path d="M15.5954 13.5072C16.1993 13.469 16.8033 13.7945 17.3487 14.0051C17.6799 14.1391 18.3617 14.1774 18.4981 14.5795C18.5176 14.637 18.4397 14.6561 18.4007 14.6178C18.2254 14.3881 17.9332 14.3498 17.6604 14.2732C17.4266 14.1966 17.2124 14.12 16.9786 14.0242C16.511 13.8328 16.0435 13.7179 15.5565 13.603C15.537 13.5838 15.5565 13.5264 15.5954 13.5072Z" fill="#3A353A"/>
<path d="M18.693 14.5796C18.7514 14.3115 18.3423 14.2158 18.1475 14.1392C17.68 13.9477 17.193 13.7371 16.7059 13.603C16.4137 13.5264 16.102 13.469 15.8098 13.469C15.576 13.469 15.3617 13.4881 15.128 13.5647C14.7383 13.6796 14.3682 13.9094 14.037 14.1583C13.8617 14.2541 13.6864 14.3881 13.55 14.5221C13.5305 14.5413 13.55 14.5796 13.589 14.5604C13.589 14.5604 13.6084 14.5604 13.6084 14.5413C13.6084 14.5604 13.6279 14.5604 13.6474 14.5604C13.9396 14.4264 14.1929 14.2541 14.4851 14.1392C14.7773 14.0243 15.089 13.9477 15.4007 13.9285L15.5371 13.9285C15.9072 13.9285 16.2579 14.0051 16.589 14.1583C17.0566 14.3689 17.4852 14.6562 17.9527 14.8285C18.0306 14.8668 18.128 14.8668 18.2254 14.8668C18.4397 14.8668 18.654 14.7902 18.693 14.5796ZM15.8098 13.6413C16.1215 13.6413 16.4332 13.7179 16.7449 13.8137C17.1345 13.9477 17.5241 14.12 17.9138 14.2732C17.9917 14.3115 18.3813 14.4072 18.4203 14.503C18.4592 14.6179 18.3813 14.6562 18.2644 14.6753C18.206 14.6753 18.1475 14.6562 18.1086 14.6562C17.9917 14.6179 17.8748 14.5413 17.7774 14.4838C17.1735 14.1775 16.5501 13.8137 15.8682 13.7754L15.6734 13.7754C15.4591 13.7754 15.2254 13.7945 14.9916 13.8328C15.089 13.7945 15.1864 13.7562 15.3033 13.7179C15.4591 13.6605 15.6345 13.6413 15.8098 13.6413Z" fill="#1B141C"/>
<path d="M25.2776 13.8711C25.2582 13.8328 25.1997 13.8137 25.1608 13.7945C25.1218 13.7754 25.0828 13.7562 25.0439 13.7562C24.9659 13.718 24.888 13.6797 24.8101 13.6605C24.7127 13.6414 24.5763 13.5648 24.4789 13.6222C24.1672 13.5073 23.7581 13.5839 23.4854 13.7371C23.1153 13.7754 22.7256 13.8903 22.4529 14.0818C22.4334 14.1009 22.4139 14.1201 22.4139 14.1392C22.3555 14.1584 22.3165 14.1775 22.2581 14.1967C22.0633 14.2732 21.849 14.3307 21.6542 14.4264C21.6347 14.4264 21.6152 14.4456 21.5957 14.4456C21.5373 14.4647 21.5178 14.5796 21.5568 14.5988C21.5763 14.6179 21.5762 14.6371 21.5957 14.6562C21.7516 14.7711 21.9464 14.6945 22.1022 14.6371C22.2386 14.5796 22.3945 14.5222 22.4919 14.4073C22.6477 14.3498 22.7646 14.2732 22.901 14.1967C22.9204 14.1967 22.9399 14.1775 22.9594 14.1775C23.1932 14.1392 23.4464 14.0435 23.6802 13.9286C23.8166 13.9094 23.9335 13.8711 24.0698 13.8711C24.2452 13.852 24.4205 13.9094 24.6153 13.852L24.6348 13.852C24.6737 13.8711 24.7127 13.8711 24.7517 13.8903C24.9075 13.9286 25.0439 13.9669 25.1997 13.9669C25.2192 13.9669 25.2387 13.9477 25.2387 13.9286L25.2582 13.9286C25.2582 13.9286 25.2971 13.9094 25.2776 13.8711Z" fill="#2A232B"/>
<path d="M24.401 13.5072C23.7971 13.469 23.1932 13.7945 22.6477 14.0051C22.3165 14.1391 21.6347 14.1774 21.4983 14.5795C21.4788 14.637 21.5568 14.6561 21.5957 14.6178C21.771 14.3881 22.0633 14.3498 22.336 14.2732C22.5698 14.1966 22.7841 14.12 23.0178 14.0242C23.4854 13.8328 23.9529 13.7179 24.44 13.603C24.4594 13.5838 24.44 13.5264 24.401 13.5072Z" fill="#3A353A"/>
<path d="M21.7515 14.8476C21.8489 14.8476 21.9463 14.8285 22.0242 14.8093C22.4918 14.637 22.9398 14.3498 23.3879 14.1392C23.7386 13.986 24.0892 13.9094 24.4399 13.9094L24.5762 13.9094C24.8879 13.9285 25.1996 14.0051 25.4724 14.12C25.7646 14.2349 26.0373 14.4264 26.31 14.5413C26.3295 14.5413 26.349 14.5413 26.349 14.5221C26.349 14.5221 26.3685 14.5221 26.3685 14.5413C26.4075 14.5604 26.4269 14.5221 26.4075 14.503C26.2711 14.3689 26.0958 14.2349 25.9204 14.1392C25.5892 13.8902 25.2191 13.6796 24.8295 13.5456C24.6152 13.469 24.3814 13.4498 24.1477 13.4498C23.836 13.4498 23.5437 13.5073 23.2515 13.5839C22.7645 13.7179 22.2775 13.9285 21.8099 14.12C21.6346 14.1966 21.206 14.2923 21.2645 14.5604C21.3424 14.7902 21.5567 14.8668 21.7515 14.8476ZM24.7126 13.7179C24.81 13.7562 24.9269 13.7753 25.0243 13.8328C24.7905 13.7945 24.5762 13.7753 24.3425 13.7753L24.1477 13.7753C23.4658 13.8136 22.8229 14.1966 22.2385 14.4838C22.1216 14.5413 22.0242 14.6179 21.9073 14.6562C21.8684 14.6753 21.8099 14.6753 21.7515 14.6753C21.6541 14.6753 21.5567 14.637 21.5956 14.503C21.6346 14.4072 22.0242 14.3115 22.1021 14.2732C22.4918 14.12 22.8814 13.9477 23.271 13.8136C23.5827 13.7179 23.8944 13.6413 24.2061 13.6413C24.3619 13.6413 24.5373 13.6605 24.7126 13.7179Z" fill="#1B141C"/>
<path d="M19.5542 15.244C19.3983 15.8817 19.3769 16.5633 19.3067 17.2144C19.2327 17.9114 19.0963 18.6313 19.1061 19.3321C19.1061 19.3877 19.1938 19.403 19.2074 19.3455C19.3515 18.706 19.3691 18.0224 19.4373 17.3714C19.5093 16.6744 19.6418 15.9525 19.6184 15.2536C19.6184 15.2172 19.5639 15.2077 19.5542 15.244Z" fill="#C5796D"/>
<path d="M18.9678 18.9645C18.7769 19.2153 18.6171 19.4872 18.4768 19.7687C18.3872 19.9506 18.2742 20.1651 18.3346 20.3738C18.432 20.7185 18.8782 20.8257 19.1684 20.6629C19.2541 20.6132 19.2152 20.481 19.1178 20.481C18.9483 20.4791 18.7496 20.5327 18.6152 20.391C18.4515 20.2206 18.6132 19.9123 18.6853 19.74C18.7924 19.4872 18.923 19.2441 19.0243 18.9894C19.0379 18.953 18.9873 18.9396 18.9678 18.9645Z" fill="#C5796D"/>
<path d="M18.9405 20.3833C19.4665 20.345 19.5659 20.996 20.0665 21.0113C20.4951 21.0247 20.5282 20.3909 20.9354 20.4101C20.9821 20.412 20.9977 20.3469 20.9587 20.3239C20.497 20.0559 20.4113 20.8448 19.9866 20.795C19.7353 20.7662 19.5561 20.4024 19.3301 20.2971C19.1762 20.2263 19.0652 20.232 18.9152 20.299C18.8782 20.3201 18.8977 20.3871 18.9405 20.3833Z" fill="#C5796D"/>
<path d="M20.7912 20.6783C21.1379 20.7548 21.5412 20.6495 21.623 20.2704C21.6639 20.0808 21.5996 19.8932 21.4983 19.7323C21.3347 19.47 21.1224 19.2479 20.9665 18.976C20.9412 18.93 20.8749 18.953 20.873 19.0009C20.8535 19.3053 21.0834 19.516 21.247 19.7515C21.399 19.9679 21.5295 20.2666 21.2743 20.481C21.1574 20.5787 20.9353 20.5615 20.7912 20.5883C20.7444 20.5978 20.7464 20.6687 20.7912 20.6783Z" fill="#C5796D"/>
<path d="M20.4503 19.6557C20.3744 19.5216 20.1776 19.5006 20.0685 19.6078C20.0588 19.6174 20.0237 19.6614 20.014 19.6729C20.0023 19.6882 19.9769 19.7208 19.9731 19.7265C19.9614 19.7457 19.9497 19.7648 19.9399 19.784L19.9185 19.8338C19.9185 19.8318 19.9166 19.8357 19.9127 19.8433C19.901 19.8548 19.8893 19.8682 19.8795 19.8797C19.8464 19.9142 19.8133 19.9486 19.786 19.9889C19.7081 20.1095 19.7704 20.2474 19.8756 20.3239C20.0373 20.4427 20.2711 20.3469 20.3841 20.2129C20.5205 20.052 20.5575 19.8452 20.4503 19.6557Z" fill="#FBE5E2"/>
<path d="M28.3946 12.9329C28.2193 14.4073 27.8491 15.8051 27.4595 16.4944C27.4595 16.4944 27.401 13.7562 26.7387 12.4542C26.0763 11.1521 24.1282 9.65858 23.8945 8.56714C23.8945 8.56714 24.1867 9.19902 24.6347 9.4671C25.0828 9.73517 26.6413 10.9223 27.0114 11.3245C27.3816 11.7266 27.9855 12.7223 28.2387 12.8563C28.2582 12.8754 28.3361 12.8946 28.3946 12.9329ZM13.55 23.7324C13.55 23.8472 13.5111 24.1536 13.4526 24.594C13.3163 23.3303 13.0435 21.9325 13.0435 21.9325C13.0435 21.9325 7.16026 30.4533 7.93951 33.2681C8.71875 36.0828 10.2967 38.0359 10.4526 38.1891C10.6084 38.3423 11.2318 38.5529 11.5045 39.0508C11.6019 39.2423 13.55 37.3657 12.5955 35.1063C11.6604 32.8468 11.4461 31.315 12.2253 30.1278C12.3617 29.9172 12.4786 29.6874 12.5955 29.4576C12.4396 30.281 12.3033 30.932 12.2643 31.1235C12.089 31.7937 12.089 32.7511 12.5565 33.8042C13.0241 34.8574 13.7449 34.9148 13.7449 34.9148C13.4137 34.3978 13.3942 33.517 13.7059 32.5979C14.0176 31.6788 14.5241 30.7788 14.7968 29.8214C15.089 28.8257 15.2254 27.6386 14.2708 25.6663C13.7449 24.4983 13.55 23.7324 13.55 23.7324Z" fill="#221B23"/>
<path d="M23.8944 8.56714C23.8944 8.56714 20.3489 9.86921 17.5046 8.89266C14.6604 7.91611 12.8292 11.784 13.063 14.0818C13.2967 16.3795 14.8942 19.3858 13.9591 23.1005C13.024 26.8152 10.2967 29.6491 9.51742 31.2958C8.73818 32.9426 8.73818 34.6276 9.51742 35.8339C10.2967 37.0402 10.6863 37.9019 10.9006 39.1657C10.9006 39.1657 10.6084 38.4764 9.45898 37.6338C7.64724 36.3126 6.90696 34.7425 7.02385 32.2915C7.14074 29.8406 8.23167 27.9258 9.18624 25.9535C10.1213 23.9813 10.6084 21.4921 9.946 19.8453C9.28365 18.1986 8.52389 15.92 8.79662 11.8606C9.06936 7.82037 11.3486 5.65664 14.1929 4.00991C17.0371 2.36318 21.1476 2.66955 23.7581 4.25884C26.3685 5.84812 25.9789 7.26508 25.9789 7.26508C25.9789 7.26508 26.7581 6.88212 27.927 8.62459C29.0959 10.3671 28.3166 15.02 27.4789 16.4944C27.4789 16.4944 27.4205 13.7563 26.7581 12.4542C26.0958 11.1521 24.1282 9.65858 23.8944 8.56714Z" fill="#2A232B"/>
<path d="M25.375 7.36082C24.9269 7.64804 24.4594 7.64804 24.1866 7.514C23.3879 7.16934 22.745 5.98216 22.0827 5.27369C20.9723 4.08651 20.68 3.47377 18.128 3.33974C16.3163 3.244 14.8747 3.70355 14.037 4.06736C11.2707 5.69494 9.06936 7.85867 8.79662 11.8415C8.52389 15.8817 9.26417 18.1795 9.946 19.8262C10.6278 21.4729 10.1213 23.9622 9.18624 25.9344C8.25115 27.9066 7.14074 29.8214 7.02385 32.2724C6.90696 34.7233 7.66672 36.2935 9.45898 37.6147C10.6084 38.4572 10.9006 39.1465 10.9006 39.1465C10.5889 38.2849 10.1213 37.9402 9.20572 37.1168C8.27063 36.2935 7.37451 33.9766 7.56932 32.2149C7.76413 30.4533 9.45898 27.4279 10.2577 26.2025C11.0564 24.977 11.6993 22.8707 11.972 21.741C12.2448 20.6112 12.011 19.673 11.2123 17.739C10.4135 15.8051 9.98497 10.75 10.1213 9.88836C10.3356 8.29907 10.7252 7.20764 11.9525 5.94387C13.7838 4.06736 16.1604 3.78014 17.5826 3.76099C19.8813 3.74184 21.4788 5.23539 21.771 5.65665C22.0632 6.0779 23.8165 7.93526 24.2646 8.01185C24.7126 8.08844 25.823 7.36082 25.823 7.36082L25.9594 7.24593C25.9594 7.24593 26.0179 7.05445 25.9594 6.74808C25.862 6.92042 25.6672 7.16934 25.375 7.36082ZM20.4268 9.23733C20.4852 9.23733 20.5632 9.23733 20.6216 9.21818C20.6606 9.21818 20.719 9.21818 20.7775 9.19903C20.8554 9.19903 20.9528 9.17988 21.0307 9.17988C21.0697 9.17988 21.1281 9.16073 21.1866 9.16073C21.245 9.16073 21.3229 9.14159 21.3814 9.14159C21.4398 9.14159 21.4983 9.12244 21.5567 9.12244C21.6151 9.12244 21.6736 9.10329 21.732 9.10329C21.771 9.10329 21.8099 9.08414 21.8489 9.08414C21.9268 9.06499 22.0048 9.04585 22.0827 9.04585C22.1216 9.04585 22.1606 9.0267 22.1996 9.0267C22.2775 9.00755 22.3554 8.9884 22.4139 8.9884C22.4528 8.9884 22.4723 8.96925 22.4918 8.96925C22.5502 8.95011 22.6087 8.93096 22.6671 8.93096C22.6866 8.93096 22.7061 8.93096 22.7256 8.91181C22.8035 8.89266 22.8814 8.87351 22.9398 8.85437C22.9593 8.85437 22.9788 8.85437 22.9983 8.83522C23.0762 8.81607 23.1347 8.79692 23.2126 8.77777C23.6412 8.66289 23.8944 8.56715 23.8944 8.56715C23.8944 8.56715 22.9204 8.68203 21.771 7.514C21.3229 6.80553 20.5826 5.50346 19.4333 5.06306C18.1086 4.54606 13.6864 4.31629 12.1863 7.45656C10.6863 10.5968 11.6603 13.2967 12.3032 14.6179C12.9461 15.9391 13.9591 18.4667 13.9201 20.1134C13.8812 21.7793 13.4721 24.1345 13.024 25.1685C12.5759 26.2025 9.59535 29.8406 8.97195 31.5448C8.32908 33.3255 8.11479 34.5319 9.65379 36.9637C10.2382 37.9019 10.6278 38.17 10.7837 38.5146C10.5499 37.5572 10.1798 36.7913 9.51742 35.7956C8.73818 34.5893 8.73818 32.9043 9.51742 31.2575C10.2967 29.6108 13.024 26.7769 13.9591 23.0622C14.8942 19.3475 13.2967 16.3412 13.063 14.0435C12.8292 11.7457 14.6799 7.87782 17.5046 8.85437C17.8748 8.9884 18.2644 9.06499 18.6345 9.12244H18.654C18.693 9.12244 18.7319 9.14159 18.7904 9.14159C18.8683 9.14159 18.9462 9.16073 19.0242 9.16073C19.0826 9.16073 19.141 9.16073 19.18 9.17988C19.2579 9.17988 19.3359 9.19903 19.4333 9.19903H20.232C20.2904 9.25647 20.3684 9.25647 20.4268 9.23733Z" fill="#221B23"/>
<path d="M12.8488 26.2024C12.8488 26.2024 12.3423 27.4662 11.037 29.0171C9.30322 31.066 8.95256 32.3489 9.59544 33.9573C10.2383 35.5658 11.115 36.4083 11.4072 37.1168C11.6994 37.8252 11.6215 38.572 11.6215 38.572C11.6215 38.572 11.9916 37.7869 11.8358 37.1933C11.6994 36.5998 10.3942 34.5318 10.1993 33.3637C10.0045 32.1957 10.2188 30.8937 11.0176 29.7831C11.6994 28.8448 12.4981 27.5619 12.8488 26.2024ZM13.2189 26.4896C13.2189 26.4896 12.7319 28.7108 12.05 29.8214C11.3682 30.932 11.1539 32.3106 11.6604 33.4786C12.1669 34.6467 13.141 36.1785 13.0631 37.1933C13.0631 37.1933 13.7254 35.9679 13.102 34.7041C12.4786 33.4403 12.2643 31.5638 12.7708 30.2809C13.2773 29.0171 13.3358 27.3704 13.2189 26.4896Z" fill="#2A232B"/>
<path d="M18.654 9.17981C18.7125 9.17981 18.7514 9.19896 18.7904 9.19896C18.8683 9.19896 18.9463 9.2181 19.0242 9.2181C19.0826 9.2181 19.1411 9.2181 19.18 9.23725C19.258 9.23725 19.3359 9.2564 19.4333 9.2564H19.7255C19.258 9.06492 18.7125 8.75855 18.2449 8.22241C17.3099 7.09267 16.5891 6.57568 15.089 6.72886C13.589 6.88205 12.011 8.87344 12.1084 10.9606C12.2058 13.0286 12.8877 14.3498 13.3162 15.4795C13.1994 14.9817 13.1019 14.5221 13.063 14.0817C12.8487 11.7839 14.6799 7.91604 17.5047 8.89259C17.8943 9.02662 18.2644 9.10322 18.654 9.17981Z" fill="#1B141C"/>
<path opacity="0.44" d="M19.219 15.9391C19.219 15.9391 19.2774 15.537 18.5761 15.3072C18.0501 15.1349 17.4852 15.0966 17.0371 15.0966C16.589 15.0966 15.1474 15.0774 14.7773 15.1157C14.4072 15.154 13.8617 15.1923 13.6669 15.7285C13.4721 16.2646 13.7253 17.1646 14.4656 17.605C15.2059 18.0454 16.7254 18.0837 17.6995 17.7965C18.693 17.5092 19.1411 16.8391 19.219 15.9391Z" fill="white"/>
<path opacity="0.44" d="M20.7774 15.9391C20.7774 15.9391 20.719 15.537 21.4203 15.3072C21.9463 15.1349 22.5112 15.0966 22.9593 15.0966C23.4074 15.0966 24.849 15.0774 25.2191 15.1157C25.5893 15.154 26.1347 15.1923 26.31 15.7285C26.4854 16.2646 26.2516 17.1646 25.5113 17.605C24.771 18.0454 23.2515 18.0837 22.2775 17.7965C21.3034 17.5092 20.8554 16.8391 20.7774 15.9391Z" fill="white"/>
<path d="M19.2189 15.8242C19.2189 15.8242 19.8813 15.5178 20.7774 15.8242V15.9965C20.7774 15.9965 19.8229 15.8242 19.1995 15.9965L19.2189 15.8242Z" fill="#070201"/>
<path d="M16.2579 18.0454C15.4981 18.0454 14.8357 17.9114 14.4266 17.6624C13.7643 17.2603 13.511 16.5136 13.55 15.9966V15.9774H13.1019V15.6136H13.6474V15.5945C13.8812 15.1541 14.3877 15.0966 14.7189 15.0583H14.7578C14.9137 15.0392 15.2838 15.0392 15.8682 15.0392H17.0371C17.4852 15.0392 18.0501 15.0583 18.5956 15.2498C19.3164 15.4987 19.2969 15.9008 19.2774 15.9583C19.18 16.954 18.654 17.605 17.7189 17.8731C17.3098 17.988 16.8033 18.0454 16.2579 18.0454ZM15.8877 15.1732C15.3033 15.1732 14.9331 15.1732 14.7773 15.1924H14.7383C14.3682 15.2306 13.9007 15.2689 13.7253 15.7476C13.55 16.2838 13.8032 17.1263 14.4851 17.5476C14.8747 17.7773 15.4981 17.9114 16.2384 17.9114C16.7449 17.9114 17.2709 17.8539 17.6605 17.7199C18.5566 17.4518 19.0436 16.8582 19.1216 15.92C19.1216 15.8817 19.141 15.5753 18.5177 15.3647C17.9917 15.1924 17.4267 15.1732 16.9981 15.1732H15.8877ZM23.7386 18.0454C23.2126 18.0454 22.6866 17.9688 22.2775 17.8539C21.3424 17.5667 20.8164 16.9348 20.719 15.9391C20.719 15.9008 20.68 15.4796 21.4008 15.2306C21.9463 15.0583 22.5307 15.02 22.9593 15.02H24.1282C24.7126 15.02 25.0828 15.02 25.2386 15.0392H25.2776C25.6087 15.0775 26.1347 15.1158 26.349 15.5753V15.5945H26.8945V15.9583H26.4464V15.9774C26.4854 16.4944 26.2321 17.2412 25.5698 17.6433C25.1607 17.9114 24.4788 18.0454 23.7386 18.0454ZM24.1087 15.1732H22.9593C22.5307 15.1732 21.9658 15.1924 21.4398 15.3647C20.8164 15.5753 20.8359 15.8817 20.8359 15.92C20.9138 16.8774 21.4008 17.4518 22.297 17.7199C22.6866 17.8348 23.2126 17.9114 23.7191 17.9114C24.4594 17.9114 25.1022 17.7773 25.4724 17.5476C26.1542 17.1263 26.427 16.2838 26.2321 15.7476C26.0763 15.2689 25.6087 15.2306 25.2191 15.1924H25.1802C25.0633 15.1732 24.6931 15.1732 24.1087 15.1732Z" fill="#26120B"/>
<path d="M24.1283 15.0009V15.0392C24.7127 15.0392 25.0634 15.0392 25.2387 15.0583H25.2776C25.6088 15.0966 26.1153 15.1349 26.3296 15.5753L26.3491 15.5944H26.8751V15.9391H26.427V15.9774C26.466 16.4944 26.2127 17.222 25.5504 17.6241C25.1413 17.8731 24.4789 18.0071 23.7386 18.0071C23.2127 18.0071 22.6867 17.9305 22.2776 17.8156C21.3425 17.5284 20.836 16.8965 20.7386 15.92C20.7386 15.8817 20.6996 15.4796 21.4204 15.2498C21.9659 15.0774 22.5308 15.0392 22.9789 15.0392H24.1672L24.1283 15.0009ZM23.7386 17.9305C24.4789 17.9305 25.1218 17.7965 25.5114 17.5667C26.2127 17.1454 26.466 16.2838 26.2907 15.7285C26.1153 15.2306 25.6283 15.1923 25.2582 15.154H25.2192C25.0634 15.1349 24.7127 15.1349 24.1088 15.1349H22.9594C22.5308 15.1349 21.9659 15.154 21.4399 15.3264C20.8165 15.537 20.8165 15.8625 20.836 15.9008C20.9139 16.8582 21.4009 17.4518 22.3165 17.7199C22.7061 17.8731 23.2127 17.9305 23.7386 17.9305ZM24.1283 15.0009H22.9594C22.5113 15.0009 21.9464 15.02 21.4009 15.2115C20.6606 15.4604 20.6801 15.8817 20.6996 15.9391C20.797 16.9348 21.323 17.605 22.2776 17.873C22.6867 18.0071 23.2127 18.0645 23.7581 18.0645C24.4594 18.0645 25.1608 17.9496 25.6088 17.6624C26.2322 17.2795 26.5439 16.5518 26.5049 15.9774H26.953V15.5561H26.4075C26.1738 15.0966 25.6673 15.0392 25.3166 15.02H25.2776C25.0439 15.02 24.5958 15.0009 24.1283 15.0009ZM23.7386 17.8922C23.2321 17.8922 22.7256 17.8348 22.3165 17.7007C21.4204 17.4326 20.9529 16.8582 20.8749 15.92C20.8749 15.9008 20.8555 15.5944 21.4594 15.3838C21.9854 15.2115 22.5308 15.1923 22.9594 15.1923H24.1283C24.5958 15.1923 25.0439 15.1923 25.2192 15.2115H25.2582C25.6283 15.2498 26.0764 15.2881 26.2517 15.7476C26.427 16.2646 26.1738 17.1071 25.4919 17.5284C25.0634 17.7773 24.401 17.8922 23.7386 17.8922ZM15.8683 15.0583H17.0566C17.4852 15.0583 18.0697 15.0774 18.6151 15.2689C19.3164 15.4987 19.297 15.9008 19.297 15.9391C19.1996 16.9157 18.6931 17.5667 17.758 17.8348C17.3489 17.9688 16.8229 18.0262 16.2969 18.0262C15.5371 18.0262 14.8748 17.8922 14.4852 17.6433C13.8423 17.2412 13.5695 16.5135 13.6085 15.9965V15.9583H13.1604V15.6327H13.7059L13.7254 15.6136C13.9397 15.1732 14.4462 15.1349 14.7774 15.0966H14.8163C14.9332 15.0583 15.2839 15.0583 15.8683 15.0583ZM16.2579 17.9305C16.7839 17.9305 17.2904 17.8731 17.68 17.739C18.5957 17.4709 19.0632 16.8774 19.1606 15.9008C19.1606 15.8625 19.1801 15.537 18.5372 15.3264C18.0112 15.154 17.4463 15.1349 17.0177 15.1349H15.8683C15.2839 15.1349 14.9137 15.1349 14.7579 15.154L14.7384 15.1732C14.3683 15.2115 13.8812 15.2498 13.7059 15.7476C13.5306 16.2838 13.7838 17.1454 14.4852 17.5858C14.8748 17.7965 15.5371 17.9305 16.2579 17.9305ZM15.8683 15.0009C15.4008 15.0009 14.9527 15.0009 14.7579 15.02H14.7189C14.3683 15.0583 13.8618 15.0966 13.628 15.5561H13.0825V15.9774H13.5306C13.4916 16.5518 13.7838 17.2795 14.4267 17.6624C14.8748 17.9305 15.5761 18.0645 16.2774 18.0645C16.8034 18.0645 17.3294 17.9879 17.758 17.873C18.7125 17.5858 19.2385 16.9348 19.3359 15.9391C19.3359 15.9008 19.3749 15.4604 18.6346 15.2115C18.0891 15.02 17.5047 15.0009 17.0761 15.0009H15.8683ZM16.2579 17.8922C15.5956 17.8922 14.9332 17.7773 14.5046 17.5284C13.8228 17.1071 13.5695 16.2838 13.7449 15.7476C13.9007 15.2881 14.3683 15.2498 14.7384 15.2115H14.7774C14.9527 15.1923 15.4202 15.1923 15.8683 15.1923H17.0372C17.4658 15.1923 18.0307 15.2115 18.5372 15.3838C19.1411 15.5944 19.1216 15.9008 19.1216 15.92C19.0437 16.8582 18.5567 17.4326 17.68 17.7007C17.2904 17.8348 16.7839 17.8922 16.2579 17.8922Z" fill="#070201"/>
</g>
</svg>
