<svg width="537" height="537" viewBox="0 0 537 537" fill="none" xmlns="http://www.w3.org/2000/svg">
<mask id="mask0_274_569" style="mask-type:alpha" maskUnits="userSpaceOnUse" x="0" y="0" width="537" height="537">
<path d="M537 268.5C537 416.788 416.788 537 268.5 537C120.212 537 0 416.788 0 268.5C0 120.212 120.212 0 268.5 0C416.788 0 537 120.212 537 268.5Z" fill="white"/>
</mask>
<g mask="url(#mask0_274_569)">
<rect x="-67" y="-253" width="662" height="1024" fill="white"/>
<path d="M360.823 102.672C360.823 102.672 375.851 105.573 388.507 134.311C401.162 163.049 395.889 196.006 394.307 218.944C392.725 241.881 389.034 313.859 365.569 350.243C342.104 386.627 331.03 388.736 303.874 398.755C276.717 408.51 207.64 405.61 178.375 379.245C149.109 352.616 161.237 308.322 168.62 292.239C176.002 275.893 360.823 102.672 360.823 102.672Z" fill="#221B23"/>
<path d="M194.721 289.866C194.721 289.866 187.339 308.586 185.757 321.505C184.175 334.424 192.612 346.552 197.621 353.407C203.158 360.789 213.441 373.444 213.704 398.755C213.968 414.574 323.384 384.254 323.384 384.254C333.139 376.608 352.65 358.944 364.514 329.151C374.533 304.104 374.533 282.22 373.742 270.092C328.394 286.439 282.782 303.049 237.433 319.395L230.051 308.058L194.721 289.866Z" fill="#1B141C"/>
<path d="M451.256 547.719L446.774 491.034C446.774 491.034 448.62 467.305 423.572 450.695C398.525 434.085 361.878 424.066 345.795 413.256C329.712 402.446 321.539 401.392 322.066 368.699C322.593 336.006 324.439 262.446 324.439 262.446H216.868C216.868 262.446 218.714 336.006 219.241 368.699C219.768 401.392 211.595 402.446 195.512 413.256C179.429 424.066 142.782 434.085 117.734 450.695C92.6874 467.305 94.533 491.034 94.533 491.034L90.3145 547.719H451.256Z" fill="#F3D4CF"/>
<path opacity="0.65" d="M270.653 393.218C270.653 393.218 294.646 394.379 322.066 373.919C322.04 372.258 322.04 370.544 322.066 368.699C322.593 336.006 324.439 262.446 324.439 262.446H216.868C216.868 262.446 218.714 336.006 219.241 368.699C219.267 370.544 219.267 372.284 219.241 373.919C246.661 394.379 270.653 393.218 270.653 393.218Z" fill="#D4958A"/>
<path d="M201.576 432.766C215.023 440.412 232.687 446.476 247.979 447.795C249.034 447.795 249.034 446.213 248.243 445.949C240.861 443.049 232.687 441.467 225.041 439.094C217.395 436.721 209.75 433.821 201.84 431.975C201.576 431.712 201.049 432.503 201.576 432.766ZM294.382 449.113C308.356 447.531 324.175 441.203 336.303 433.821C337.094 433.294 336.567 432.239 335.776 432.503C328.921 434.876 322.066 437.776 315.211 440.149C308.356 442.522 300.974 444.103 294.119 446.74C292.8 447.004 292.8 449.113 294.382 449.113Z" fill="#D4958A"/>
<path d="M450.992 547.456L445.456 491.034C445.456 485.234 444.137 479.169 441.501 473.633C439.128 468.096 435.437 463.35 431.218 459.132C427 454.913 421.991 451.749 416.717 448.586C411.444 445.422 405.908 442.785 400.371 440.412C389.298 435.403 377.697 430.921 366.36 426.175C360.559 423.802 355.023 421.166 349.486 418.266C346.586 416.684 343.949 415.102 341.576 413.256C338.94 411.674 336.303 410.092 333.667 408.247C331.03 406.401 328.394 404.292 326.284 401.392C324.175 398.755 322.857 395.591 321.802 392.428C319.957 386.1 319.693 379.772 319.693 373.444C319.693 361.053 320.22 348.661 320.484 336.269C321.011 311.486 322.066 286.966 322.857 262.446L324.439 264.028L270.653 263.501L216.868 263.237L217.659 262.446L219.505 336.269C219.768 348.661 220.296 360.789 220.559 373.181C220.559 379.508 220.296 385.572 218.45 391.9C217.659 395.064 216.077 397.964 214.232 400.601C212.122 403.237 209.75 405.346 207.113 407.192C204.476 409.038 201.84 410.62 199.467 412.465C197.094 414.047 194.458 415.893 191.557 417.475C186.021 420.638 180.484 423.011 174.684 425.648C163.347 430.657 152.009 435.139 140.936 440.412C135.399 443.049 129.863 445.949 124.853 448.849C119.58 452.013 114.834 455.177 110.616 459.395C106.397 463.614 102.97 468.36 100.597 473.633C99.5424 476.269 98.4878 479.169 97.9604 481.806C97.4331 484.706 96.9058 487.606 97.1695 490.243V490.77L93.2147 547.456L90.5782 544.556L180.22 544.819C210.013 544.819 240.07 545.083 270.126 545.347L360.296 546.137L450.992 547.456ZM451.52 547.983L361.878 549.038L271.708 549.829C241.652 550.092 211.331 550.356 181.011 550.356L90.3145 550.62H87.4143L87.678 547.719L92.1601 491.034V491.298C91.8964 477.851 97.9604 465.46 107.188 456.232C111.67 451.75 117.207 448.058 122.48 444.895C127.753 441.731 133.554 439.094 139.09 436.458C150.427 431.185 162.028 426.702 173.365 422.22C178.902 419.847 184.702 417.475 189.976 414.574C192.612 413.256 194.985 411.674 197.885 409.829C200.522 408.247 203.158 406.665 205.531 404.819C207.904 403.237 210.277 401.128 211.859 399.019C213.704 396.646 215.023 394.009 215.814 391.373C217.395 385.836 217.923 379.508 217.923 373.444C217.923 361.316 217.659 348.925 217.395 336.533L215.814 262.71V261.919H216.605L270.39 261.655L324.175 261.128H325.757V262.71C325.493 287.23 325.23 312.013 324.702 336.533C324.439 348.925 324.175 361.316 324.175 373.444C324.439 379.508 324.702 385.573 326.284 391.109C327.075 394.009 328.394 396.382 329.975 398.755C331.557 400.864 333.667 402.974 336.303 404.556C338.676 406.137 341.313 407.983 343.949 409.565C346.586 411.411 348.959 412.992 351.595 414.311C356.868 417.211 362.405 419.847 368.205 422.22C379.542 426.966 390.879 431.712 402.217 436.985C407.753 439.621 413.29 442.522 418.563 445.686C423.836 448.849 429.109 452.54 433.591 457.023C442.556 465.987 448.356 478.379 447.829 491.298V491.034L451.52 547.983ZM154.119 546.928L159.128 510.544L159.392 546.928H154.119ZM387.716 546.928L382.706 510.544L382.443 546.928H387.716Z" fill="#C5796D"/>
<path d="M329.712 549.038L336.831 478.379C336.831 478.379 299.128 520.563 270.917 528.736C270.917 528.736 227.414 504.217 201.576 478.379L211.859 549.038H329.712Z" fill="#EFEFEF"/>
<path d="M337.358 477.588C336.831 477.06 336.303 477.324 335.776 477.588C326.19 487.702 316.069 497.295 305.456 506.326C300.183 510.808 294.646 515.026 288.846 518.981C283.045 522.672 276.981 526.1 270.653 528.209C264.589 524.782 258.525 521.09 252.461 517.136C246.397 513.181 240.597 509.226 234.797 505.008C223.196 496.571 212.122 487.606 202.104 477.588C201.84 477.324 201.576 477.324 201.313 477.324C200.785 477.324 200.522 477.851 200.522 478.379C202.104 490.243 203.685 501.844 205.267 513.708C206.849 525.573 208.431 537.173 210.277 549.038C210.277 549.565 211.068 550.092 211.595 550.092H241.388L270.917 549.829L300.446 549.565L329.712 549.038L333.93 513.972L337.885 478.379C337.885 478.115 337.621 477.851 337.358 477.588ZM332.348 513.181L329.448 548.774L299.655 548.247L270.126 547.983L240.597 547.719H212.386C210.804 536.382 208.959 525.045 207.377 513.445C205.795 502.635 204.213 491.825 202.367 481.015C212.122 490.243 222.932 498.416 233.742 506.062C239.542 510.281 245.606 514.235 251.67 517.927C257.734 521.618 263.799 525.573 270.126 529.264H270.39C277.245 527.155 283.309 523.991 289.373 520.3C295.437 516.608 300.974 512.39 306.51 508.171C312.047 503.689 317.32 499.207 322.33 494.198C326.548 490.243 330.766 485.761 334.721 481.542C334.194 492.089 333.403 502.635 332.348 513.181Z" fill="#B88400"/>
<path d="M206.586 411.674C206.586 411.674 209.75 401.919 211.068 394.8C212.65 387.682 212.122 370.281 212.122 370.281C212.122 370.281 207.113 381.09 199.994 387.154C192.876 393.218 165.192 411.147 165.192 411.147L171.256 415.365C171.256 415.365 106.397 438.303 101.915 441.467C97.4331 444.631 96.9058 451.222 96.9058 451.222L91.3691 452.804C80.5593 497.098 80.5593 549.301 80.5593 549.301H224.25C224.25 549.301 218.186 505.535 215.55 488.661C213.177 471.524 206.586 411.674 206.586 411.674ZM450.992 452.54L445.456 450.959C445.456 450.959 444.928 444.367 440.446 441.203C435.964 438.04 371.105 415.102 371.105 415.102L377.169 410.883C377.169 410.883 349.75 392.955 342.367 386.891C335.249 380.827 330.239 370.017 330.239 370.017C330.239 370.017 329.712 387.418 331.294 394.537C332.876 401.655 335.776 411.411 335.776 411.411C335.776 411.411 329.185 470.996 326.548 487.87C323.911 504.744 317.847 548.51 317.847 548.51H461.539C461.539 549.038 461.539 497.098 450.992 452.54Z" fill="#E7B22B"/>
<path d="M376.906 440.94C372.16 435.93 365.832 432.503 360.559 427.757C355.286 423.011 351.068 417.475 346.322 412.202C345.795 411.674 344.74 412.465 345.267 412.993C348.695 419.584 353.441 425.384 358.714 430.657C363.196 435.139 368.996 440.94 375.324 443.049C361.614 468.096 353.177 498.944 350.013 527.154C350.013 527.682 350.804 527.945 351.068 527.418C354.232 512.917 356.868 498.416 361.35 484.179C365.569 469.942 372.16 456.759 377.433 442.785C377.697 442.522 377.433 442.258 377.169 441.994C377.433 441.731 377.169 441.467 376.906 440.94ZM371.633 409.565C366.096 406.401 360.296 403.765 355.023 400.074C349.222 396.119 343.949 391.373 338.94 386.364C338.412 385.836 337.885 386.627 338.412 386.891C346.586 397.173 358.186 407.456 371.105 410.883C371.896 411.411 372.424 410.092 371.633 409.565ZM421.463 437.249C406.435 430.921 390.879 425.121 375.324 420.375C374.797 420.111 374.533 420.902 375.06 421.166C384.288 425.648 393.78 429.866 403.271 433.821C415.399 438.831 430.164 441.994 436.755 454.386C437.282 455.441 438.864 454.65 438.601 453.595C437.019 444.367 429.373 440.413 421.463 437.249ZM446.51 459.396C446.247 458.341 444.665 458.605 444.665 459.659C446.51 473.896 449.674 487.606 451.256 501.844C452.838 516.081 452.311 530.582 454.156 544.556C454.156 545.61 455.474 545.61 455.738 544.556C458.902 518.454 454.684 484.443 446.51 459.396ZM202.367 414.838C203.685 412.202 203.949 409.038 204.476 406.138C205.267 402.974 206.322 399.81 207.113 396.646C207.377 396.119 206.586 395.855 206.322 396.382C204.476 399.019 203.422 401.919 202.104 404.819C201.049 407.719 199.731 411.147 199.994 414.311C200.258 415.365 201.84 416.156 202.367 414.838ZM201.576 419.057C201.576 418.793 201.049 418.793 201.049 419.057C200.785 436.194 204.213 453.859 206.849 470.996C209.486 489.716 212.386 508.699 217.395 527.154C217.395 527.418 217.659 527.154 217.659 527.154C215.814 509.753 212.913 492.616 210.277 475.478C207.113 457.023 206.322 437.512 201.576 419.057ZM188.13 419.057C180.748 427.23 173.893 434.612 164.928 440.94C163.874 441.731 164.137 443.313 165.192 443.576C168.883 455.177 174.156 465.987 177.847 477.588C181.539 489.452 183.911 501.844 187.075 513.708C187.339 514.499 188.394 514.235 188.394 513.444C187.075 490.507 179.957 462.823 167.565 443.049C176.266 436.985 184.702 429.339 189.712 420.111C189.712 419.057 188.657 418.266 188.13 419.057ZM102.179 448.322C105.606 463.35 112.461 478.379 117.734 492.88C117.998 493.67 119.053 493.407 119.053 492.616C116.153 477.851 112.198 460.45 104.288 447.531C103.234 446.477 101.915 447.267 102.179 448.322Z" fill="#FFCD4E"/>
<path d="M219.768 497.362C218.977 491.561 218.186 486.024 217.395 480.224C214.495 457.55 211.595 434.612 208.431 411.938C209.486 408.774 210.277 405.347 211.068 402.183C211.331 401.392 211.595 400.601 211.595 399.81C212.386 398.755 213.968 396.91 215.023 394.537C216.605 390.846 217.923 384.518 218.186 378.19C218.45 371.863 218.186 365.535 218.186 365.535C218.186 365.535 211.859 368.435 211.595 370.281C209.222 375.026 206.586 379.245 203.158 383.2C199.994 387.154 195.512 390.055 191.294 393.218C183.384 398.755 175.475 404.028 167.038 409.038C166.247 409.565 165.456 409.829 164.665 410.356L164.401 410.62C163.874 411.147 164.137 411.938 164.665 412.202C165.719 412.993 166.774 413.783 167.829 414.311L168.356 414.838C155.701 419.057 143.045 423.275 130.39 427.757C123.798 430.13 116.944 432.503 110.352 435.139L105.343 437.249L102.706 438.303C101.915 438.831 100.861 439.094 100.07 439.885C98.2241 441.203 96.9058 443.049 96.1149 444.895C95.5876 446.213 95.0603 447.795 94.7966 449.113L90.5782 450.168C89.7872 450.431 89.2599 450.959 88.9962 451.75C85.3051 467.569 83.1959 483.915 81.6139 499.998C81.0866 508.171 80.2957 516.081 80.2957 524.254C80.2957 528.209 80.032 532.428 80.032 536.382V548.51L151.218 550.092L187.603 550.62C199.731 550.883 211.859 550.883 223.987 550.883H224.514C226.096 550.62 227.151 549.301 226.887 547.719L222.141 513.444L219.768 497.362ZM80.823 548.774C81.0866 548.51 80.823 547.983 81.0866 547.456V545.874L81.3503 542.974L81.6139 536.91C81.8776 532.955 82.1412 528.736 82.6685 524.782C83.4595 516.608 84.2505 508.699 85.3051 500.789C86.3597 492.879 87.678 484.706 88.9962 476.797C90.3145 469.151 91.8964 461.768 93.742 454.386L97.9604 453.331H98.2241C99.5424 456.495 101.124 459.659 102.179 463.087L104.552 468.887L106.661 474.951C109.298 482.861 111.67 491.034 113.516 499.207C115.625 507.38 117.207 515.554 118.789 523.991C119.58 528.209 120.107 532.428 120.635 536.646C121.162 540.337 121.689 544.292 121.953 548.247L80.823 548.774ZM188.921 546.665L153.328 547.192L121.689 547.983C121.689 539.81 121.162 531.637 120.107 523.727C119.053 515.29 117.471 506.853 115.625 498.68C113.516 490.507 111.143 482.333 107.979 474.424C105.343 467.041 101.915 460.186 97.9604 453.331C98.4878 453.068 99.0151 452.277 99.0151 451.75C99.2787 448.849 100.597 445.686 102.706 444.104C103.234 443.576 103.761 443.576 104.552 443.049L106.925 441.994L111.934 439.885L131.708 432.239L171.256 417.211C174.42 418.793 177.847 420.111 181.539 421.166C180.22 422.22 178.902 423.539 177.584 424.593C174.42 427.23 170.992 429.866 167.829 432.503C164.401 434.876 160.974 437.249 157.546 439.358C156.492 439.885 156.228 441.203 156.492 442.258C159.919 450.959 163.347 459.659 166.51 468.36C169.674 477.06 172.574 486.025 175.738 494.989C178.638 503.953 181.275 512.917 183.911 521.881C186.284 530.055 188.13 538.492 190.239 546.928C189.712 546.665 189.448 546.665 188.921 546.665ZM190.503 546.665C189.712 537.964 188.657 529.527 187.075 521.09C185.23 511.863 183.121 502.635 180.484 493.407C177.847 484.179 174.947 475.215 171.783 466.251C168.62 458.077 165.456 449.904 161.765 441.731C164.928 439.622 167.565 437.512 170.465 435.139C173.629 432.503 176.793 429.603 179.957 426.439C186.021 420.375 191.821 414.311 197.094 407.719C192.085 412.202 187.339 416.42 182.33 420.638C179.166 418.266 176.002 416.42 172.574 414.574C172.574 414.574 172.574 414.311 172.311 414.311L169.411 412.465C168.883 412.202 168.356 411.674 167.565 411.411C167.829 411.147 168.092 411.147 168.356 410.883C176.266 405.61 184.175 400.073 192.085 394.537C196.303 391.373 200.785 388.473 204.476 384.518C207.113 381.354 209.486 377.927 211.595 374.499C211.595 380.299 211.331 386.1 210.804 391.637C210.277 395.064 209.486 398.228 208.431 401.655C207.377 405.083 206.322 408.247 205.267 411.674V412.202C207.377 435.139 210.013 458.077 212.65 481.015C213.177 486.815 213.968 492.616 214.759 498.153L217.132 515.29L221.614 546.401C211.068 546.401 200.785 546.401 190.503 546.665ZM461.802 524.782C461.539 516.608 461.011 508.699 460.22 500.525C458.902 484.443 456.529 468.096 452.838 452.277C452.574 451.486 452.047 450.959 451.256 450.695L447.038 449.64C446.774 448.058 446.51 446.74 445.719 445.422C444.928 443.576 443.61 441.731 441.765 440.412C440.974 439.622 439.919 439.358 438.864 438.831L436.228 437.776L431.218 435.667C424.627 433.03 417.772 430.657 411.181 428.284C398.525 423.802 385.87 419.584 373.215 415.365L373.742 414.838C374.797 414.047 375.851 413.52 376.906 412.729C377.433 412.465 377.697 411.674 377.169 411.147C377.169 410.883 376.906 410.883 376.906 410.883C376.115 410.356 375.324 409.829 374.533 409.565C366.36 404.556 358.186 399.283 350.54 393.746C346.322 390.582 341.84 387.682 338.676 383.727C335.249 379.772 332.612 375.29 330.239 370.808C330.239 370.544 329.976 370.544 329.976 370.544C328.657 368.962 323.648 367.644 323.648 367.644C323.384 375.29 323.384 387.154 324.966 393.218C326.021 397.701 329.712 402.71 331.294 405.083C332.085 407.719 332.612 410.356 333.403 412.729C330.239 435.403 327.339 458.077 324.439 481.015C323.648 486.815 322.857 492.352 322.066 498.153L319.429 515.29L314.684 549.565C314.42 551.147 315.475 552.465 317.056 552.729H317.584C329.712 552.729 341.84 552.729 353.968 552.465L390.352 551.938L461.539 550.356C461.802 549.565 461.539 549.038 461.802 548.774V538.228C462.066 532.691 462.066 528.736 461.802 524.782ZM321.011 546.137L325.493 515.026L327.866 497.889C328.657 492.089 329.448 486.552 329.976 480.751C332.612 457.814 334.985 434.876 337.358 411.938V411.411C336.303 408.247 335.249 404.819 334.194 401.392C333.403 397.964 332.348 394.8 331.821 391.373C331.294 385.836 331.03 380.036 331.03 374.235C333.139 377.927 335.512 381.09 338.149 384.254C341.576 388.473 346.322 391.373 350.54 394.273C358.45 399.81 366.36 405.083 374.269 410.62C374.533 410.883 374.797 410.883 375.06 411.147C374.533 411.411 374.006 411.938 373.215 412.202L370.315 414.047L370.051 414.311C366.623 416.156 363.46 418.002 360.296 420.375C355.286 416.156 350.277 411.938 345.531 407.456C350.804 414.047 356.605 420.375 362.669 426.175C365.569 429.075 368.733 431.976 372.16 434.876C375.06 437.249 377.697 439.358 380.861 441.467C377.169 449.64 374.006 457.55 370.842 465.987C367.678 474.951 364.514 483.915 362.141 493.143C359.505 502.107 357.395 511.599 355.55 520.827C353.968 529.264 352.65 537.964 352.122 546.401C341.576 546.401 331.294 546.401 321.011 546.137ZM389.034 547.192L353.441 546.665H352.122C354.232 538.228 356.077 530.055 358.45 521.618C360.823 512.654 363.723 503.426 366.623 494.725C369.524 485.761 372.424 476.797 375.851 468.096C379.015 459.396 382.443 450.431 386.134 441.994C386.661 440.94 386.134 439.622 385.079 439.094C381.652 437.249 378.224 434.876 374.797 432.239C371.369 429.866 368.205 427.23 365.041 424.33C363.723 423.275 362.405 421.957 361.087 420.902C364.514 419.847 367.942 418.266 371.369 416.947L410.917 431.976L430.691 439.621L435.701 441.731L438.073 442.785C438.864 443.049 439.392 443.313 439.919 443.84C442.028 445.422 443.347 448.586 443.61 451.486C443.61 452.277 444.137 452.804 444.665 453.068C440.974 459.923 437.546 466.778 434.646 474.16C431.482 482.07 429.109 490.243 427 498.416C425.154 506.589 423.309 515.026 422.518 523.463C421.463 531.637 420.936 539.546 420.936 547.719L389.034 547.192ZM420.672 547.983C421.2 544.028 421.463 540.337 422.254 536.382C422.782 532.164 423.573 527.945 424.1 523.727C425.682 515.29 427.264 507.117 429.109 498.944C430.955 490.77 433.328 482.597 435.964 474.687L438.073 468.623L440.446 462.823C441.501 459.659 443.083 456.495 444.401 453.068H444.665L448.883 454.122C450.465 461.505 452.311 468.887 453.629 476.533C454.947 484.443 456.266 492.352 457.32 500.525C458.375 508.435 459.166 516.608 459.693 524.518C459.957 528.473 460.484 532.691 460.748 536.646L461.011 542.71L461.275 545.61V547.192C461.275 547.719 461.275 548.247 461.539 548.51L420.672 547.983Z" fill="#B88400"/>
<path d="M179.166 238.981C179.166 238.981 174.947 227.644 170.729 220.525C166.51 213.407 160.183 203.652 156.228 201.015C152.273 198.379 149.373 199.697 150.427 206.288C151.746 212.879 156.491 234.499 157.81 241.09C159.128 247.682 162.292 261.919 166.247 271.411C170.201 280.638 172.311 285.12 176.002 272.729C179.957 260.337 182.066 246.891 179.166 238.981Z" fill="#F3D4CF"/>
<path d="M189.185 250.582C189.185 254.537 187.075 268.247 183.648 276.947C180.484 279.848 172.047 282.22 171.783 282.22C171.52 282.22 171.256 282.22 170.992 281.957C169.938 281.429 169.147 280.375 168.62 279.584C168.092 278.793 167.565 277.738 167.301 276.947C166.51 275.102 165.719 273.52 164.928 271.674C163.61 267.983 162.292 264.292 161.237 260.337C159.128 252.691 157.546 244.782 156.228 237.136C154.646 229.49 153.328 221.58 151.482 213.934L150.164 208.134C149.637 206.288 149.109 204.179 149.637 201.806C149.9 200.751 150.427 199.433 150.955 198.906C151.746 198.379 152.537 198.115 153.328 198.379C154.91 198.642 170.201 200.488 171.52 201.542C179.957 204.97 189.448 222.635 189.185 250.582ZM169.147 219.207C167.301 216.307 165.192 213.407 163.083 210.507C160.974 207.606 159.128 204.97 156.755 202.861C155.701 201.806 154.382 201.015 153.328 200.751C152.273 200.488 151.218 201.015 150.955 202.333C150.691 203.915 150.955 205.761 151.218 207.606C151.482 209.452 152.009 211.561 152.273 213.407C153.855 221.053 155.701 228.699 157.546 236.345C159.392 243.991 161.237 251.637 163.346 259.019C164.401 262.71 165.719 266.401 167.038 269.829C167.829 271.411 168.356 273.256 169.147 274.838C169.411 275.629 169.938 276.42 170.201 276.947C170.465 277.475 170.992 278.002 171.256 278.266C171.52 278.266 171.52 278.266 172.047 278.002C172.311 277.738 172.311 277.738 172.574 277.211C172.838 276.947 172.838 276.684 173.102 276.156C173.893 274.838 174.42 272.993 174.947 271.411C176.002 267.983 177.056 264.556 177.847 261.128C178.638 257.701 179.429 254.009 179.957 250.318C180.22 246.627 180.22 242.409 178.902 238.981C176.266 231.863 173.102 225.008 169.147 219.207Z" fill="#E4B3AB"/>
<path d="M152.273 208.134C160.183 216.834 166.51 231.599 167.565 245.309C167.565 246.363 166.774 246.363 166.51 245.572C166.247 244.254 165.983 242.936 165.719 241.881C164.928 240.036 163.874 239.772 162.292 241.354C162.292 242.409 162.556 243.463 162.819 244.518C163.083 245.836 163.61 247.418 164.137 248.736C165.456 251.9 167.038 254.537 168.62 257.437C168.883 257.964 168.62 259.019 168.092 258.492C164.401 255.328 160.446 246.627 160.71 240.563C160.71 238.717 161.237 236.872 162.819 236.872C163.61 236.872 164.401 237.136 164.928 237.927C162.028 227.117 158.337 218.153 152.009 209.188C151.482 208.397 151.746 207.606 152.273 208.134Z" fill="#D4958A"/>
<path d="M362.141 238.981C362.141 238.981 366.36 227.644 370.578 220.525C374.797 213.407 381.124 203.652 385.079 201.015C389.034 198.379 391.934 199.96 390.616 206.552C389.298 213.143 384.552 234.763 383.233 241.354C381.915 247.945 378.751 262.183 374.797 271.674C370.842 280.902 368.733 285.384 365.041 272.992C361.35 260.337 359.241 246.891 362.141 238.981Z" fill="#F3D4CF"/>
<path d="M369.787 201.542C371.105 200.488 386.397 198.642 387.979 198.379C388.77 198.379 389.561 198.379 390.352 198.906C391.143 199.433 391.67 200.488 391.67 201.806C391.934 204.179 391.407 206.288 391.143 208.134L389.825 213.934C387.979 221.58 386.661 229.226 385.079 237.136C383.761 244.782 382.179 252.691 380.07 260.337C379.015 264.028 377.96 267.983 376.378 271.674C375.588 273.52 375.06 275.365 374.006 276.947C373.478 277.738 373.215 278.793 372.687 279.584C372.16 280.375 371.369 281.429 370.314 281.957C370.051 281.957 369.787 282.22 369.523 282.22C369.26 282.22 360.823 279.847 357.659 276.947C354.232 268.247 352.386 254.537 352.122 250.582C351.859 222.635 361.35 204.97 369.787 201.542ZM362.141 238.981C360.823 242.672 360.823 246.627 361.087 250.318C361.35 254.009 362.141 257.701 363.196 261.128C363.987 264.556 365.041 267.983 366.096 271.411C366.623 272.992 367.151 274.838 367.942 276.156C368.205 276.42 368.205 276.947 368.469 277.211C368.733 277.475 368.733 277.738 368.996 278.002C369.26 278.266 369.523 278.529 369.787 278.266C370.051 278.002 370.314 277.738 370.842 276.947C371.369 276.42 371.633 275.629 371.896 274.838C372.687 273.256 373.478 271.411 374.006 269.829C375.324 266.401 376.642 262.71 377.697 259.019C379.806 251.637 381.652 243.991 383.497 236.345C385.343 228.699 387.188 221.053 388.77 213.407C389.034 211.561 389.561 209.452 389.825 207.606C390.088 205.761 390.352 203.652 390.088 202.333C389.825 200.751 388.77 200.488 387.716 200.751C386.661 201.015 385.343 201.806 384.288 202.861C382.179 204.97 380.07 207.87 377.96 210.507C375.851 213.407 374.006 216.307 371.896 219.207C368.205 225.008 365.041 231.863 362.141 238.981Z" fill="#E4B3AB"/>
<path d="M389.034 208.134C381.124 216.834 374.797 231.599 373.742 245.309C373.742 246.363 374.533 246.363 374.797 245.572C375.06 244.254 375.324 242.936 375.588 241.881C376.378 240.036 377.433 239.772 379.015 241.354C379.015 242.409 378.751 243.463 378.488 244.518C378.224 245.836 377.697 247.418 377.169 248.736C375.851 251.9 374.269 254.537 372.687 257.437C372.424 257.964 372.687 259.019 373.215 258.492C376.906 255.328 380.861 246.627 380.597 240.563C380.597 238.717 380.07 236.872 378.488 236.872C377.697 236.872 376.906 237.136 376.378 237.927C379.279 227.117 382.97 218.153 389.298 209.188C389.825 208.397 389.561 207.606 389.034 208.134Z" fill="#D4958A"/>
<path d="M378.751 194.16C375.588 119.019 327.049 79.4445 270.891 79.4445C214.733 79.4445 165.719 119.283 162.556 194.16C162.556 194.16 161.501 262.446 176.793 292.503C214.759 367.38 270.706 363.557 270.706 363.557C270.706 363.557 326.548 367.38 364.514 292.503C379.806 262.446 378.751 194.16 378.751 194.16Z" fill="#F3D4CF"/>
<path d="M364.514 292.503C379.806 262.446 378.989 194.107 378.989 194.107C375.825 118.966 326.812 77.8889 270.653 77.8889C214.495 77.8889 165.719 119.283 162.556 194.16C162.556 194.16 161.501 262.446 176.793 292.503C214.759 367.38 270.653 365.008 270.653 365.008C270.653 365.008 326.548 367.38 364.514 292.503ZM254.571 358.864C249.298 357.52 244.024 355.411 238.751 353.011C228.469 348.213 219.241 341.279 211.068 333.29C206.849 329.283 203.158 325.011 199.467 320.503C199.467 320.503 191.03 308.77 189.185 306.371C188.394 305.026 187.603 303.972 186.812 302.627C186.021 301.283 185.23 300.228 184.439 298.883L179.693 290.341C179.693 290.341 177.32 284.751 176.793 283.407C176.266 282.062 175.738 280.744 175.475 279.136C174.947 277.791 174.684 276.209 174.156 274.864C172.574 269.275 171.256 263.396 170.201 257.542C169.147 251.689 168.092 245.81 167.565 239.667C165.983 227.67 165.192 215.674 164.665 203.414V194.608L164.928 190.073C164.928 188.465 165.192 187.147 165.192 185.539C165.456 182.612 165.983 179.686 166.247 176.469C166.51 174.861 166.774 173.542 167.038 171.934C167.038 171.934 167.829 168.48 168.092 167.663C170.729 155.93 174.684 144.461 180.748 134.337C182.066 131.674 183.911 129.275 185.493 126.876L188.13 123.422C188.921 122.367 189.976 121.023 191.03 119.968C194.721 115.433 198.94 111.162 203.422 107.444C212.386 99.9831 222.669 94.3673 233.478 90.3861C244.288 86.6422 255.625 84.7966 267.226 84.533C273.026 84.2693 296.228 87.4595 297.019 87.7232C309.964 90.9398 322.593 97.0565 332.085 103.463C334.458 105.072 336.83 106.917 338.94 108.789L342.367 111.716L345.531 114.642C349.749 118.913 353.441 123.448 356.868 128.247C357.659 129.591 361.878 135.708 361.878 135.708C362.669 137.053 366.096 143.697 366.096 143.697C367.414 146.36 368.469 149.286 369.787 151.976C370.842 154.902 371.896 157.565 372.687 160.518C373.742 163.444 374.269 166.371 375.06 169.324C375.324 170.932 376.906 178.13 376.906 178.13L377.644 183.245C377.908 184.853 378.119 190.469 378.119 190.469L378.277 192.921C378.277 192.921 378.25 216.07 377.459 225.403C376.669 234.736 376.115 243.226 374.533 252.559C373.742 257.094 372.687 261.893 371.633 266.428C370.578 270.962 369.26 275.497 367.678 279.768C366.096 284.04 364.514 288.311 362.405 292.292L358.977 298.145C357.923 300.281 356.604 302.153 355.286 303.998C350.277 311.723 344.74 318.921 338.676 325.591C332.612 332.262 326.021 338.379 318.902 343.731C315.211 346.394 311.52 348.793 307.829 350.928C303.874 353.064 299.919 354.936 295.964 356.518C294.91 357.045 290.691 358.39 289.637 358.654C287.527 359.181 285.418 359.708 283.309 360.262C281.2 360.815 265.829 361.923 254.571 358.864Z" fill="#C5796D"/>
<path d="M257.998 329.151C267.753 334.16 272.235 333.105 276.981 332.578C281.727 332.051 293.328 325.987 300.71 318.868C307.829 311.75 309.147 307.795 309.147 307.795C302.556 306.476 283.836 300.94 280.936 301.467C278.827 301.731 273.29 306.476 271.444 306.476C269.599 306.476 263.271 302.522 261.162 302.258C258.789 301.994 255.098 303.313 249.561 305.158C244.024 307.004 233.742 308.058 233.742 308.058C233.742 308.058 248.243 324.141 257.998 329.151Z" fill="#DA7C87"/>
<path d="M232.424 308.322C245.343 311.486 259.316 313.859 272.499 314.386C277.245 314.65 282.254 313.595 287 312.804C294.91 311.486 303.61 310.695 311.256 308.058C312.047 307.795 312.047 306.213 310.992 306.476C298.337 308.058 285.418 312.804 272.499 312.277C259.053 311.75 245.87 308.586 232.424 307.267C231.896 307.531 231.896 308.322 232.424 308.322Z" fill="#CB5F6C"/>
<path d="M246.661 236.081C246.661 236.081 245.87 229.49 244.024 226.062C242.179 222.635 234.269 214.461 225.569 212.88C212.65 210.243 201.049 217.362 201.049 217.362C201.049 217.362 201.049 223.689 205.004 228.171C208.695 232.654 215.286 235.026 217.923 235.29C220.559 235.554 230.051 236.081 235.06 235.29C238.488 234.763 242.443 234.763 244.024 235.29C245.343 235.817 246.661 236.081 246.661 236.081Z" fill="white"/>
<path d="M223.196 208.925C231.105 208.925 237.433 215.252 237.433 223.162C237.433 231.072 231.105 237.399 223.196 237.399C215.286 237.399 208.959 231.072 208.959 223.162C208.959 215.252 215.286 208.925 223.196 208.925Z" fill="#4E60A3"/>
<path d="M223.196 209.716C230.578 209.716 236.906 215.78 236.906 223.426C236.906 231.072 230.842 237.136 223.196 237.136C215.814 237.136 209.486 231.072 209.486 223.426C209.486 215.78 215.55 209.716 223.196 209.716ZM223.196 208.397C215.023 208.397 208.168 215.252 208.168 223.426C208.168 231.599 215.023 238.454 223.196 238.454C231.369 238.454 238.224 231.599 238.224 223.426C238.224 214.989 231.369 208.397 223.196 208.397Z" fill="#253984"/>
<path d="M215.55 227.38C215.55 230.808 216.868 233.972 219.241 236.345C220.559 236.872 221.878 236.872 223.196 236.872C230.578 236.872 236.906 230.808 236.906 223.162C236.906 220.262 236.115 217.889 234.533 215.78C232.687 214.725 230.578 214.198 228.469 214.198C221.35 214.198 215.55 219.998 215.55 227.38Z" fill="#6777B2"/>
<path d="M223.196 215.78C227.151 215.78 230.578 219.207 230.578 223.162C230.578 227.117 227.151 230.544 223.196 230.544C219.241 230.544 215.814 227.117 215.814 223.162C215.814 219.207 219.241 215.78 223.196 215.78Z" fill="black"/>
<path d="M220.032 215.516C222.141 215.516 223.723 217.098 223.723 219.207C223.723 221.316 222.141 222.898 220.032 222.898C217.923 222.898 216.341 221.316 216.341 219.207C216.341 217.098 217.923 215.516 220.032 215.516ZM227.151 226.062C228.469 226.062 229.524 227.117 229.524 228.435C229.524 229.753 228.469 230.808 227.151 230.808C225.832 230.808 224.778 229.753 224.778 228.435C224.778 227.117 225.832 226.062 227.151 226.062Z" fill="white"/>
<path d="M193.482 227.459C193.482 245.652 206.48 260.416 222.537 260.416C238.593 260.416 251.591 245.652 251.591 227.459C251.591 209.267 238.593 194.503 222.537 194.503C206.48 194.503 193.482 209.241 193.482 227.459ZM201.075 217.493C201.075 217.493 212.729 210.348 225.701 212.879C234.375 214.567 242.047 222.74 244.024 226.141C246.002 229.516 246.74 236.213 246.74 236.213C246.74 236.213 245.343 235.844 243.814 235.369C242.311 234.895 238.409 234.868 234.876 235.475C229.893 236.318 220.48 235.949 217.87 235.58C215.234 235.211 208.669 232.759 204.898 228.33C201.181 223.874 201.075 217.493 201.075 217.493Z" fill="#F3D4CF"/>
<path d="M200.179 218.522C199.915 219.629 199.862 220.736 200.021 221.817C198.518 221.738 196.83 221.949 195.829 222.977C195.459 223.347 195.855 223.847 196.303 223.768C197.094 223.637 197.832 223.241 198.623 223.057C199.177 222.925 199.731 222.898 200.284 222.925C200.443 223.478 200.627 224.032 200.864 224.586C200.39 224.744 199.942 224.955 199.546 225.139C198.544 225.588 197.569 226.247 196.936 227.143C196.646 227.539 197.173 227.881 197.516 227.723C198.439 227.301 199.309 226.721 200.232 226.273C200.627 226.089 201.075 225.957 201.523 225.799C201.945 226.537 202.446 227.222 203 227.908C201.919 228.54 200.943 229.437 200.627 230.623C200.548 230.887 200.864 231.177 201.128 231.019C202.077 230.386 202.842 229.516 203.659 228.699C206.586 231.915 210.699 234.394 213.994 235.475C218.951 237.109 224.356 237.373 229.524 237.109C234.401 236.872 241.968 234.104 246.476 236.556C246.661 236.661 246.819 236.608 246.925 236.503L247.004 236.424C247.03 236.371 247.056 236.318 247.056 236.266C247.056 236.239 247.083 236.239 247.083 236.186C246.819 225.482 240.122 216.439 230.209 212.537C224.725 210.375 218.687 209.847 212.861 210.718C206.032 211.746 200.021 215.094 192.981 214.514C192.375 214.461 192.085 215.305 192.507 215.674C194.879 217.994 197.49 218.653 200.179 218.522ZM201.945 218.337C207.192 217.493 212.782 214.277 218.002 213.908C231.527 212.959 244.499 221.817 246.213 235.633C239.911 233.471 232.687 235.369 226.201 235.237C220.902 235.132 215.286 234.394 210.62 231.704C204.793 228.33 203.738 223.979 201.945 218.337Z" fill="black"/>
<path d="M294.646 236.081C294.646 236.081 295.437 229.49 297.282 226.062C299.128 222.635 307.038 214.461 315.738 212.88C328.657 210.243 340.258 217.362 340.258 217.362C340.258 217.362 340.258 223.689 336.303 228.171C332.612 232.654 326.021 235.026 323.384 235.29C320.748 235.554 311.256 236.081 306.247 235.29C302.819 234.763 298.864 234.763 297.282 235.29C295.964 235.817 294.646 236.081 294.646 236.081Z" fill="white"/>
<path d="M318.111 208.925C326.021 208.925 332.348 215.252 332.348 223.162C332.348 231.072 326.021 237.399 318.111 237.399C310.201 237.399 303.874 231.072 303.874 223.162C303.874 215.252 310.201 208.925 318.111 208.925Z" fill="#4E60A3"/>
<path d="M318.111 209.716C325.493 209.716 331.821 215.78 331.821 223.426C331.821 231.072 325.757 237.136 318.111 237.136C310.729 237.136 304.401 231.072 304.401 223.426C304.401 215.78 310.729 209.716 318.111 209.716ZM318.111 208.397C309.938 208.397 303.083 215.252 303.083 223.426C303.083 231.599 309.938 238.454 318.111 238.454C326.284 238.454 333.139 231.599 333.139 223.426C333.139 214.989 326.548 208.397 318.111 208.397Z" fill="#253984"/>
<path d="M310.465 227.38C310.465 230.808 311.783 233.972 314.156 236.345C315.475 236.872 316.793 236.872 318.111 236.872C325.493 236.872 331.821 230.808 331.821 223.162C331.821 220.262 331.03 217.889 329.448 215.78C327.603 214.989 325.757 214.198 323.384 214.198C316.265 214.198 310.465 219.998 310.465 227.38Z" fill="#6777B2"/>
<path d="M318.111 215.78C322.066 215.78 325.493 219.207 325.493 223.162C325.493 227.117 322.066 230.544 318.111 230.544C314.156 230.544 310.729 227.117 310.729 223.162C310.729 219.207 314.156 215.78 318.111 215.78Z" fill="black"/>
<path d="M314.947 215.516C317.056 215.516 318.638 217.098 318.638 219.207C318.638 221.316 317.056 222.898 314.947 222.898C312.838 222.898 311.256 221.316 311.256 219.207C311.256 217.098 313.102 215.516 314.947 215.516ZM322.066 226.062C323.384 226.062 324.439 227.117 324.439 228.435C324.439 229.753 323.384 230.808 322.066 230.808C320.748 230.808 319.693 229.753 319.693 228.435C319.693 227.117 320.748 226.062 322.066 226.062Z" fill="white"/>
<path d="M318.797 194.503C302.766 194.503 289.742 209.267 289.742 227.46C289.742 245.652 302.74 260.416 318.797 260.416C334.853 260.416 347.851 245.652 347.851 227.46C347.851 209.267 334.827 194.503 318.797 194.503ZM336.382 228.303C332.612 232.733 326.047 235.158 323.411 235.554C320.774 235.923 311.388 236.318 306.405 235.448C302.872 234.842 298.97 234.895 297.467 235.343C295.964 235.817 294.54 236.186 294.54 236.186C294.54 236.186 295.305 229.516 297.256 226.115C299.233 222.74 306.906 214.567 315.58 212.853C328.552 210.322 340.205 217.467 340.205 217.467C340.205 217.467 340.126 223.874 336.382 228.303Z" fill="#F3D4CF"/>
<path d="M348.8 215.727C349.196 215.331 348.906 214.514 348.326 214.567C341.26 215.147 335.249 211.798 328.446 210.77C322.62 209.9 316.608 210.427 311.098 212.589C301.184 216.491 294.461 225.535 294.224 236.239C294.224 236.265 294.25 236.292 294.25 236.318C294.25 236.371 294.277 236.424 294.303 236.476L294.382 236.556C294.488 236.661 294.646 236.714 294.83 236.608C299.339 234.156 306.906 236.898 311.783 237.162C316.951 237.426 322.382 237.136 327.313 235.527C330.608 234.446 334.721 231.968 337.648 228.751C338.465 229.569 339.23 230.439 340.179 231.072C340.443 231.23 340.759 230.966 340.68 230.676C340.363 229.49 339.362 228.593 338.307 227.96C338.861 227.275 339.362 226.589 339.783 225.851C340.232 226.009 340.68 226.141 341.075 226.326C341.998 226.774 342.868 227.354 343.791 227.776C344.134 227.934 344.661 227.591 344.371 227.196C343.712 226.299 342.763 225.64 341.761 225.192C341.365 225.007 340.917 224.797 340.443 224.638C340.68 224.085 340.891 223.531 341.023 222.977C341.576 222.977 342.13 223.004 342.684 223.109C343.475 223.294 344.213 223.663 345.004 223.821C345.452 223.9 345.821 223.399 345.478 223.03C344.476 222.002 342.789 221.765 341.286 221.87C341.444 220.789 341.392 219.682 341.128 218.574C343.817 218.653 346.427 217.994 348.8 215.727ZM330.687 231.704C326.021 234.42 320.405 235.132 315.105 235.237C308.62 235.369 301.369 233.471 295.094 235.633C296.808 221.817 309.753 212.959 323.305 213.908C328.525 214.277 334.115 217.493 339.362 218.337C337.569 223.979 336.514 228.33 330.687 231.704Z" fill="black"/>
<path d="M199.203 190.996C199.467 190.469 200.258 190.205 200.785 189.942C201.313 189.678 201.84 189.414 202.367 189.414C203.422 188.887 204.476 188.36 205.531 188.096C206.849 187.832 208.695 186.778 210.013 187.569C214.232 185.987 219.768 187.041 223.459 189.151C228.469 189.678 233.742 191.26 237.433 193.896C237.697 194.16 237.96 194.424 237.96 194.687C238.751 194.951 239.279 195.215 240.07 195.478C242.706 196.533 245.606 197.324 248.243 198.642C248.507 198.642 248.77 198.906 249.034 198.906C249.825 199.169 250.088 200.751 249.561 201.015C249.297 201.279 249.298 201.542 249.034 201.806C246.925 203.388 244.288 202.333 242.179 201.542C240.333 200.751 238.224 199.96 236.906 198.379C234.797 197.588 233.215 196.533 231.369 195.478C231.105 195.478 230.842 195.215 230.578 195.215C227.414 194.687 223.987 193.369 220.823 191.787C218.977 191.524 217.395 190.996 215.55 190.996C213.177 190.733 210.804 191.524 208.168 190.733L207.904 190.733C207.377 190.996 206.849 190.996 206.322 191.26C204.213 191.787 202.367 192.314 200.258 192.314C199.994 192.314 199.731 192.051 199.731 191.787L199.467 191.787C199.467 191.787 198.94 191.524 199.203 190.996Z" fill="#2A232B"/>
<path d="M211.068 185.987C219.241 185.459 227.414 189.942 234.797 192.842C239.279 194.687 248.507 195.215 250.352 200.751C250.616 201.542 249.561 201.806 249.034 201.279C246.661 198.115 242.706 197.588 239.015 196.533C235.851 195.478 232.951 194.424 229.787 193.105C223.459 190.469 217.132 188.887 210.54 187.305C210.277 187.041 210.54 186.25 211.068 185.987Z" fill="#3A353A"/>
<path d="M252.989 200.751C253.78 197.06 248.243 195.742 245.606 194.687C239.279 192.051 232.687 189.151 226.096 187.305C222.141 186.25 217.923 185.459 213.968 185.459C210.804 185.459 207.904 185.723 204.74 186.778C199.467 188.36 194.458 191.523 189.975 194.951C187.603 196.269 185.23 198.115 183.384 199.96C183.12 200.224 183.384 200.751 183.911 200.488C183.911 200.488 184.175 200.488 184.175 200.224C184.175 200.488 184.439 200.488 184.702 200.488C188.657 198.642 192.085 196.269 196.039 194.687C199.994 193.105 204.213 192.051 208.431 191.787L210.277 191.787C215.286 191.787 220.032 192.842 224.514 194.951C230.842 197.851 236.642 201.806 242.97 204.179C244.024 204.706 245.343 204.706 246.661 204.706C249.561 204.706 252.461 203.652 252.989 200.751ZM213.968 187.832C218.186 187.832 222.405 188.887 226.623 190.205C231.896 192.051 237.169 194.424 242.443 196.533C243.497 197.06 248.77 198.378 249.298 199.697C249.825 201.279 248.77 201.806 247.188 202.07C246.397 202.07 245.606 201.806 245.079 201.806C243.497 201.279 241.915 200.224 240.597 199.433C232.424 195.215 223.987 190.205 214.759 189.678L212.122 189.678C209.222 189.678 206.058 189.942 202.894 190.469C204.213 189.942 205.531 189.414 207.113 188.887C209.222 188.096 211.595 187.832 213.968 187.832Z" fill="#1B141C"/>
<path d="M342.104 190.996C341.84 190.469 341.049 190.205 340.522 189.942C339.994 189.678 339.467 189.414 338.94 189.414C337.885 188.887 336.83 188.36 335.776 188.096C334.458 187.832 332.612 186.778 331.294 187.569C327.075 185.987 321.539 187.041 317.847 189.151C312.838 189.678 307.565 191.26 303.874 193.896C303.61 194.16 303.346 194.424 303.346 194.687C302.556 194.951 302.028 195.215 301.237 195.478C298.601 196.533 295.701 197.324 293.064 198.642C292.8 198.642 292.537 198.906 292.273 198.906C291.482 199.169 291.218 200.751 291.746 201.015C292.009 201.279 292.009 201.542 292.273 201.806C294.382 203.388 297.019 202.333 299.128 201.542C300.974 200.751 303.083 199.96 304.401 198.379C306.51 197.588 308.092 196.533 309.938 195.478C310.201 195.478 310.465 195.215 310.729 195.215C313.893 194.687 317.32 193.369 320.484 191.787C322.33 191.524 323.911 190.996 325.757 190.996C328.13 190.733 330.503 191.524 333.139 190.733L333.403 190.733C333.93 190.996 334.458 190.996 334.985 191.26C337.094 191.787 338.94 192.314 341.049 192.314C341.313 192.314 341.576 192.051 341.576 191.787L341.84 191.787C341.84 191.787 342.367 191.524 342.104 190.996Z" fill="#2A232B"/>
<path d="M330.239 185.987C322.066 185.459 313.893 189.942 306.51 192.842C302.028 194.687 292.8 195.215 290.955 200.751C290.691 201.542 291.746 201.806 292.273 201.279C294.646 198.115 298.601 197.588 302.292 196.533C305.456 195.478 308.356 194.424 311.52 193.105C317.847 190.469 324.175 188.887 330.766 187.305C331.03 187.041 330.766 186.25 330.239 185.987Z" fill="#3A353A"/>
<path d="M294.382 204.443C295.701 204.443 297.019 204.179 298.073 203.915C304.401 201.542 310.465 197.588 316.529 194.687C321.275 192.578 326.021 191.524 330.766 191.524L332.612 191.524C336.83 191.787 341.049 192.842 344.74 194.424C348.695 196.006 352.386 198.642 356.077 200.224C356.341 200.224 356.604 200.224 356.604 199.96C356.604 199.96 356.868 199.96 356.868 200.224C357.395 200.488 357.659 199.96 357.395 199.697C355.55 197.851 353.177 196.006 350.804 194.687C346.322 191.26 341.313 188.36 336.04 186.514C333.139 185.46 329.975 185.196 326.812 185.196C322.593 185.196 318.638 185.987 314.684 187.041C308.092 188.887 301.501 191.787 295.173 194.424C292.8 195.478 287 196.797 287.791 200.488C288.846 203.652 291.746 204.706 294.382 204.443ZM334.458 188.887C335.776 189.414 337.358 189.678 338.676 190.469C335.512 189.942 332.612 189.678 329.448 189.678L326.812 189.678C317.584 190.205 308.883 195.478 300.974 199.433C299.392 200.224 298.073 201.279 296.491 201.806C295.964 202.07 295.173 202.07 294.382 202.07C293.064 202.07 291.746 201.542 292.273 199.697C292.8 198.379 298.073 197.06 299.128 196.533C304.401 194.424 309.674 192.051 314.947 190.205C319.166 188.887 323.384 187.832 327.603 187.832C329.712 187.832 332.085 188.096 334.458 188.887Z" fill="#1B141C"/>
<path d="M264.642 209.9C262.533 218.68 262.243 228.066 261.294 237.03C260.292 246.627 258.446 256.54 258.578 266.19C258.578 266.955 259.765 267.166 259.949 266.375C261.9 257.569 262.137 248.156 263.06 239.192C264.036 229.595 265.829 219.655 265.512 210.032C265.512 209.531 264.774 209.399 264.642 209.9Z" fill="#C5796D"/>
<path d="M256.706 261.128C254.122 264.582 251.96 268.326 250.062 272.201C248.849 274.706 247.32 277.659 248.137 280.533C249.456 285.279 255.493 286.755 259.422 284.514C260.582 283.829 260.055 282.009 258.736 282.009C256.443 281.983 253.753 282.721 251.934 280.77C249.719 278.424 251.908 274.179 252.883 271.806C254.333 268.326 256.1 264.977 257.471 261.471C257.655 260.97 256.97 260.785 256.706 261.128Z" fill="#C5796D"/>
<path d="M256.337 280.665C263.456 280.137 264.8 289.102 271.576 289.313C277.377 289.497 277.825 280.77 283.335 281.034C283.968 281.06 284.179 280.164 283.652 279.847C277.403 276.156 276.243 287.019 270.495 286.333C267.094 285.938 264.668 280.928 261.61 279.478C259.527 278.503 258.024 278.582 255.994 279.505C255.493 279.795 255.757 280.718 256.337 280.665Z" fill="#C5796D"/>
<path d="M281.384 284.725C286.077 285.78 291.535 284.33 292.642 279.109C293.196 276.499 292.326 273.915 290.955 271.701C288.74 268.088 285.866 265.03 283.757 261.286C283.414 260.653 282.518 260.97 282.492 261.629C282.228 265.821 285.339 268.721 287.554 271.964C289.61 274.943 291.377 279.056 287.923 282.009C286.341 283.354 283.335 283.117 281.384 283.486C280.751 283.618 280.778 284.593 281.384 284.725Z" fill="#C5796D"/>
<path d="M276.77 270.646C275.742 268.8 273.079 268.51 271.603 269.987C271.471 270.119 270.996 270.725 270.864 270.883C270.706 271.094 270.363 271.542 270.311 271.621C270.153 271.885 269.994 272.149 269.862 272.412L269.572 273.098C269.572 273.071 269.546 273.124 269.493 273.23C269.335 273.388 269.177 273.572 269.045 273.731C268.597 274.205 268.149 274.68 267.78 275.233C266.725 276.894 267.569 278.793 268.992 279.847C271.181 281.482 274.345 280.164 275.874 278.318C277.719 276.104 278.22 273.256 276.77 270.646Z" fill="#FBE5E2"/>
<path d="M384.288 178.077C381.915 198.379 376.906 217.625 371.633 227.117C371.633 227.117 370.842 189.414 361.878 171.486C352.913 153.557 326.548 132.992 323.384 117.964C323.384 117.964 327.339 126.665 333.403 130.356C339.467 134.047 360.559 150.394 365.569 155.93C370.578 161.467 378.751 175.177 382.179 177.023C382.443 177.286 383.497 177.55 384.288 178.077ZM183.384 326.778C183.384 328.36 182.857 332.578 182.066 338.642C180.22 321.241 176.529 301.994 176.529 301.994C176.529 301.994 96.9058 419.32 107.452 458.077C117.998 496.834 139.354 523.727 141.463 525.836C143.572 527.945 152.009 530.846 155.701 537.701C157.019 540.337 183.384 514.499 170.465 483.388C157.81 452.277 154.91 431.185 165.456 414.838C167.301 411.938 168.883 408.774 170.465 405.61C168.356 416.947 166.51 425.911 165.983 428.548C163.61 437.776 163.61 450.959 169.938 465.46C176.265 479.96 186.021 480.751 186.021 480.751C181.539 473.633 181.275 461.505 185.493 448.849C189.712 436.194 196.567 423.802 200.258 410.62C204.213 396.91 206.058 380.563 193.139 353.407C186.021 337.324 183.384 326.778 183.384 326.778Z" fill="#221B23"/>
<path d="M323.384 117.964C323.384 117.964 275.399 135.893 236.906 122.446C198.412 109 173.629 162.258 176.793 193.896C179.957 225.535 201.576 266.928 188.921 318.077C176.266 369.226 139.354 408.247 128.808 430.921C118.262 453.595 118.262 476.797 128.808 493.407C139.354 510.017 144.627 521.881 147.527 539.283C147.527 539.283 143.572 529.791 128.017 518.19C103.497 499.998 93.4783 478.379 95.0602 444.631C96.6422 410.883 111.407 384.518 124.326 357.362C136.981 330.205 143.572 295.93 134.608 273.256C125.644 250.582 115.362 219.207 119.053 163.313C122.744 107.682 153.591 77.8889 192.085 55.2147C230.578 32.5405 286.209 36.759 321.539 58.6422C356.868 80.5255 351.595 100.036 351.595 100.036C351.595 100.036 362.141 94.7628 377.96 118.755C393.78 142.748 383.234 206.815 371.896 227.117C371.896 227.117 371.105 189.414 362.141 171.486C353.177 153.557 326.548 132.993 323.384 117.964Z" fill="#2A232B"/>
<path d="M343.422 101.354C337.358 105.309 331.03 105.309 327.339 103.463C316.529 98.7176 307.829 82.371 298.864 72.6159C283.836 56.2694 279.881 47.8324 245.343 45.9869C220.823 44.6686 201.313 50.9963 189.975 56.0057C152.537 78.4162 122.744 108.209 119.053 163.049C115.362 218.68 125.38 250.318 134.608 272.993C143.836 295.667 136.981 329.942 124.326 357.098C111.67 384.254 96.6422 410.62 95.0602 444.367C93.4783 478.115 103.761 499.734 128.017 517.927C143.572 529.527 147.527 539.019 147.527 539.019C143.309 527.154 136.981 522.409 124.589 511.072C111.934 499.735 99.806 467.832 102.443 443.576C105.079 419.32 128.017 377.663 138.827 360.789C149.637 343.915 158.337 314.913 162.028 299.358C165.719 283.802 162.556 270.883 151.746 244.254C140.936 217.625 135.136 148.021 136.981 136.156C139.881 114.273 145.154 99.2449 161.765 81.8437C186.548 56.0057 218.714 52.0509 237.96 51.7872C269.072 51.5236 290.691 72.0886 294.646 77.8889C298.601 83.6893 322.33 109.264 328.394 110.318C334.458 111.373 349.486 101.354 349.486 101.354L351.331 99.7722C351.331 99.7722 352.122 97.1356 351.331 92.9172C350.013 95.2901 347.377 98.7176 343.422 101.354ZM276.454 127.192C277.245 127.192 278.299 127.192 279.09 126.928C279.618 126.928 280.409 126.928 281.2 126.665C282.254 126.665 283.572 126.401 284.627 126.401C285.154 126.401 285.945 126.138 286.736 126.138C287.527 126.138 288.582 125.874 289.373 125.874C290.164 125.874 290.955 125.61 291.746 125.61C292.537 125.61 293.328 125.347 294.119 125.347C294.646 125.347 295.173 125.083 295.701 125.083C296.755 124.819 297.81 124.556 298.864 124.556C299.392 124.556 299.919 124.292 300.446 124.292C301.501 124.028 302.556 123.765 303.346 123.765C303.874 123.765 304.137 123.501 304.401 123.501C305.192 123.237 305.983 122.974 306.774 122.974C307.038 122.974 307.301 122.974 307.565 122.71C308.62 122.446 309.674 122.183 310.465 121.919C310.729 121.919 310.992 121.919 311.256 121.655C312.311 121.392 313.102 121.128 314.156 120.864C319.957 119.283 323.384 117.964 323.384 117.964C323.384 117.964 310.201 119.546 294.646 103.463C288.582 93.7081 278.563 75.7797 263.007 69.7157C245.079 62.597 185.23 59.4332 164.928 102.672C144.627 145.912 157.81 183.087 166.51 201.279C175.211 219.471 188.921 254.273 188.394 276.947C187.866 299.885 182.33 332.315 176.265 346.552C170.201 360.789 129.862 410.883 121.426 434.348C112.725 458.868 109.825 475.478 130.653 508.962C138.563 521.881 143.836 525.573 145.945 530.318C142.782 517.136 137.772 506.589 128.808 492.88C118.262 476.269 118.262 453.068 128.808 430.394C139.354 407.719 176.266 368.699 188.921 317.55C201.576 266.401 179.957 225.008 176.793 193.369C173.629 161.731 198.676 108.473 236.906 121.919C241.915 123.765 247.188 124.819 252.198 125.61H252.461C252.989 125.61 253.516 125.874 254.307 125.874C255.362 125.874 256.416 126.138 257.471 126.138C258.262 126.138 259.053 126.138 259.58 126.401C260.635 126.401 261.689 126.665 263.007 126.665H273.817C274.608 127.456 275.663 127.456 276.454 127.192Z" fill="#221B23"/>
<path d="M173.893 360.789C173.893 360.789 167.038 378.19 149.373 399.546C125.908 427.757 121.162 445.422 129.863 467.569C138.563 489.716 150.427 501.316 154.382 511.072C158.337 520.827 157.282 531.109 157.282 531.109C157.282 531.109 162.292 520.299 160.183 512.126C158.337 503.953 140.672 475.478 138.036 459.395C135.399 443.313 138.299 425.384 149.109 410.092C158.337 397.173 169.147 379.508 173.893 360.789ZM178.902 364.744C178.902 364.744 172.311 395.328 163.083 410.62C153.855 425.911 150.955 444.895 157.81 460.977C164.665 477.06 177.847 498.152 176.793 512.126C176.793 512.126 185.757 495.252 177.32 477.851C168.883 460.45 165.983 434.612 172.838 416.947C179.693 399.546 180.484 376.872 178.902 364.744Z" fill="#2A232B"/>
<path d="M252.461 126.401C253.252 126.401 253.78 126.665 254.307 126.665C255.362 126.665 256.416 126.928 257.471 126.928C258.262 126.928 259.053 126.928 259.58 127.192C260.635 127.192 261.689 127.456 263.007 127.456H266.962C260.635 124.819 253.252 120.601 246.925 113.218C234.269 97.6629 224.514 90.5443 204.213 92.6535C183.911 94.7627 162.556 122.183 163.874 150.921C165.192 179.395 174.42 197.588 180.22 213.143C178.638 206.288 177.32 199.96 176.793 193.896C173.893 162.258 198.676 109 236.906 122.446C242.179 124.292 247.188 125.347 252.461 126.401Z" fill="#1B141C"/>
<path opacity="0.44" d="M260.107 219.471C260.107 219.471 260.898 213.934 251.407 210.77C244.288 208.397 236.642 207.87 230.578 207.87C224.514 207.87 205.004 207.606 199.994 208.134C194.985 208.661 187.603 209.188 184.966 216.571C182.33 223.953 185.757 236.345 195.776 242.409C205.795 248.473 226.36 249 239.542 245.045C252.989 241.09 259.053 231.862 260.107 219.471Z" fill="white"/>
<path opacity="0.44" d="M281.2 219.471C281.2 219.471 280.409 213.934 289.9 210.77C297.019 208.397 304.665 207.87 310.729 207.87C316.793 207.87 336.303 207.606 341.313 208.134C346.322 208.661 353.704 209.188 356.077 216.571C358.45 223.953 355.286 236.345 345.267 242.409C335.249 248.473 314.684 249 301.501 245.045C288.318 241.09 282.254 231.862 281.2 219.471Z" fill="white"/>
<path d="M260.107 217.889C260.107 217.889 269.072 213.67 281.2 217.889V220.262C281.2 220.262 268.281 217.889 259.844 220.262L260.107 217.889Z" fill="#070201"/>
<path d="M220.032 248.473C209.75 248.473 200.785 246.627 195.249 243.2C186.284 237.663 182.857 227.38 183.384 220.262V219.998H177.32V214.989H184.702V214.725C187.866 208.661 194.721 207.87 199.203 207.343H199.731C201.84 207.079 206.849 207.079 214.759 207.079H230.578C236.642 207.079 244.288 207.343 251.67 209.979C261.426 213.407 261.162 218.943 260.898 219.734C259.58 233.444 252.461 242.409 239.806 246.1C234.269 247.682 227.414 248.473 220.032 248.473ZM215.023 208.925C207.113 208.925 202.104 208.925 199.994 209.188H199.467C194.458 209.716 188.13 210.243 185.757 216.834C183.384 224.217 186.812 235.817 196.04 241.618C201.313 244.781 209.75 246.627 219.768 246.627C226.623 246.627 233.742 245.836 239.015 243.991C251.143 240.299 257.734 232.126 258.789 219.207C258.789 218.68 259.053 214.461 250.616 211.561C243.497 209.188 235.851 208.925 230.051 208.925H215.023ZM321.275 248.473C314.156 248.473 307.038 247.418 301.501 245.836C288.846 241.881 281.727 233.181 280.409 219.471C280.409 218.943 279.881 213.143 289.637 209.716C297.019 207.343 304.928 206.815 310.729 206.815H326.548C334.458 206.815 339.467 206.815 341.576 207.079H342.104C346.586 207.606 353.704 208.134 356.605 214.461V214.725H363.987V219.734H357.923V219.998C358.45 227.117 355.023 237.399 346.058 242.936C340.522 246.627 331.294 248.473 321.275 248.473ZM326.284 208.925H310.729C304.928 208.925 297.282 209.188 290.164 211.561C281.727 214.461 281.991 218.68 281.991 219.207C283.045 232.39 289.637 240.299 301.765 243.991C307.038 245.572 314.156 246.627 321.011 246.627C331.03 246.627 339.731 244.781 344.74 241.618C353.968 235.817 357.659 224.217 355.023 216.834C352.913 210.243 346.586 209.716 341.313 209.188H340.785C339.203 208.925 334.194 208.925 326.284 208.925Z" fill="#26120B"/>
<path d="M326.548 206.552V207.079C334.458 207.079 339.203 207.079 341.576 207.343H342.104C346.586 207.87 353.441 208.397 356.341 214.461L356.605 214.725H363.723V219.471H357.659V219.998C358.186 227.117 354.759 237.136 345.795 242.672C340.258 246.1 331.294 247.945 321.275 247.945C314.156 247.945 307.038 246.891 301.501 245.309C288.846 241.354 281.991 232.653 280.672 219.207C280.672 218.68 280.145 213.143 289.9 209.979C297.282 207.606 304.928 207.079 310.992 207.079H327.075L326.548 206.552ZM321.275 246.891C331.294 246.891 339.994 245.045 345.267 241.881C354.759 236.081 358.186 224.217 355.814 216.571C353.441 209.716 346.849 209.188 341.84 208.661H341.313C339.203 208.397 334.458 208.397 326.284 208.397H310.729C304.928 208.397 297.282 208.661 290.164 211.034C281.727 213.934 281.727 218.416 281.991 218.943C283.045 232.126 289.637 240.299 302.028 243.991C307.301 246.1 314.156 246.891 321.275 246.891ZM326.548 206.552H310.729C304.665 206.552 297.019 206.815 289.637 209.452C279.618 212.879 279.881 218.68 280.145 219.471C281.463 233.181 288.582 242.409 301.501 246.1C307.038 247.945 314.156 248.736 321.539 248.736C331.03 248.736 340.522 247.154 346.586 243.2C355.023 237.927 359.241 227.908 358.714 219.998H364.778V214.198H357.395C354.232 207.87 347.377 207.079 342.631 206.815H342.104C338.94 206.815 332.876 206.552 326.548 206.552ZM321.275 246.363C314.42 246.363 307.565 245.572 302.028 243.727C289.9 240.036 283.572 232.126 282.518 219.207C282.518 218.943 282.254 214.725 290.427 211.825C297.546 209.452 304.928 209.188 310.729 209.188H326.548C332.876 209.188 338.94 209.188 341.313 209.452H341.84C346.849 209.979 352.913 210.507 355.286 216.834C357.659 223.953 354.232 235.554 345.004 241.354C339.203 244.782 330.239 246.363 321.275 246.363ZM214.759 207.343H230.842C236.642 207.343 244.552 207.606 251.934 210.243C261.426 213.407 261.162 218.943 261.162 219.471C259.844 232.917 252.989 241.881 240.333 245.572C234.797 247.418 227.678 248.209 220.559 248.209C210.277 248.209 201.313 246.363 196.04 242.936C187.339 237.399 183.648 227.38 184.175 220.262V219.734H178.111V215.252H185.493L185.757 214.989C188.657 208.925 195.512 208.397 199.994 207.87H200.522C202.104 207.343 206.849 207.343 214.759 207.343ZM220.032 246.891C227.151 246.891 234.006 246.1 239.279 244.254C251.67 240.563 257.998 232.39 259.316 218.943C259.316 218.416 259.58 213.934 250.879 211.034C243.761 208.661 236.115 208.397 230.314 208.397H214.759C206.849 208.397 201.84 208.397 199.731 208.661L199.467 208.925C194.458 209.452 187.866 209.979 185.493 216.834C183.121 224.217 186.548 236.081 196.04 242.145C201.313 245.045 210.277 246.891 220.032 246.891ZM214.759 206.552C208.431 206.552 202.367 206.552 199.731 206.815H199.203C194.458 207.343 187.603 207.87 184.439 214.198H177.056V219.998H183.121C182.593 227.908 186.548 237.927 195.249 243.2C201.313 246.891 210.804 248.736 220.296 248.736C227.414 248.736 234.533 247.682 240.333 246.1C253.252 242.145 260.371 233.181 261.689 219.471C261.689 218.943 262.217 212.879 252.198 209.452C244.815 206.815 236.906 206.552 231.105 206.552H214.759ZM220.032 246.363C211.068 246.363 202.104 244.782 196.303 241.354C187.075 235.554 183.648 224.217 186.021 216.834C188.13 210.507 194.458 209.979 199.467 209.452H199.994C202.367 209.188 208.695 209.188 214.759 209.188H230.578C236.379 209.188 244.024 209.452 250.879 211.825C259.053 214.725 258.789 218.943 258.789 219.207C257.734 232.126 251.143 240.036 239.279 243.727C234.006 245.572 227.151 246.363 220.032 246.363Z" fill="#070201"/>
</g>
</svg>
