<svg id="visual" viewBox="0 0 900 600" width="900" height="600" xmlns="http://www.w3.org/2000/svg" xmlns:xlink="http://www.w3.org/1999/xlink" version="1.1"><path d="M0 430L21.5 444.8C43 459.7 86 489.3 128.8 500.2C171.7 511 214.3 503 257.2 482.2C300 461.3 343 427.7 385.8 417.3C428.7 407 471.3 420 514.2 441.2C557 462.3 600 491.7 642.8 488C685.7 484.3 728.3 447.7 771.2 445.3C814 443 857 475 878.5 491L900 507L900 601L878.5 601C857 601 814 601 771.2 601C728.3 601 685.7 601 642.8 601C600 601 557 601 514.2 601C471.3 601 428.7 601 385.8 601C343 601 300 601 257.2 601C214.3 601 171.7 601 128.8 601C86 601 43 601 21.5 601L0 601Z" fill="#FFFFFF" stroke-linecap="round" stroke-linejoin="miter"></path></svg>